M48
;Layer_Color=9474304
;FILE_FORMAT=2:5
INCH,LZ
;TYPE=PLATED
T1F00S00C0.01181
T2F00S00C0.03543
T3F00S00C0.03937
;TYPE=NON_PLATED
T4F00S00C0.02400
T6F00S00C0.08661
%
T01
X-0043307Y-0072835
X-0040157Y-0062748
X-0037008
X-0031496Y-0059055
X-0027559Y-0062748
X-0024409Y-0072685
X-0019685Y-0072835
X-0013929Y-0055905
X-001378Y-0049213
X-0009843Y-0047244
X-0005906
X0
X0001969Y-0037402
X-0011811
X-0013929Y-0040157
Y-0043307
X-0019685Y-0033465
Y-0021654
X-0025591Y-0017717
X-0029553Y-0019711
X-0033465Y-0025591
X-0033858Y-0029677
X-0037008Y-0029677
X-0040157Y-0029677
X-0046457
X-0045276Y-0018701
X-0044291Y-001378
X-0046508Y-0003937
X-0033465Y-0003937
X-0031321Y-0006081
X-0009843Y-0005906
X0
X0009843
X0005906Y-0021654
X0021654Y-0017717
X0015748Y-0035433
X0017717Y-0047098
X0011811
X0023622
Y-0064961
X0017717
X0011811
X0005906
X001561Y-0059291
X-000689Y-0062008
X-0009843Y-0059055
X-0043307
Y-005315
X-0047Y-0055905
Y-0049606
X-0041339Y-0047244
X-0030709Y-0039614
X-0047Y-0062205
X-0057036Y-0017717
X-0058319Y-001378
Y-0005906
X-0055854Y-0007874
X0044414Y-0009
X0043307Y-0003937
X0055854Y-0011811
X0058319Y-0009843
X0057035Y-0017717
X0067665
X0067665Y-001378
Y-0005906
X0068898Y-0035433
Y-0047244
X0072835
X0074803Y-0043307
X0066929Y-0059055
X0062992
X0057086Y-0053149
X0051181Y-0049213
X0049213Y-0057087
X0041339Y-0049213
X0047244Y-0021654
X0057087Y-0070866
X-0067665Y-0017717
X-0067665Y-0009843
X-0067913Y-0003937
X-0070866Y0001969
X-0067665Y0005906
Y001378
X-0067665Y0017717
X-0070866Y0011811
X-0068898Y0062992
X-0017717
X-0009843Y0070866
X0003937Y0072835
X0008405Y004498
X0020768Y0032185
X0033465Y0027559
X0035433Y0045276
X0051279Y0037402
X0064961
X0062992Y0027559
X0067665Y0017717
X0067665Y0009843
Y0001969
X0057086Y0
X0055854Y0003937
X0058319Y0005906
Y001378
X0055854Y0011811
X0057035Y0017717
X0044414Y0009
X003937Y0009843
X00373Y-00021
X0046508Y0
X0074803Y0045154
X005315Y007874
X-0023622Y0082677
X-0035433
X-0031496Y0041339
X-0037402Y0029528
X-0047244Y0025591
X-0044414Y00135
X-0046508Y0003937
X-0055854Y-0
X-0057086Y0009843
X-0057036Y0017717
X-0009843Y0017717
T02
X-0061024Y-0053465
Y-0043465
Y-0033465
X-0071024
Y-0043465
Y-0053465
X-0064961Y003937
X-0054961
T03
X-0009843Y-0029528
X0
X0009843
Y0027559
X-0009843
T04
X-004419Y-004419
X-002819Y-002819
X-0041437Y-0005247
X-0057437Y-0021247
X0041437
X004419Y-002819
X002819Y-004419
X0057437Y-0005247
Y0021247
X0041437Y0005247
X002819Y002819
X004419Y004419
X0021247Y0057437
X-0005247
X0005247Y0041437
X-0021247
X-002819Y004419
X-004419Y002819
X-0041437Y0021247
X-0057437Y0005247
X-0057213Y0092394
X-0037528
X-0017842
X0001843
X0021528
X0041213
X0037528Y0108394
X0057213
X0017842
X-0001843
X-0021528
X-0041213
T06
X0068898Y-0068898
X-0068898
Y0108268
X0068898
M30
