%FSLAX25Y25*%
%MOIN*%
G70*
G01*
G75*
G04 Layer_Physical_Order=1*
G04 Layer_Color=255*
%ADD10C,0.07874*%
%ADD11R,0.01575X0.02756*%
%ADD12C,0.03937*%
%ADD13C,0.00591*%
%ADD14C,0.01000*%
%ADD15C,0.07087*%
%ADD16R,0.05906X0.05906*%
%ADD17C,0.05906*%
%ADD18R,0.05906X0.05906*%
%ADD19C,0.02441*%
G36*
X-47448Y-19772D02*
X-47007Y-20432D01*
X-46213Y-20963D01*
X-45276Y-21149D01*
X-45009Y-21096D01*
X-43769Y-22336D01*
Y-28511D01*
X-44269Y-28629D01*
X-44725Y-27946D01*
X-45520Y-27415D01*
X-46457Y-27229D01*
X-47394Y-27415D01*
X-48188Y-27946D01*
X-48719Y-28740D01*
X-48737Y-28831D01*
X-49215Y-28976D01*
X-52825Y-25367D01*
Y-20585D01*
X-52325Y-20174D01*
X-52165Y-20206D01*
X-49213D01*
X-48636Y-20091D01*
X-48148Y-19765D01*
X-48011Y-19628D01*
X-47448Y-19772D01*
D02*
G37*
G36*
X-39891Y2329D02*
Y-2886D01*
X-40332Y-3121D01*
X-40508Y-3004D01*
X-41437Y-2819D01*
X-42366Y-3004D01*
X-43154Y-3530D01*
X-43680Y-4318D01*
X-43865Y-5247D01*
X-43741Y-5869D01*
X-44107Y-6369D01*
X-50197D01*
X-50773Y-6483D01*
X-51144Y-6731D01*
X-51644Y-6551D01*
Y-4561D01*
X-47605Y-521D01*
X-44291D01*
X-43715Y-406D01*
X-43227Y-80D01*
X-42243Y904D01*
X-41916Y1393D01*
X-41802Y1969D01*
Y3587D01*
X-41340Y3778D01*
X-39891Y2329D01*
D02*
G37*
G36*
X69499Y7578D02*
Y-3641D01*
X68999Y-3908D01*
X68602Y-3643D01*
X67665Y-3457D01*
X66966Y-3596D01*
X66466Y-3263D01*
Y6514D01*
X67399Y7447D01*
X67665Y7394D01*
X68602Y7580D01*
X68999Y7845D01*
X69499Y7578D01*
D02*
G37*
G36*
X-32724Y-21648D02*
X-32214Y-22158D01*
Y-25951D01*
X-32561Y-26298D01*
X-32887Y-26786D01*
X-33001Y-27362D01*
Y-29528D01*
X-32887Y-30104D01*
X-32561Y-30592D01*
X-32214Y-30939D01*
Y-32999D01*
X-32714Y-33259D01*
X-32844Y-33168D01*
Y-31072D01*
X-34522D01*
X-34724Y-30694D01*
X-34737Y-30572D01*
X-34559Y-29677D01*
X-34746Y-28740D01*
X-35276Y-27946D01*
X-36071Y-27415D01*
X-37008Y-27228D01*
X-37945Y-27415D01*
X-37947Y-27416D01*
X-38452Y-27170D01*
X-38489Y-26838D01*
X-33233Y-21582D01*
X-32724Y-21648D01*
D02*
G37*
G36*
X-6721Y50491D02*
X6174D01*
X6899Y49766D01*
Y46863D01*
X6673Y46712D01*
X6142Y45917D01*
X5956Y44980D01*
X6111Y44203D01*
X5841Y43845D01*
X5726Y43770D01*
X5247Y43865D01*
X4318Y43680D01*
X3530Y43154D01*
X3004Y42366D01*
X2819Y41437D01*
X3004Y40508D01*
X3530Y39720D01*
X4318Y39194D01*
X5247Y39009D01*
X6176Y39194D01*
X6963Y39720D01*
X7490Y40508D01*
X7674Y41437D01*
X7523Y42197D01*
X7806Y42566D01*
X7908Y42630D01*
X8405Y42532D01*
X9342Y42718D01*
X10136Y43249D01*
X10483Y43768D01*
X11101Y43857D01*
X12715Y42243D01*
X13204Y41916D01*
X13780Y41802D01*
X15124D01*
X15227Y41699D01*
Y36220D01*
X15342Y35644D01*
X15668Y35156D01*
X18372Y32452D01*
X18319Y32185D01*
X18506Y31248D01*
X19036Y30454D01*
X19262Y30303D01*
Y29724D01*
X19377Y29148D01*
X19703Y28660D01*
X27333Y21030D01*
Y3416D01*
X26833Y3316D01*
X26568Y3957D01*
X25810Y4944D01*
X24824Y5702D01*
X23674Y6178D01*
X22441Y6340D01*
X21208Y6178D01*
X20058Y5702D01*
X19072Y4944D01*
X18314Y3957D01*
X17838Y2808D01*
X17676Y1575D01*
Y-1575D01*
X17838Y-2808D01*
X18314Y-3957D01*
X19072Y-4944D01*
X20058Y-5702D01*
X21208Y-6178D01*
X22441Y-6340D01*
X23674Y-6178D01*
X24824Y-5702D01*
X25810Y-4944D01*
X26568Y-3957D01*
X26833Y-3316D01*
X27333Y-3416D01*
Y-34810D01*
X26247Y-35896D01*
X21654D01*
X21078Y-36011D01*
X20589Y-36337D01*
X13699Y-43227D01*
X13373Y-43715D01*
X13259Y-44291D01*
Y-44647D01*
X12818Y-44883D01*
X12748Y-44836D01*
X11811Y-44650D01*
X10874Y-44836D01*
X10080Y-45367D01*
X9549Y-46161D01*
X9362Y-47098D01*
X9549Y-48035D01*
X10080Y-48830D01*
X10874Y-49361D01*
X11811Y-49547D01*
X12748Y-49361D01*
X12775Y-49343D01*
X13330Y-49573D01*
X13373Y-49789D01*
X13699Y-50277D01*
X14105Y-50683D01*
Y-57409D01*
X13879Y-57560D01*
X13348Y-58354D01*
X13162Y-59291D01*
X13348Y-60228D01*
X13879Y-61023D01*
X14673Y-61554D01*
X15610Y-61740D01*
X16547Y-61554D01*
X17342Y-61023D01*
X17873Y-60228D01*
X18059Y-59291D01*
X17873Y-58354D01*
X17342Y-57560D01*
X17116Y-57409D01*
Y-50059D01*
X17090Y-49932D01*
X17516Y-49507D01*
X17717Y-49547D01*
X18654Y-49361D01*
X19448Y-48830D01*
X19979Y-48035D01*
X20165Y-47098D01*
X20112Y-46832D01*
X20867Y-46077D01*
X21328Y-46323D01*
X21173Y-47098D01*
X21360Y-48035D01*
X21891Y-48830D01*
X22685Y-49361D01*
X23622Y-49547D01*
X24559Y-49361D01*
X25354Y-48830D01*
X25884Y-48035D01*
X26071Y-47098D01*
X25884Y-46161D01*
X25354Y-45367D01*
X24559Y-44836D01*
X23622Y-44650D01*
X22847Y-44804D01*
X22601Y-44343D01*
X24100Y-42844D01*
X25679D01*
X25931Y-43344D01*
X25763Y-44190D01*
X25948Y-45120D01*
X26474Y-45907D01*
X27261Y-46433D01*
X28190Y-46618D01*
X29120Y-46433D01*
X29907Y-45907D01*
X30433Y-45120D01*
X30618Y-44190D01*
X30516Y-43674D01*
X30872Y-43144D01*
X31131Y-43103D01*
X31416Y-43387D01*
X31904Y-43714D01*
X32480Y-43828D01*
X36417D01*
X36993Y-43714D01*
X37482Y-43387D01*
X38633Y-42236D01*
X38959Y-41748D01*
X39046Y-41309D01*
X39537D01*
Y-38910D01*
X40435Y-38012D01*
X40761Y-37524D01*
X40875Y-36948D01*
Y-31496D01*
X40761Y-30920D01*
X40435Y-30432D01*
X39450Y-29447D01*
X38962Y-29121D01*
X38386Y-29006D01*
X36417D01*
X36341Y-29022D01*
X35954Y-28705D01*
Y-23261D01*
X38631Y-20584D01*
X39092Y-20830D01*
X39009Y-21247D01*
X39194Y-22176D01*
X39720Y-22963D01*
X40508Y-23490D01*
X41437Y-23674D01*
X42366Y-23490D01*
X43154Y-22963D01*
X43680Y-22176D01*
X43865Y-21247D01*
X43680Y-20318D01*
X43154Y-19530D01*
X42366Y-19004D01*
X41437Y-18819D01*
X41021Y-18902D01*
X40775Y-18441D01*
X45591Y-13625D01*
X46091Y-13832D01*
Y-18365D01*
X46554D01*
Y-19061D01*
X46180Y-19436D01*
X46131Y-19509D01*
X45513Y-19922D01*
X44982Y-20717D01*
X44796Y-21654D01*
X44982Y-22591D01*
X45513Y-23385D01*
X45739Y-23536D01*
Y-25831D01*
X45298Y-26067D01*
X45120Y-25948D01*
X44190Y-25763D01*
X43261Y-25948D01*
X42474Y-26474D01*
X41948Y-27261D01*
X41763Y-28190D01*
X41948Y-29120D01*
X42474Y-29907D01*
X43261Y-30433D01*
X44190Y-30618D01*
X45120Y-30433D01*
X45298Y-30314D01*
X45739Y-30550D01*
Y-49213D01*
X45853Y-49789D01*
X46180Y-50277D01*
X47707Y-51805D01*
Y-55204D01*
X47481Y-55355D01*
X46950Y-56150D01*
X46764Y-57087D01*
X46950Y-58024D01*
X47481Y-58818D01*
X48276Y-59349D01*
X49213Y-59535D01*
X50150Y-59349D01*
X50944Y-58818D01*
X51475Y-58024D01*
X51661Y-57087D01*
X51475Y-56150D01*
X50944Y-55355D01*
X50718Y-55204D01*
Y-51963D01*
X51104Y-51646D01*
X51181Y-51661D01*
X52118Y-51475D01*
X52912Y-50944D01*
X52945Y-50895D01*
X53424Y-51040D01*
Y-53971D01*
X53539Y-54547D01*
X53865Y-55035D01*
X55581Y-56752D01*
Y-68984D01*
X55355Y-69135D01*
X54824Y-69929D01*
X54638Y-70866D01*
X54824Y-71803D01*
X55355Y-72598D01*
X56150Y-73128D01*
X57087Y-73315D01*
X58024Y-73128D01*
X58818Y-72598D01*
X59349Y-71803D01*
X59444Y-71327D01*
X59958Y-71301D01*
X60309Y-72455D01*
X61168Y-74063D01*
X62324Y-75471D01*
X63023Y-76046D01*
X62855Y-76516D01*
X35162D01*
X35088Y-76016D01*
X36265Y-75659D01*
X37531Y-74983D01*
X38640Y-74073D01*
X39550Y-72964D01*
X40226Y-71698D01*
X40643Y-70325D01*
X40783Y-68898D01*
X40643Y-67470D01*
X40226Y-66097D01*
X39550Y-64832D01*
X38640Y-63722D01*
X37531Y-62812D01*
X36265Y-62136D01*
X34892Y-61720D01*
X33465Y-61579D01*
X32037Y-61720D01*
X30664Y-62136D01*
X29399Y-62812D01*
X28289Y-63722D01*
X27379Y-64832D01*
X26703Y-66097D01*
X26287Y-67470D01*
X26146Y-68898D01*
X26287Y-70325D01*
X26703Y-71698D01*
X27379Y-72964D01*
X28289Y-74073D01*
X29399Y-74983D01*
X30664Y-75659D01*
X31841Y-76016D01*
X31767Y-76516D01*
X-62855D01*
X-63023Y-76046D01*
X-62324Y-75471D01*
X-61168Y-74063D01*
X-60309Y-72455D01*
X-59780Y-70711D01*
X-59601Y-68898D01*
X-59780Y-67084D01*
X-60309Y-65340D01*
X-61168Y-63733D01*
X-62324Y-62324D01*
X-63733Y-61168D01*
X-65340Y-60309D01*
X-67084Y-59780D01*
X-68898Y-59601D01*
X-70711Y-59780D01*
X-72455Y-60309D01*
X-74063Y-61168D01*
X-75471Y-62324D01*
X-76046Y-63023D01*
X-76516Y-62855D01*
Y-48367D01*
X-76016Y-48160D01*
X-74023Y-50153D01*
X-73922Y-50430D01*
X-73980Y-50824D01*
X-74476Y-51471D01*
X-74875Y-52433D01*
X-74945Y-52965D01*
X-71024D01*
Y-53465D01*
X-70524D01*
Y-57386D01*
X-69992Y-57316D01*
X-69030Y-56917D01*
X-68204Y-56284D01*
X-67571Y-55458D01*
X-67369Y-54970D01*
X-66260D01*
X-65684Y-54855D01*
X-65511Y-54740D01*
X-64898Y-54914D01*
X-64635Y-55549D01*
X-63972Y-56413D01*
X-63108Y-57076D01*
X-62103Y-57492D01*
X-61024Y-57634D01*
X-59944Y-57492D01*
X-59365Y-57252D01*
X-56498Y-60119D01*
X-56009Y-60446D01*
X-55433Y-60560D01*
X-49320D01*
X-49084Y-61001D01*
X-49262Y-61268D01*
X-49449Y-62205D01*
X-49262Y-63142D01*
X-48731Y-63936D01*
X-47937Y-64467D01*
X-47000Y-64653D01*
X-46063Y-64467D01*
X-45269Y-63936D01*
X-44738Y-63142D01*
X-44551Y-62205D01*
X-44664Y-61638D01*
X-44244Y-61317D01*
X-43307Y-61504D01*
X-42740Y-61391D01*
X-42420Y-61811D01*
X-42606Y-62748D01*
X-42420Y-63685D01*
X-41889Y-64480D01*
X-41094Y-65010D01*
X-40157Y-65197D01*
X-39220Y-65010D01*
X-38426Y-64480D01*
X-37895Y-63685D01*
X-37709Y-62748D01*
X-37895Y-61811D01*
X-38426Y-61017D01*
X-39220Y-60486D01*
X-40157Y-60299D01*
X-40724Y-60412D01*
X-41045Y-59992D01*
X-40859Y-59055D01*
X-41045Y-58118D01*
X-41567Y-57337D01*
X-40853Y-56623D01*
X-33079D01*
X-32928Y-57123D01*
X-33228Y-57324D01*
X-33758Y-58118D01*
X-33945Y-59055D01*
X-33758Y-59992D01*
X-33228Y-60787D01*
X-32433Y-61317D01*
X-31496Y-61504D01*
X-30559Y-61317D01*
X-29765Y-60787D01*
X-29234Y-59992D01*
X-29047Y-59055D01*
X-29234Y-58118D01*
X-29765Y-57324D01*
X-30064Y-57123D01*
X-29913Y-56623D01*
X-21654D01*
X-21078Y-56509D01*
X-20589Y-56182D01*
X-19061Y-54655D01*
X-16537D01*
X-16229Y-55155D01*
X-16378Y-55905D01*
X-16191Y-56843D01*
X-15661Y-57637D01*
X-14866Y-58168D01*
X-13929Y-58354D01*
X-12992Y-58168D01*
X-12523Y-57854D01*
X-12269Y-58015D01*
X-12118Y-58185D01*
X-12291Y-59055D01*
X-12105Y-59992D01*
X-11574Y-60787D01*
X-10780Y-61317D01*
X-9843Y-61504D01*
X-9655Y-61466D01*
X-9301Y-61820D01*
X-9338Y-62008D01*
X-9152Y-62945D01*
X-8621Y-63739D01*
X-7827Y-64270D01*
X-6890Y-64456D01*
X-5953Y-64270D01*
X-5158Y-63739D01*
X-4628Y-62945D01*
X-4441Y-62008D01*
X-4628Y-61071D01*
X-5158Y-60276D01*
X-5953Y-59746D01*
X-6890Y-59559D01*
X-7078Y-59597D01*
X-7431Y-59243D01*
X-7394Y-59055D01*
X-7580Y-58118D01*
X-8111Y-57324D01*
X-8906Y-56793D01*
X-9843Y-56607D01*
X-10780Y-56793D01*
X-11248Y-57106D01*
X-11502Y-56946D01*
X-11654Y-56775D01*
X-11480Y-55905D01*
X-11630Y-55155D01*
X-11321Y-54655D01*
X-5906D01*
X-5330Y-54540D01*
X-4841Y-54214D01*
X-267Y-49640D01*
X0Y-49693D01*
X937Y-49506D01*
X1731Y-48976D01*
X2262Y-48181D01*
X2449Y-47244D01*
X2262Y-46307D01*
X1731Y-45513D01*
X937Y-44982D01*
X0Y-44796D01*
X-937Y-44982D01*
X-1731Y-45513D01*
X-2262Y-46307D01*
X-2449Y-47244D01*
X-2396Y-47511D01*
X-3150Y-48266D01*
X-3611Y-48019D01*
X-3457Y-47244D01*
X-3643Y-46307D01*
X-4174Y-45513D01*
X-4400Y-45362D01*
Y-43307D01*
X-4515Y-42731D01*
X-4841Y-42243D01*
X-9415Y-37668D01*
X-9362Y-37402D01*
X-9549Y-36465D01*
X-10080Y-35670D01*
X-10874Y-35139D01*
X-11811Y-34953D01*
X-12078Y-35006D01*
X-14243Y-32841D01*
Y-32375D01*
X-13743Y-32205D01*
X-13212Y-32897D01*
X-12225Y-33654D01*
X-11076Y-34130D01*
X-9843Y-34293D01*
X-8609Y-34130D01*
X-7460Y-33654D01*
X-6473Y-32897D01*
X-5716Y-31910D01*
X-5240Y-30761D01*
X-5077Y-29528D01*
X-5240Y-28294D01*
X-5716Y-27145D01*
X-6473Y-26158D01*
X-7460Y-25401D01*
X-8609Y-24925D01*
X-9843Y-24762D01*
X-11076Y-24925D01*
X-12225Y-25401D01*
X-13212Y-26158D01*
X-13743Y-26850D01*
X-14243Y-26680D01*
Y-14403D01*
X-8778Y-8938D01*
X-8452Y-8450D01*
X-8337Y-7874D01*
Y-7788D01*
X-8111Y-7637D01*
X-7580Y-6843D01*
X-7394Y-5906D01*
X-7580Y-4969D01*
X-8111Y-4174D01*
X-8906Y-3643D01*
X-9843Y-3457D01*
X-10780Y-3643D01*
X-11574Y-4174D01*
X-12105Y-4969D01*
X-12266Y-5781D01*
X-12766Y-5732D01*
Y17543D01*
X-12330Y17586D01*
X-12293Y17589D01*
X-12271Y17592D01*
X-12266Y17592D01*
X-12223Y17372D01*
X-12223Y17372D01*
X-12105Y16780D01*
X-11574Y15985D01*
X-10780Y15454D01*
X-9843Y15268D01*
X-8906Y15454D01*
X-8111Y15985D01*
X-7580Y16780D01*
X-7394Y17717D01*
X-7580Y18654D01*
X-8111Y19448D01*
X-8906Y19979D01*
X-9843Y20165D01*
X-10780Y19979D01*
X-11574Y19448D01*
X-12105Y18654D01*
X-12223Y18061D01*
X-12223Y18061D01*
X-12266Y17841D01*
X-12271Y17842D01*
X-12293Y17844D01*
X-12330Y17848D01*
X-12766Y17890D01*
Y22506D01*
X-11953Y23320D01*
X-11076Y22956D01*
X-9843Y22794D01*
X-8609Y22956D01*
X-7460Y23432D01*
X-6473Y24190D01*
X-5716Y25177D01*
X-5240Y26326D01*
X-5077Y27559D01*
X-5240Y28792D01*
X-5716Y29942D01*
X-6473Y30929D01*
X-7460Y31686D01*
X-8609Y32162D01*
X-9843Y32324D01*
X-11076Y32162D01*
X-12225Y31686D01*
X-13212Y30929D01*
X-13969Y29942D01*
X-14445Y28792D01*
X-14608Y27559D01*
X-14445Y26326D01*
X-14082Y25448D01*
X-14765Y24765D01*
X-15227Y24957D01*
Y41699D01*
X-14625Y42302D01*
X-14566Y42243D01*
X-14077Y41916D01*
X-13501Y41802D01*
X-10827D01*
X-10251Y41916D01*
X-9762Y42243D01*
X-7794Y44211D01*
X-7468Y44699D01*
X-7353Y45276D01*
Y50107D01*
X-6853Y50517D01*
X-6721Y50491D01*
D02*
G37*
G36*
X-45268Y-41506D02*
X-45368Y-42114D01*
X-45907Y-42474D01*
X-46433Y-43261D01*
X-46567Y-43932D01*
X-47060Y-43851D01*
X-47055Y-43807D01*
X-51968D01*
Y-43307D01*
X-52469D01*
Y-38393D01*
X-53257Y-38497D01*
X-54458Y-38995D01*
X-55490Y-39786D01*
X-56281Y-40817D01*
X-56693Y-41811D01*
X-57234D01*
X-57413Y-41380D01*
X-58075Y-40516D01*
X-58939Y-39854D01*
X-59944Y-39437D01*
X-61024Y-39295D01*
X-62103Y-39437D01*
X-63108Y-39854D01*
X-63972Y-40516D01*
X-64635Y-41380D01*
X-65051Y-42385D01*
X-65193Y-43465D01*
X-65051Y-44544D01*
X-64811Y-45123D01*
X-67395Y-47707D01*
X-69158D01*
X-69257Y-47207D01*
X-68939Y-47076D01*
X-68075Y-46413D01*
X-67413Y-45549D01*
X-66996Y-44544D01*
X-66854Y-43465D01*
X-66996Y-42385D01*
X-67236Y-41806D01*
X-64881Y-39450D01*
X-64554Y-38962D01*
X-64440Y-38386D01*
Y-37598D01*
X-56890D01*
Y-30592D01*
X-56390Y-30385D01*
X-45268Y-41506D01*
D02*
G37*
G36*
X-43154Y19530D02*
X-42366Y19004D01*
X-41437Y18819D01*
X-40883Y18929D01*
X-40383Y18531D01*
Y12927D01*
X-42946Y10364D01*
X-43668D01*
X-45056Y11752D01*
X-45545Y12078D01*
X-45678Y12105D01*
X-46091Y12187D01*
Y12747D01*
X-46091Y13247D01*
X-46091Y13247D01*
Y13247D01*
X-46091D01*
X-46091Y13247D01*
Y14323D01*
X-45626Y14415D01*
X-45138Y14741D01*
X-44211Y15668D01*
X-43885Y16156D01*
X-43770Y16732D01*
Y19553D01*
X-43270Y19704D01*
X-43154Y19530D01*
D02*
G37*
G36*
X26181Y101094D02*
Y100394D01*
X26181Y100394D01*
X26181D01*
Y95276D01*
X26181Y95276D01*
X26116Y94802D01*
X26054Y94488D01*
Y58957D01*
X26168Y58381D01*
X26495Y57892D01*
X29892Y54495D01*
Y34547D01*
X30007Y33971D01*
X30333Y33483D01*
X31249Y32567D01*
X31737Y32241D01*
X32313Y32126D01*
X32844D01*
Y31072D01*
X33307D01*
Y29976D01*
X32528Y29821D01*
X31733Y29291D01*
X31202Y28496D01*
X31016Y27559D01*
X31202Y26622D01*
X31733Y25828D01*
X32528Y25297D01*
X33465Y25110D01*
X34402Y25297D01*
X35196Y25828D01*
X35727Y26622D01*
X35913Y27559D01*
X35860Y27826D01*
X35877Y27843D01*
X36203Y28331D01*
X36318Y28907D01*
Y31072D01*
X39537D01*
Y32159D01*
X39946Y32241D01*
X40354Y32513D01*
X40762Y32241D01*
X41339Y32126D01*
X43107D01*
X46554Y28679D01*
Y18365D01*
X46091D01*
Y13747D01*
X46091Y13247D01*
X46091Y13247D01*
X46091Y13247D01*
X46091Y13247D01*
Y12130D01*
X45591Y11863D01*
X45228Y12105D01*
X44291Y12291D01*
X43354Y12105D01*
X42560Y11574D01*
X42109Y10898D01*
X41975Y10865D01*
X41686D01*
X41553Y10898D01*
X41102Y11574D01*
X40307Y12105D01*
X39370Y12291D01*
X38433Y12105D01*
X37639Y11574D01*
X37108Y10780D01*
X36922Y9843D01*
X37108Y8906D01*
X37639Y8111D01*
X38433Y7580D01*
X39370Y7394D01*
X39505Y7421D01*
X39702Y7004D01*
X39713Y6952D01*
X39194Y6176D01*
X39009Y5247D01*
X39194Y4318D01*
X39720Y3530D01*
X40508Y3004D01*
X41437Y2819D01*
X42366Y3004D01*
X43154Y3530D01*
X43680Y4318D01*
X43865Y5247D01*
X43680Y6176D01*
X43154Y6963D01*
X42366Y7490D01*
X41437Y7674D01*
X41310Y7649D01*
X41114Y8083D01*
X41106Y8118D01*
X41553Y8787D01*
X41686Y8820D01*
X41975D01*
X42109Y8787D01*
X42560Y8111D01*
X43354Y7580D01*
X44291Y7394D01*
X45228Y7580D01*
X45690Y7889D01*
X46091Y8128D01*
Y8128D01*
X46884D01*
X46995Y7963D01*
X48148Y6810D01*
X48636Y6483D01*
X49213Y6369D01*
X52165D01*
X52741Y6483D01*
X53230Y6810D01*
X54214Y7794D01*
X54540Y8282D01*
X54655Y8858D01*
Y14764D01*
X54540Y15340D01*
X54214Y15828D01*
X53172Y16870D01*
X52784Y17130D01*
Y18365D01*
X52320D01*
Y19067D01*
X52206Y19643D01*
X51880Y20131D01*
X51564Y20446D01*
Y35010D01*
X52217Y35139D01*
X53011Y35670D01*
X53542Y36465D01*
X53728Y37402D01*
X53542Y38339D01*
X53011Y39133D01*
X52217Y39664D01*
X51279Y39850D01*
X50931Y39781D01*
X48749Y41962D01*
Y93865D01*
X48899Y94014D01*
X49225Y94503D01*
X49340Y95079D01*
Y95276D01*
X52559D01*
Y96329D01*
X53024Y96422D01*
X54054Y95392D01*
X54542Y95066D01*
X55118Y94951D01*
X62369D01*
X67392Y89928D01*
Y38985D01*
X66892Y38833D01*
X66692Y39133D01*
X65898Y39664D01*
X64961Y39850D01*
X64024Y39664D01*
X63229Y39133D01*
X62698Y38339D01*
X62512Y37402D01*
X62698Y36465D01*
X63229Y35670D01*
X63455Y35519D01*
Y30310D01*
X63069Y29992D01*
X62992Y30008D01*
X62055Y29821D01*
X61261Y29291D01*
X60730Y28496D01*
X60544Y27559D01*
X60597Y27292D01*
X59959Y26655D01*
X59633Y26167D01*
X59518Y25591D01*
Y23249D01*
X59018Y23054D01*
X58366Y23490D01*
X57437Y23674D01*
X56508Y23490D01*
X55721Y22963D01*
X55194Y22176D01*
X55009Y21247D01*
X55194Y20318D01*
X55721Y19530D01*
X56508Y19004D01*
X57437Y18819D01*
X58366Y19004D01*
X59018Y19439D01*
X59518Y19244D01*
Y16422D01*
X59018Y16089D01*
X58319Y16228D01*
X57382Y16042D01*
X56587Y15511D01*
X56057Y14717D01*
X55870Y13780D01*
X56057Y12843D01*
X56587Y12048D01*
X57382Y11517D01*
X58319Y11331D01*
X59018Y11470D01*
X59518Y11137D01*
Y8548D01*
X59018Y8215D01*
X58319Y8354D01*
X57382Y8168D01*
X56587Y7637D01*
X56057Y6843D01*
X55983Y6472D01*
X55854Y6386D01*
X54917Y6199D01*
X54123Y5669D01*
X53592Y4874D01*
X53406Y3937D01*
X53592Y3000D01*
X54123Y2206D01*
X54917Y1675D01*
X55070Y1305D01*
X54824Y937D01*
X54638Y0D01*
X54824Y-937D01*
X55355Y-1731D01*
X56150Y-2262D01*
X56911Y-2414D01*
Y-2923D01*
X56508Y-3004D01*
X55721Y-3530D01*
X55194Y-4318D01*
X55009Y-5247D01*
X55194Y-6176D01*
X55721Y-6963D01*
X56508Y-7490D01*
X56645Y-7517D01*
X56743Y-8007D01*
X56587Y-8111D01*
X56057Y-8906D01*
X55983Y-9277D01*
X55854Y-9362D01*
X55155Y-9501D01*
X54655Y-9168D01*
Y-8858D01*
X54540Y-8282D01*
X54214Y-7794D01*
X53230Y-6810D01*
X52741Y-6483D01*
X52165Y-6369D01*
X49213D01*
X48636Y-6483D01*
X48148Y-6810D01*
X47106Y-7852D01*
X46668Y-7856D01*
X46502Y-7801D01*
X46146Y-7269D01*
X45351Y-6738D01*
X44414Y-6551D01*
X43477Y-6738D01*
X42683Y-7269D01*
X42152Y-8063D01*
X41966Y-9000D01*
X42152Y-9937D01*
X42683Y-10731D01*
X43184Y-11067D01*
X43266Y-11691D01*
X33384Y-21573D01*
X33058Y-22062D01*
X32943Y-22638D01*
Y-30512D01*
X33014Y-30865D01*
X32844Y-31072D01*
X32844D01*
Y-36191D01*
X32844Y-36191D01*
X32844D01*
Y-37244D01*
X29809D01*
X29618Y-36782D01*
X29903Y-36498D01*
X30229Y-36009D01*
X30344Y-35433D01*
Y21654D01*
X30229Y22230D01*
X29903Y22718D01*
X27163Y25457D01*
X27410Y25918D01*
X28190Y25763D01*
X29120Y25948D01*
X29907Y26474D01*
X30433Y27261D01*
X30618Y28190D01*
X30433Y29120D01*
X29907Y29907D01*
X29120Y30433D01*
X28190Y30618D01*
X27261Y30433D01*
X26474Y29907D01*
X25948Y29120D01*
X25763Y28190D01*
X25918Y27410D01*
X25457Y27163D01*
X22469Y30152D01*
X22499Y30454D01*
X23030Y31248D01*
X23216Y32185D01*
X23030Y33122D01*
X22499Y33917D01*
X21705Y34447D01*
X20768Y34634D01*
X20501Y34581D01*
X18238Y36844D01*
Y42323D01*
X18123Y42899D01*
X17850Y43307D01*
X18123Y43715D01*
X18238Y44291D01*
Y51181D01*
X18123Y51757D01*
X17797Y52245D01*
X16982Y53061D01*
X16593Y53320D01*
Y54555D01*
X16130D01*
Y87738D01*
X16015Y88314D01*
X15689Y88802D01*
X9970Y94521D01*
Y95276D01*
X13189D01*
Y96329D01*
X13654Y96422D01*
X13699Y96377D01*
X14188Y96050D01*
X14764Y95936D01*
X18701D01*
X19277Y96050D01*
X19765Y96377D01*
X24836Y101447D01*
X25828D01*
X26181Y101094D01*
D02*
G37*
G36*
X6496D02*
Y100394D01*
X6496Y100394D01*
X6496D01*
Y95276D01*
X6959D01*
Y93898D01*
X7074Y93322D01*
X7400Y92833D01*
X13119Y87114D01*
Y54555D01*
X9900D01*
Y53479D01*
X9436Y53387D01*
X8947Y53061D01*
X8405Y52518D01*
X7862Y53061D01*
X7374Y53387D01*
X6798Y53501D01*
X-6097D01*
X-8778Y56182D01*
X-9267Y56509D01*
X-9843Y56623D01*
X-13375D01*
X-13582Y57123D01*
X-10884Y59821D01*
X-10558Y60310D01*
X-10443Y60886D01*
Y68143D01*
X-10057Y68460D01*
X-9843Y68418D01*
X-8906Y68604D01*
X-8111Y69135D01*
X-7580Y69929D01*
X-7394Y70866D01*
X-7580Y71803D01*
X-8111Y72598D01*
X-8906Y73128D01*
X-9843Y73315D01*
X-10057Y73272D01*
X-10443Y73589D01*
Y93727D01*
X-10156Y94014D01*
X-9830Y94503D01*
X-9715Y95079D01*
Y95276D01*
X-6496D01*
Y96329D01*
X-6031Y96422D01*
X-5986Y96377D01*
X-5497Y96050D01*
X-4921Y95936D01*
X-984D01*
X-408Y96050D01*
X80Y96377D01*
X5151Y101447D01*
X6143D01*
X6496Y101094D01*
D02*
G37*
G36*
X63023Y115416D02*
X62324Y114841D01*
X61168Y113433D01*
X60309Y111825D01*
X59780Y110081D01*
X59750Y109782D01*
X59235Y109653D01*
X58929Y110110D01*
X58142Y110637D01*
X57213Y110821D01*
X56283Y110637D01*
X55496Y110110D01*
X54970Y109323D01*
X54949Y109221D01*
X54471Y109075D01*
X50277Y113269D01*
X49789Y113595D01*
X49213Y113710D01*
X-23622D01*
X-24198Y113595D01*
X-24687Y113269D01*
X-26655Y111301D01*
X-26981Y110812D01*
X-27096Y110236D01*
Y108891D01*
X-28183Y107805D01*
X-30315D01*
X-30891Y107690D01*
X-31379Y107364D01*
X-31970Y106773D01*
X-32296Y106285D01*
X-32411Y105709D01*
Y105512D01*
X-32874D01*
Y104458D01*
X-35400D01*
X-36337Y105395D01*
X-36825Y105721D01*
X-37402Y105836D01*
X-39855D01*
X-40006Y106336D01*
X-39496Y106677D01*
X-38970Y107465D01*
X-38785Y108394D01*
X-38970Y109323D01*
X-39496Y110110D01*
X-40284Y110637D01*
X-41213Y110821D01*
X-42142Y110637D01*
X-42929Y110110D01*
X-43455Y109323D01*
X-43640Y108394D01*
X-43600Y108191D01*
X-43917Y107805D01*
X-49213D01*
X-49789Y107690D01*
X-50277Y107364D01*
X-51655Y105986D01*
X-51972Y105512D01*
X-52559D01*
Y100894D01*
X-52559Y100394D01*
X-52559Y100394D01*
X-52559Y100394D01*
X-52559Y100394D01*
Y99084D01*
X-52836Y98899D01*
X-54214Y97521D01*
X-54540Y97033D01*
X-54655Y96457D01*
Y94488D01*
X-54540Y93912D01*
X-54214Y93424D01*
X-52686Y91896D01*
Y43307D01*
X-52669Y43221D01*
X-52754Y43107D01*
X-53112Y42883D01*
X-53929Y43221D01*
X-54461Y43291D01*
Y39870D01*
X-51040D01*
X-51110Y40402D01*
X-50684Y40681D01*
X-48749Y38747D01*
Y27473D01*
X-48976Y27322D01*
X-49506Y26528D01*
X-49693Y25591D01*
X-49506Y24654D01*
X-48976Y23859D01*
X-48181Y23328D01*
X-47244Y23142D01*
X-47219Y23147D01*
X-46781Y22771D01*
Y20089D01*
X-47281Y19882D01*
X-48148Y20749D01*
X-48636Y21076D01*
X-49213Y21190D01*
X-51181D01*
X-51757Y21076D01*
X-52245Y20749D01*
X-54214Y18781D01*
X-54540Y18293D01*
X-54655Y17717D01*
Y14722D01*
X-54648Y14687D01*
X-54965Y14301D01*
X-63130D01*
X-63706Y14186D01*
X-64194Y13860D01*
X-64603Y13451D01*
X-64771Y13465D01*
X-65217Y13780D01*
X-65403Y14717D01*
X-65934Y15511D01*
X-66728Y16042D01*
X-67665Y16228D01*
X-68602Y16042D01*
X-69397Y15511D01*
X-69928Y14717D01*
X-70051Y14097D01*
X-70866Y14260D01*
X-71803Y14073D01*
X-72598Y13543D01*
X-73128Y12748D01*
X-73315Y11811D01*
X-73128Y10874D01*
X-72598Y10080D01*
X-72298Y9879D01*
X-72449Y9379D01*
X-72835D01*
X-73411Y9265D01*
X-73899Y8938D01*
X-76016Y6821D01*
X-76516Y7028D01*
Y90822D01*
X-76016Y90896D01*
X-75659Y89719D01*
X-74983Y88454D01*
X-74073Y87345D01*
X-72964Y86434D01*
X-71698Y85758D01*
X-70325Y85342D01*
X-68898Y85201D01*
X-67470Y85342D01*
X-66097Y85758D01*
X-64832Y86434D01*
X-63722Y87345D01*
X-62812Y88454D01*
X-62136Y89719D01*
X-61720Y91092D01*
X-61579Y92520D01*
X-61720Y93947D01*
X-62136Y95320D01*
X-62812Y96586D01*
X-63722Y97695D01*
X-64832Y98605D01*
X-65674Y99055D01*
X-65620Y99594D01*
X-65340Y99679D01*
X-63733Y100538D01*
X-62324Y101694D01*
X-61168Y103103D01*
X-60309Y104710D01*
X-59780Y106454D01*
X-59601Y108268D01*
X-59780Y110081D01*
X-60309Y111825D01*
X-61168Y113433D01*
X-62324Y114841D01*
X-63023Y115416D01*
X-62855Y115886D01*
X62855D01*
X63023Y115416D01*
D02*
G37*
G36*
X50984Y108305D02*
X50777Y107805D01*
X49213D01*
X48636Y107690D01*
X48148Y107364D01*
X46770Y105986D01*
X46454Y105512D01*
X45866D01*
Y104458D01*
X43898D01*
X43322Y104343D01*
X42833Y104017D01*
X36778Y97962D01*
X36057D01*
X34970Y99049D01*
Y104331D01*
X34855Y104907D01*
X34529Y105395D01*
X32561Y107364D01*
X32072Y107690D01*
X31496Y107805D01*
X29528D01*
X28951Y107690D01*
X28463Y107364D01*
X27085Y105986D01*
X26769Y105512D01*
X26181D01*
Y104458D01*
X24213D01*
X23637Y104343D01*
X23148Y104017D01*
X18077Y98946D01*
X15387D01*
X15285Y99049D01*
Y100394D01*
X15285Y100394D01*
Y104331D01*
X15170Y104907D01*
X14844Y105395D01*
X12875Y107364D01*
X12387Y107690D01*
X11811Y107805D01*
X9843D01*
X9267Y107690D01*
X8778Y107364D01*
X7400Y105986D01*
X7084Y105512D01*
X6496D01*
Y104458D01*
X4528D01*
X3951Y104343D01*
X3463Y104017D01*
X-1608Y98946D01*
X-4298D01*
X-4400Y99049D01*
Y104331D01*
X-4515Y104907D01*
X-4841Y105395D01*
X-6810Y107364D01*
X-7298Y107690D01*
X-7874Y107805D01*
X-9843D01*
X-10419Y107690D01*
X-10907Y107364D01*
X-12285Y105986D01*
X-12601Y105512D01*
X-13189D01*
Y100394D01*
X-13189Y100394D01*
X-13189D01*
Y95276D01*
X-13189Y95276D01*
X-13303Y94981D01*
X-13340Y94926D01*
X-13454Y94350D01*
Y61509D01*
X-18781Y56182D01*
X-19107Y55694D01*
X-19222Y55118D01*
Y48228D01*
X-19107Y47652D01*
X-18781Y47164D01*
X-17431Y45814D01*
X-16942Y45487D01*
X-16593Y45418D01*
Y44591D01*
X-17797Y43387D01*
X-18123Y42899D01*
X-18238Y42323D01*
Y4679D01*
X-18738Y4509D01*
X-19072Y4944D01*
X-20058Y5702D01*
X-21208Y6178D01*
X-22441Y6340D01*
X-23674Y6178D01*
X-24824Y5702D01*
X-25810Y4944D01*
X-26568Y3957D01*
X-27044Y2808D01*
X-27206Y1575D01*
Y-1575D01*
X-27044Y-2808D01*
X-26568Y-3957D01*
X-25810Y-4944D01*
X-24824Y-5702D01*
X-23674Y-6178D01*
X-22441Y-6340D01*
X-21208Y-6178D01*
X-20058Y-5702D01*
X-19072Y-4944D01*
X-18738Y-4509D01*
X-18238Y-4679D01*
Y-8235D01*
X-25324Y-15321D01*
X-25591Y-15268D01*
X-26528Y-15454D01*
X-27322Y-15985D01*
X-27853Y-16780D01*
X-28039Y-17717D01*
X-27986Y-17983D01*
X-28512Y-18509D01*
X-28838Y-18997D01*
X-28953Y-19573D01*
Y-20133D01*
X-29025Y-20497D01*
X-29553Y-20607D01*
X-29644Y-20470D01*
X-30154Y-19960D01*
Y-19462D01*
X-29644Y-18952D01*
X-29318Y-18463D01*
X-29203Y-17887D01*
Y-8661D01*
X-29318Y-8085D01*
X-29545Y-7745D01*
X-29059Y-7018D01*
X-28872Y-6081D01*
X-29059Y-5144D01*
X-29590Y-4349D01*
X-30384Y-3818D01*
X-31067Y-3683D01*
X-31202Y-3000D01*
X-31733Y-2206D01*
X-32528Y-1675D01*
X-33465Y-1488D01*
X-34402Y-1675D01*
X-34471Y-1721D01*
X-34912Y-1486D01*
Y25591D01*
X-35027Y26167D01*
X-35353Y26655D01*
X-35876Y27178D01*
X-35847Y27678D01*
X-35670Y27796D01*
X-35139Y28591D01*
X-34953Y29528D01*
X-34678Y29862D01*
X-32609D01*
X-32033Y29977D01*
X-31544Y30303D01*
X-30432Y31416D01*
X-30105Y31904D01*
X-29991Y32480D01*
Y37402D01*
X-30105Y37978D01*
X-30432Y38466D01*
X-30569Y38603D01*
X-30425Y39166D01*
X-29765Y39607D01*
X-29234Y40402D01*
X-29047Y41339D01*
X-29065Y41427D01*
X-28640Y41852D01*
X-28190Y41763D01*
X-27261Y41948D01*
X-26474Y42474D01*
X-25948Y43261D01*
X-25763Y44190D01*
X-25948Y45120D01*
X-26474Y45907D01*
X-27261Y46433D01*
X-28190Y46618D01*
X-29120Y46433D01*
X-29491Y46185D01*
X-29991Y46453D01*
Y93865D01*
X-29841Y94014D01*
X-29515Y94503D01*
X-29400Y95079D01*
Y95276D01*
X-26181D01*
Y96329D01*
X-25605Y96444D01*
X-25117Y96770D01*
X-24526Y97361D01*
X-24200Y97849D01*
X-24085Y98425D01*
X-24085Y98425D01*
Y104331D01*
X-24200Y104907D01*
X-24526Y105395D01*
X-25430Y106299D01*
X-24526Y107203D01*
X-24297Y107547D01*
X-23772Y107473D01*
X-23771Y107465D01*
X-23244Y106677D01*
X-22457Y106151D01*
X-21528Y105966D01*
X-20598Y106151D01*
X-19811Y106677D01*
X-19285Y107465D01*
X-19100Y108394D01*
X-19285Y109323D01*
X-19811Y110110D01*
X-19944Y110199D01*
X-19793Y110699D01*
X-3578D01*
X-3426Y110199D01*
X-3559Y110110D01*
X-4086Y109323D01*
X-4270Y108394D01*
X-4086Y107465D01*
X-3559Y106677D01*
X-2772Y106151D01*
X-1843Y105966D01*
X-914Y106151D01*
X-126Y106677D01*
X400Y107465D01*
X585Y108394D01*
X400Y109323D01*
X-126Y110110D01*
X-259Y110199D01*
X-107Y110699D01*
X16107D01*
X16259Y110199D01*
X16126Y110110D01*
X15600Y109323D01*
X15415Y108394D01*
X15600Y107465D01*
X16126Y106677D01*
X16914Y106151D01*
X17842Y105966D01*
X18772Y106151D01*
X19559Y106677D01*
X20086Y107465D01*
X20270Y108394D01*
X20086Y109323D01*
X19559Y110110D01*
X19426Y110199D01*
X19578Y110699D01*
X35792D01*
X35944Y110199D01*
X35811Y110110D01*
X35285Y109323D01*
X35100Y108394D01*
X35285Y107465D01*
X35811Y106677D01*
X36599Y106151D01*
X37528Y105966D01*
X38457Y106151D01*
X39244Y106677D01*
X39770Y107465D01*
X39955Y108394D01*
X39770Y109323D01*
X39244Y110110D01*
X39111Y110199D01*
X39263Y110699D01*
X48589D01*
X50984Y108305D01*
D02*
G37*
G36*
X-42403Y103266D02*
X-41915Y102940D01*
X-41339Y102825D01*
X-38025D01*
X-37088Y101888D01*
X-36600Y101562D01*
X-36024Y101447D01*
X-33228D01*
X-32874Y101094D01*
Y100894D01*
Y100878D01*
X-32874Y100394D01*
Y100394D01*
X-32874D01*
X-32874Y100394D01*
Y95276D01*
X-32874Y95276D01*
X-32939Y94802D01*
X-33001Y94488D01*
Y43221D01*
X-33228Y43070D01*
X-33379Y42844D01*
X-34449D01*
X-35025Y42729D01*
X-35513Y42403D01*
X-35877Y42039D01*
X-36203Y41551D01*
X-36251Y41309D01*
X-39537D01*
Y40149D01*
X-39582Y40140D01*
X-40071Y39814D01*
X-40572Y39312D01*
X-40899Y38824D01*
X-41013Y38248D01*
Y27679D01*
X-40899Y27103D01*
X-40572Y26615D01*
X-40383Y26426D01*
Y23962D01*
X-40883Y23564D01*
X-41437Y23674D01*
X-42366Y23490D01*
X-43154Y22963D01*
X-43270Y22789D01*
X-43770Y22941D01*
Y23622D01*
X-43885Y24198D01*
X-44211Y24686D01*
X-44848Y25324D01*
X-44796Y25591D01*
X-44552Y25835D01*
X-44190Y25763D01*
X-43261Y25948D01*
X-42474Y26474D01*
X-41948Y27261D01*
X-41763Y28190D01*
X-41948Y29120D01*
X-42474Y29907D01*
X-43261Y30433D01*
X-44190Y30618D01*
X-45120Y30433D01*
X-45298Y30314D01*
X-45739Y30550D01*
Y39370D01*
X-45853Y39946D01*
X-46180Y40435D01*
X-49676Y43931D01*
Y92520D01*
X-49685Y92567D01*
X-49260Y92992D01*
X-49213Y92983D01*
X-47244D01*
X-46668Y93098D01*
X-46180Y93424D01*
X-44211Y95392D01*
X-43885Y95881D01*
X-43770Y96457D01*
Y102362D01*
X-43885Y102938D01*
X-44211Y103427D01*
X-44802Y104017D01*
X-45216Y104294D01*
X-45198Y104608D01*
X-45133Y104794D01*
X-43931D01*
X-42403Y103266D01*
D02*
G37*
G36*
X69499Y24829D02*
Y12107D01*
X68999Y11840D01*
X68602Y12105D01*
X67665Y12291D01*
X66728Y12105D01*
X65934Y11574D01*
X65403Y10780D01*
X65217Y9843D01*
X65262Y9616D01*
X64940Y9317D01*
X64497Y9502D01*
Y21030D01*
X67993Y24526D01*
X68320Y25014D01*
X68367Y25253D01*
X68910Y25418D01*
X69499Y24829D01*
D02*
G37*
%LPC*%
G36*
X46508Y2449D02*
X45571Y2262D01*
X44776Y1732D01*
X44246Y937D01*
X44059Y0D01*
X44246Y-937D01*
X44776Y-1731D01*
X45571Y-2262D01*
X46508Y-2449D01*
X47445Y-2262D01*
X48239Y-1731D01*
X48770Y-937D01*
X48957Y0D01*
X48770Y937D01*
X48239Y1732D01*
X47445Y2262D01*
X46508Y2449D01*
D02*
G37*
G36*
X500Y-25011D02*
Y-29028D01*
X4517D01*
X4426Y-28341D01*
X3969Y-27236D01*
X3240Y-26287D01*
X2291Y-25559D01*
X1186Y-25101D01*
X500Y-25011D01*
D02*
G37*
G36*
X21654Y-15268D02*
X20717Y-15454D01*
X19922Y-15985D01*
X19391Y-16780D01*
X19205Y-17717D01*
X19391Y-18654D01*
X19922Y-19448D01*
X20717Y-19979D01*
X21654Y-20165D01*
X22591Y-19979D01*
X23385Y-19448D01*
X23916Y-18654D01*
X24102Y-17717D01*
X23916Y-16780D01*
X23385Y-15985D01*
X22591Y-15454D01*
X21654Y-15268D01*
D02*
G37*
G36*
X5906Y-19205D02*
X4968Y-19391D01*
X4174Y-19922D01*
X3643Y-20717D01*
X3457Y-21654D01*
X3643Y-22591D01*
X4174Y-23385D01*
X4968Y-23916D01*
X5906Y-24102D01*
X6842Y-23916D01*
X7637Y-23385D01*
X8168Y-22591D01*
X8354Y-21654D01*
X8168Y-20717D01*
X7637Y-19922D01*
X6842Y-19391D01*
X5906Y-19205D01*
D02*
G37*
G36*
X37300Y349D02*
X36363Y162D01*
X35569Y-369D01*
X35038Y-1163D01*
X34851Y-2100D01*
X35038Y-3037D01*
X35569Y-3831D01*
X36363Y-4362D01*
X37300Y-4549D01*
X38237Y-4362D01*
X39031Y-3831D01*
X39562Y-3037D01*
X39749Y-2100D01*
X39562Y-1163D01*
X39031Y-369D01*
X38237Y162D01*
X37300Y349D01*
D02*
G37*
G36*
X0Y-3457D02*
X-937Y-3643D01*
X-1731Y-4174D01*
X-2262Y-4969D01*
X-2449Y-5906D01*
X-2262Y-6843D01*
X-1731Y-7637D01*
X-937Y-8168D01*
X0Y-8354D01*
X267Y-8301D01*
X14243Y-22277D01*
Y-26680D01*
X13743Y-26850D01*
X13212Y-26158D01*
X12225Y-25401D01*
X11076Y-24925D01*
X9843Y-24762D01*
X8609Y-24925D01*
X7460Y-25401D01*
X6473Y-26158D01*
X5716Y-27145D01*
X5240Y-28294D01*
X5077Y-29528D01*
X5240Y-30761D01*
X5716Y-31910D01*
X6473Y-32897D01*
X7460Y-33654D01*
X8609Y-34130D01*
X9843Y-34293D01*
X11076Y-34130D01*
X12225Y-33654D01*
X13212Y-32897D01*
X13743Y-32205D01*
X14243Y-32375D01*
Y-33551D01*
X14017Y-33702D01*
X13486Y-34496D01*
X13299Y-35433D01*
X13486Y-36370D01*
X14017Y-37165D01*
X14811Y-37695D01*
X15748Y-37882D01*
X16685Y-37695D01*
X17480Y-37165D01*
X18010Y-36370D01*
X18197Y-35433D01*
X18010Y-34496D01*
X17480Y-33702D01*
X17253Y-33551D01*
Y-21654D01*
X17139Y-21078D01*
X16812Y-20589D01*
X2396Y-6172D01*
X2449Y-5906D01*
X2262Y-4969D01*
X1731Y-4174D01*
X937Y-3643D01*
X0Y-3457D01*
D02*
G37*
G36*
X-500Y-25011D02*
X-1186Y-25101D01*
X-2291Y-25559D01*
X-3240Y-26287D01*
X-3969Y-27236D01*
X-4426Y-28341D01*
X-4517Y-29028D01*
X-500D01*
Y-25011D01*
D02*
G37*
G36*
X11811Y-62512D02*
X10874Y-62698D01*
X10080Y-63229D01*
X9549Y-64024D01*
X9362Y-64961D01*
X9549Y-65898D01*
X10080Y-66692D01*
X10874Y-67223D01*
X11811Y-67409D01*
X12748Y-67223D01*
X13543Y-66692D01*
X14073Y-65898D01*
X14260Y-64961D01*
X14073Y-64024D01*
X13543Y-63229D01*
X12748Y-62698D01*
X11811Y-62512D01*
D02*
G37*
G36*
X17717D02*
X16780Y-62698D01*
X15985Y-63229D01*
X15454Y-64024D01*
X15268Y-64961D01*
X15454Y-65898D01*
X15985Y-66692D01*
X16780Y-67223D01*
X17717Y-67409D01*
X18654Y-67223D01*
X19448Y-66692D01*
X19979Y-65898D01*
X20165Y-64961D01*
X19979Y-64024D01*
X19448Y-63229D01*
X18654Y-62698D01*
X17717Y-62512D01*
D02*
G37*
G36*
X23622D02*
X22685Y-62698D01*
X21891Y-63229D01*
X21360Y-64024D01*
X21173Y-64961D01*
X21360Y-65898D01*
X21891Y-66692D01*
X22685Y-67223D01*
X23622Y-67409D01*
X24559Y-67223D01*
X25354Y-66692D01*
X25884Y-65898D01*
X26071Y-64961D01*
X25884Y-64024D01*
X25354Y-63229D01*
X24559Y-62698D01*
X23622Y-62512D01*
D02*
G37*
G36*
X-43307Y-70386D02*
X-44244Y-70572D01*
X-45039Y-71103D01*
X-45569Y-71898D01*
X-45756Y-72835D01*
X-45569Y-73772D01*
X-45039Y-74566D01*
X-44244Y-75097D01*
X-43307Y-75283D01*
X-42370Y-75097D01*
X-41576Y-74566D01*
X-41045Y-73772D01*
X-40859Y-72835D01*
X-41045Y-71898D01*
X-41576Y-71103D01*
X-42370Y-70572D01*
X-43307Y-70386D01*
D02*
G37*
G36*
X-24409Y-70236D02*
X-25346Y-70423D01*
X-26141Y-70954D01*
X-26672Y-71748D01*
X-26858Y-72685D01*
X-26672Y-73622D01*
X-26141Y-74417D01*
X-25346Y-74947D01*
X-24409Y-75134D01*
X-23472Y-74947D01*
X-22678Y-74417D01*
X-22379Y-73969D01*
X-21797Y-73997D01*
X-21417Y-74566D01*
X-20622Y-75097D01*
X-19685Y-75283D01*
X-18748Y-75097D01*
X-17954Y-74566D01*
X-17423Y-73772D01*
X-17236Y-72835D01*
X-17423Y-71898D01*
X-17954Y-71103D01*
X-18748Y-70572D01*
X-19685Y-70386D01*
X-20622Y-70572D01*
X-21417Y-71103D01*
X-21715Y-71551D01*
X-22298Y-71522D01*
X-22678Y-70954D01*
X-23472Y-70423D01*
X-24409Y-70236D01*
D02*
G37*
G36*
X5906Y-62512D02*
X4969Y-62698D01*
X4174Y-63229D01*
X3643Y-64024D01*
X3457Y-64961D01*
X3643Y-65898D01*
X4174Y-66692D01*
X4969Y-67223D01*
X5906Y-67409D01*
X6843Y-67223D01*
X7637Y-66692D01*
X8168Y-65898D01*
X8354Y-64961D01*
X8168Y-64024D01*
X7637Y-63229D01*
X6843Y-62698D01*
X5906Y-62512D01*
D02*
G37*
G36*
X-51468Y-38393D02*
Y-42807D01*
X-47055D01*
X-47159Y-42018D01*
X-47656Y-40817D01*
X-48447Y-39786D01*
X-49479Y-38995D01*
X-50680Y-38497D01*
X-51468Y-38393D01*
D02*
G37*
G36*
X-500Y-30028D02*
X-4517D01*
X-4426Y-30714D01*
X-3969Y-31819D01*
X-3240Y-32768D01*
X-2291Y-33496D01*
X-1186Y-33954D01*
X-500Y-34044D01*
Y-30028D01*
D02*
G37*
G36*
X4517D02*
X500D01*
Y-34044D01*
X1186Y-33954D01*
X2291Y-33496D01*
X3240Y-32768D01*
X3969Y-31819D01*
X4426Y-30714D01*
X4517Y-30028D01*
D02*
G37*
G36*
X-27559Y-60299D02*
X-28496Y-60486D01*
X-29291Y-61017D01*
X-29821Y-61811D01*
X-30008Y-62748D01*
X-29821Y-63685D01*
X-29291Y-64480D01*
X-28496Y-65010D01*
X-27559Y-65197D01*
X-26622Y-65010D01*
X-25828Y-64480D01*
X-25297Y-63685D01*
X-25110Y-62748D01*
X-25297Y-61811D01*
X-25828Y-61017D01*
X-26622Y-60486D01*
X-27559Y-60299D01*
D02*
G37*
G36*
X-71524Y-53965D02*
X-74945D01*
X-74875Y-54497D01*
X-74476Y-55458D01*
X-73843Y-56284D01*
X-73017Y-56917D01*
X-72056Y-57316D01*
X-71524Y-57386D01*
Y-53965D01*
D02*
G37*
G36*
X41339Y-46764D02*
X40402Y-46950D01*
X39607Y-47481D01*
X39076Y-48276D01*
X38890Y-49213D01*
X39076Y-50150D01*
X39607Y-50944D01*
X40402Y-51475D01*
X41339Y-51661D01*
X42276Y-51475D01*
X43070Y-50944D01*
X43601Y-50150D01*
X43787Y-49213D01*
X43601Y-48276D01*
X43070Y-47481D01*
X42276Y-46950D01*
X41339Y-46764D01*
D02*
G37*
G36*
X-68398Y73811D02*
Y69398D01*
X-63984D01*
X-64088Y70187D01*
X-64585Y71387D01*
X-65377Y72419D01*
X-66408Y73210D01*
X-67609Y73708D01*
X-68398Y73811D01*
D02*
G37*
G36*
X58555Y83654D02*
X57766Y83550D01*
X56565Y83053D01*
X55534Y82261D01*
X54743Y81230D01*
X54335Y80246D01*
X53150D01*
X52574Y80131D01*
X52085Y79805D01*
X51759Y79316D01*
X51644Y78740D01*
X51759Y78164D01*
X52085Y77676D01*
X52574Y77350D01*
X53150Y77235D01*
X54335D01*
X54743Y76250D01*
X55534Y75219D01*
X56565Y74428D01*
X57766Y73930D01*
X58555Y73826D01*
Y78740D01*
Y83654D01*
D02*
G37*
G36*
X63969Y78240D02*
X59555D01*
Y73826D01*
X60344Y73930D01*
X61545Y74428D01*
X62576Y75219D01*
X63368Y76250D01*
X63865Y77451D01*
X63969Y78240D01*
D02*
G37*
G36*
X8851Y66429D02*
X4437D01*
Y62015D01*
X5226Y62119D01*
X6427Y62617D01*
X7458Y63408D01*
X8249Y64439D01*
X8747Y65640D01*
X8851Y66429D01*
D02*
G37*
G36*
X3937Y74340D02*
X3361Y74225D01*
X2873Y73899D01*
X2546Y73411D01*
X2432Y72835D01*
Y71649D01*
X1447Y71242D01*
X416Y70450D01*
X-375Y69419D01*
X-873Y68218D01*
X-977Y67429D01*
X8851D01*
X8747Y68218D01*
X8249Y69419D01*
X7458Y70450D01*
X6427Y71242D01*
X5442Y71649D01*
Y72835D01*
X5328Y73411D01*
X5001Y73899D01*
X4513Y74225D01*
X3937Y74340D01*
D02*
G37*
G36*
X-69398Y73811D02*
X-70187Y73708D01*
X-71387Y73210D01*
X-72419Y72419D01*
X-73210Y71387D01*
X-73708Y70187D01*
X-73811Y69398D01*
X-69398D01*
Y73811D01*
D02*
G37*
G36*
X-17842Y94822D02*
X-18772Y94637D01*
X-19559Y94110D01*
X-20086Y93323D01*
X-20270Y92394D01*
X-20086Y91465D01*
X-19559Y90677D01*
X-18772Y90151D01*
X-17842Y89966D01*
X-16914Y90151D01*
X-16126Y90677D01*
X-15600Y91465D01*
X-15415Y92394D01*
X-15600Y93323D01*
X-16126Y94110D01*
X-16914Y94637D01*
X-17842Y94822D01*
D02*
G37*
G36*
X1843D02*
X914Y94637D01*
X126Y94110D01*
X-400Y93323D01*
X-585Y92394D01*
X-400Y91465D01*
X126Y90677D01*
X914Y90151D01*
X1843Y89966D01*
X2772Y90151D01*
X3559Y90677D01*
X4086Y91465D01*
X4270Y92394D01*
X4086Y93323D01*
X3559Y94110D01*
X2772Y94637D01*
X1843Y94822D01*
D02*
G37*
G36*
X21528D02*
X20598Y94637D01*
X19811Y94110D01*
X19285Y93323D01*
X19100Y92394D01*
X19285Y91465D01*
X19811Y90677D01*
X20598Y90151D01*
X21528Y89966D01*
X22457Y90151D01*
X23244Y90677D01*
X23771Y91465D01*
X23955Y92394D01*
X23771Y93323D01*
X23244Y94110D01*
X22457Y94637D01*
X21528Y94822D01*
D02*
G37*
G36*
X59555Y83654D02*
Y79240D01*
X63969D01*
X63865Y80029D01*
X63368Y81230D01*
X62576Y82261D01*
X61545Y83053D01*
X60344Y83550D01*
X59555Y83654D01*
D02*
G37*
G36*
X-57213Y94822D02*
X-58142Y94637D01*
X-58929Y94110D01*
X-59456Y93323D01*
X-59640Y92394D01*
X-59456Y91465D01*
X-58929Y90677D01*
X-58142Y90151D01*
X-57213Y89966D01*
X-56283Y90151D01*
X-55496Y90677D01*
X-54970Y91465D01*
X-54785Y92394D01*
X-54970Y93323D01*
X-55496Y94110D01*
X-56283Y94637D01*
X-57213Y94822D01*
D02*
G37*
G36*
X-37528D02*
X-38457Y94637D01*
X-39244Y94110D01*
X-39770Y93323D01*
X-39955Y92394D01*
X-39770Y91465D01*
X-39244Y90677D01*
X-38457Y90151D01*
X-37528Y89966D01*
X-36599Y90151D01*
X-35811Y90677D01*
X-35285Y91465D01*
X-35100Y92394D01*
X-35285Y93323D01*
X-35811Y94110D01*
X-36599Y94637D01*
X-37528Y94822D01*
D02*
G37*
G36*
X3437Y66429D02*
X-977D01*
X-873Y65640D01*
X-375Y64439D01*
X416Y63408D01*
X1447Y62617D01*
X2648Y62119D01*
X3437Y62015D01*
Y66429D01*
D02*
G37*
G36*
X10343Y32076D02*
Y28059D01*
X14359D01*
X14269Y28745D01*
X13811Y29850D01*
X13083Y30799D01*
X12134Y31528D01*
X11029Y31985D01*
X10343Y32076D01*
D02*
G37*
G36*
X-60827Y43504D02*
X-69095D01*
Y35236D01*
X-60827D01*
Y43504D01*
D02*
G37*
G36*
X-55461Y38870D02*
X-58882D01*
X-58812Y38338D01*
X-58413Y37377D01*
X-57780Y36551D01*
X-56954Y35917D01*
X-55993Y35519D01*
X-55461Y35449D01*
Y38870D01*
D02*
G37*
G36*
X9342Y27059D02*
X5326D01*
X5416Y26373D01*
X5874Y25268D01*
X6602Y24319D01*
X7551Y23591D01*
X8657Y23133D01*
X9342Y23042D01*
Y27059D01*
D02*
G37*
G36*
X14359D02*
X10343D01*
Y23042D01*
X11029Y23133D01*
X12134Y23591D01*
X13083Y24319D01*
X13811Y25268D01*
X14269Y26373D01*
X14359Y27059D01*
D02*
G37*
G36*
X9342Y32076D02*
X8657Y31985D01*
X7551Y31528D01*
X6602Y30799D01*
X5874Y29850D01*
X5416Y28745D01*
X5326Y28059D01*
X9342D01*
Y32076D01*
D02*
G37*
G36*
X-5247Y59865D02*
X-6176Y59680D01*
X-6963Y59154D01*
X-7490Y58366D01*
X-7674Y57437D01*
X-7490Y56508D01*
X-6963Y55721D01*
X-6176Y55194D01*
X-5247Y55009D01*
X-4318Y55194D01*
X-3530Y55721D01*
X-3004Y56508D01*
X-2819Y57437D01*
X-3004Y58366D01*
X-3530Y59154D01*
X-4318Y59680D01*
X-5247Y59865D01*
D02*
G37*
G36*
X21247D02*
X20318Y59680D01*
X19530Y59154D01*
X19004Y58366D01*
X18819Y57437D01*
X19004Y56508D01*
X19530Y55721D01*
X20318Y55194D01*
X21247Y55009D01*
X22176Y55194D01*
X22963Y55721D01*
X23490Y56508D01*
X23674Y57437D01*
X23490Y58366D01*
X22963Y59154D01*
X22176Y59680D01*
X21247Y59865D01*
D02*
G37*
G36*
X-63984Y68398D02*
X-73811D01*
X-73708Y67609D01*
X-73210Y66408D01*
X-72419Y65377D01*
X-71387Y64585D01*
X-70403Y64177D01*
Y62992D01*
X-70288Y62416D01*
X-69962Y61928D01*
X-69474Y61601D01*
X-68898Y61487D01*
X-68322Y61601D01*
X-67833Y61928D01*
X-67507Y62416D01*
X-67392Y62992D01*
Y64177D01*
X-66408Y64585D01*
X-65377Y65377D01*
X-64585Y66408D01*
X-64088Y67609D01*
X-63984Y68398D01*
D02*
G37*
G36*
X-51040Y38870D02*
X-54461D01*
Y35449D01*
X-53929Y35519D01*
X-52967Y35917D01*
X-52141Y36551D01*
X-51508Y37377D01*
X-51110Y38338D01*
X-51040Y38870D01*
D02*
G37*
G36*
X-21247Y43865D02*
X-22176Y43680D01*
X-22963Y43154D01*
X-23490Y42366D01*
X-23674Y41437D01*
X-23490Y40508D01*
X-22963Y39720D01*
X-22176Y39194D01*
X-21247Y39009D01*
X-20318Y39194D01*
X-19530Y39720D01*
X-19004Y40508D01*
X-18819Y41437D01*
X-19004Y42366D01*
X-19530Y43154D01*
X-20318Y43680D01*
X-21247Y43865D01*
D02*
G37*
G36*
X-55461Y43291D02*
X-55993Y43221D01*
X-56954Y42823D01*
X-57780Y42189D01*
X-58413Y41363D01*
X-58812Y40402D01*
X-58882Y39870D01*
X-55461D01*
Y43291D01*
D02*
G37*
%LPD*%
D10*
X3937Y66929D02*
D03*
X59055Y78740D02*
D03*
X-51968Y-43307D02*
D03*
X-68898Y68898D02*
D03*
D11*
X47835Y97835D02*
D03*
X47835Y102953D02*
D03*
X50591Y97835D02*
D03*
Y102953D02*
D03*
X28150Y97835D02*
D03*
X28150Y102953D02*
D03*
X30906Y97835D02*
D03*
Y102953D02*
D03*
X8465Y97835D02*
D03*
X8465Y102953D02*
D03*
X11220Y97835D02*
D03*
Y102953D02*
D03*
X-11220Y97835D02*
D03*
X-11220Y102953D02*
D03*
X-8465Y97835D02*
D03*
Y102953D02*
D03*
X-30906Y97835D02*
D03*
X-30906Y102953D02*
D03*
X-28150Y97835D02*
D03*
Y102953D02*
D03*
X-50591Y97835D02*
D03*
X-50591Y102953D02*
D03*
X-47835Y97835D02*
D03*
Y102953D02*
D03*
X34813Y-38750D02*
D03*
X34813Y-33631D02*
D03*
X37569Y-38750D02*
D03*
Y-33631D02*
D03*
X48059Y-15806D02*
D03*
X48059Y-10688D02*
D03*
X50815Y-15806D02*
D03*
Y-10688D02*
D03*
X48059Y10688D02*
D03*
X48059Y15806D02*
D03*
X50815Y10688D02*
D03*
Y15806D02*
D03*
X34813Y33632D02*
D03*
X34813Y38750D02*
D03*
X37569Y33631D02*
D03*
Y38750D02*
D03*
X11869Y46878D02*
D03*
X11869Y51996D02*
D03*
X14625Y46878D02*
D03*
Y51996D02*
D03*
X-14625Y46878D02*
D03*
X-14625Y51996D02*
D03*
X-11869Y46878D02*
D03*
Y51996D02*
D03*
X-37569Y33632D02*
D03*
X-37569Y38750D02*
D03*
X-34813Y33631D02*
D03*
Y38750D02*
D03*
X-50815Y10688D02*
D03*
X-50815Y15806D02*
D03*
X-48059Y10688D02*
D03*
Y15806D02*
D03*
X-50815Y-15806D02*
D03*
X-50815Y-10688D02*
D03*
X-48059Y-15806D02*
D03*
Y-10688D02*
D03*
X-37569Y-38750D02*
D03*
X-37569Y-33631D02*
D03*
X-34813Y-38750D02*
D03*
Y-33631D02*
D03*
D12*
X-68898Y92520D02*
D03*
X33465Y-68898D02*
D03*
D13*
X50059Y36181D02*
X51279Y37402D01*
X50059Y19823D02*
X50815Y19067D01*
X50059Y19823D02*
Y36181D01*
X-52165Y-18701D02*
X-49213D01*
X-53150Y-17717D02*
X-52165Y-18701D01*
X-54331Y-25990D02*
Y-10039D01*
X-53150Y-17717D02*
Y-11811D01*
X-64961Y-21654D02*
Y-6890D01*
Y-21654D02*
X-60039Y-26575D01*
X-56102D01*
X53150Y78740D02*
X59055D01*
X3937Y66929D02*
Y72835D01*
X-68898Y62992D02*
Y68898D01*
X0Y-5906D02*
X15748Y-21654D01*
Y-35433D02*
Y-21654D01*
X-11811Y-37402D02*
X-5906Y-43307D01*
Y-47244D02*
Y-43307D01*
X-48059Y-15806D02*
X-46202D01*
X-45276Y-16732D01*
Y-18701D02*
Y-16732D01*
X-42264Y-30550D02*
Y-21713D01*
X-45276Y-18701D02*
X-42264Y-21713D01*
X-71578Y5906D02*
X-67665D01*
X-42264Y-30550D02*
X-39182Y-33631D01*
X-37569D01*
X-9843Y55118D02*
X-6721Y51996D01*
X14625Y46878D02*
Y47540D01*
X11869Y50296D02*
X14625Y47540D01*
X11869Y50296D02*
Y51996D01*
X8465Y97835D02*
Y99535D01*
Y93898D02*
Y97835D01*
X11220Y102290D02*
Y102953D01*
X8465Y99535D02*
X11220Y102290D01*
X8465Y93898D02*
X14625Y87738D01*
Y51996D02*
Y87738D01*
X11811Y46820D02*
X11869Y46878D01*
X-35967Y31368D02*
X-33658D01*
X-34813Y33631D02*
Y34294D01*
X-37569Y37049D02*
X-34813Y34294D01*
X-37569Y37049D02*
Y38750D01*
X34813Y35331D02*
X37569Y38087D01*
X34813Y33632D02*
Y35331D01*
Y28907D02*
Y33632D01*
X33465Y27559D02*
X34813Y28907D01*
X-48059Y10688D02*
X-46121D01*
X-48059Y-11350D02*
Y-10688D01*
X-50815Y-14106D02*
X-48059Y-11350D01*
X-50815Y-15806D02*
Y-14106D01*
X-34813Y-33631D02*
X-33139Y-35305D01*
Y-41013D02*
Y-35305D01*
X-33465Y-41339D02*
X-33139Y-41013D01*
X-37312Y-41339D02*
X-33465D01*
X-37569Y-41082D02*
X-37312Y-41339D01*
X-37569Y-41082D02*
Y-38750D01*
X-37569Y-34294D02*
Y-33631D01*
Y-34294D02*
X-34813Y-37049D01*
Y-38750D02*
Y-37049D01*
X-14272Y23130D02*
X-9843Y27559D01*
X-14625Y50296D02*
Y51996D01*
Y50296D02*
X-11869Y47540D01*
Y46878D02*
Y47540D01*
X-30906Y97835D02*
Y98497D01*
X-28150Y101253D01*
Y102953D01*
X-38878Y12303D02*
Y27050D01*
X-39508Y27679D02*
X-38878Y27050D01*
X-48059Y10688D02*
Y12388D01*
X-50815Y15144D02*
X-48059Y12388D01*
X-50815Y15144D02*
Y15806D01*
X-50815Y10688D02*
Y12388D01*
X48059Y15806D02*
Y29303D01*
X43731Y33631D02*
X48059Y29303D01*
Y14106D02*
Y15806D01*
Y14106D02*
X50815Y11350D01*
Y10688D02*
Y11350D01*
Y-11350D02*
Y-10688D01*
X48059Y-14106D02*
X50815Y-11350D01*
X48059Y-15806D02*
Y-14106D01*
X37569Y-35331D02*
Y-33631D01*
X34813Y-38087D02*
X37569Y-35331D01*
X34813Y-38750D02*
Y-38087D01*
X28150Y97835D02*
Y99535D01*
X30906Y102290D01*
Y102953D01*
X47835Y97835D02*
Y99535D01*
X50591Y102290D01*
Y102953D01*
X-40157Y-29677D02*
Y-26378D01*
X-33465Y-19685D01*
Y-3937D01*
X-33139Y-41013D02*
X-32432Y-41720D01*
X-29836D01*
X-25591Y-37475D01*
X-31496Y-7874D02*
X-30709Y-8661D01*
X-31496Y-7874D02*
Y-6256D01*
X-31321Y-6081D01*
X57086Y-53149D02*
Y-20644D01*
X59142Y-18589D01*
Y-15610D01*
X58319Y-14787D02*
X59142Y-15610D01*
X58319Y-14787D02*
Y-9843D01*
X57087Y-70866D02*
Y-56128D01*
X54929Y-53971D02*
X57087Y-56128D01*
X54929Y-53971D02*
Y-12736D01*
X55854Y-11811D01*
X68898Y-47244D02*
Y-39370D01*
X-30709Y-17887D02*
Y-8661D01*
X-31660Y-20583D02*
X-30709Y-21535D01*
X-31660Y-20583D02*
Y-18839D01*
X-30709Y-17887D01*
X70953Y35346D02*
X72835Y33465D01*
X70953Y35346D02*
Y90465D01*
X49213Y112205D02*
X70953Y90465D01*
X70866Y-45276D02*
Y-39370D01*
X72835Y-37402D01*
Y33465D01*
X70866Y-45276D02*
X72835Y-47244D01*
X-23622Y112205D02*
X49213D01*
X20768Y29724D02*
X28839Y21654D01*
X-25591Y-37475D02*
Y-25591D01*
X-27559Y-23622D02*
X-25591Y-25591D01*
X-27559Y-23622D02*
Y-20695D01*
X-27447Y-20583D01*
Y-19573D01*
X-25591Y-17717D01*
X-17579Y-36508D02*
Y-32454D01*
X-17717Y-32316D02*
X-17579Y-32454D01*
X-17717Y-32316D02*
Y-22664D01*
X-17579Y-22526D01*
Y-13150D01*
X-14272Y-9843D01*
Y23130D01*
X-17579Y-36508D02*
X-13929Y-40157D01*
X-15748Y-33465D02*
X-11811Y-37402D01*
X-15748Y-33465D02*
Y-13780D01*
X-9843Y-7874D01*
Y-5906D01*
X14764Y-44291D02*
X21654Y-37402D01*
X26870D01*
X28839Y-35433D01*
Y21654D01*
X26870Y-37402D02*
X28218Y-38750D01*
X34813D01*
X-50591Y104921D02*
X-49213Y106299D01*
X-43307D01*
X-41339Y104331D01*
X-37402D01*
X-30906Y102953D02*
Y105709D01*
X-50591Y102953D02*
Y104921D01*
Y102291D02*
Y102953D01*
Y102291D02*
X-47835Y99535D01*
Y97835D02*
Y99535D01*
X-51772Y97835D02*
X-50591D01*
X-53150Y96457D02*
X-51772Y97835D01*
X-53150Y94488D02*
Y96457D01*
Y94488D02*
X-51181Y92520D01*
Y43307D02*
Y92520D01*
Y43307D02*
X-47244Y39370D01*
Y25591D02*
Y39370D01*
X-50591Y95866D02*
Y97835D01*
Y95866D02*
X-49213Y94488D01*
X-47244D01*
X-45276Y96457D01*
Y102362D01*
X-45866Y102953D02*
X-45276Y102362D01*
X-47835Y102953D02*
X-45866D01*
X-30906Y105709D02*
X-30315Y106299D01*
X-30906Y95079D02*
Y97835D01*
X-31496Y94488D02*
X-30906Y95079D01*
X-31496Y41339D02*
Y94488D01*
X-28150Y97835D02*
X-26181D01*
X-25591Y98425D01*
Y110236D02*
X-23622Y112205D01*
X-30315Y106299D02*
X-27559D01*
X-25591Y108268D01*
Y110236D01*
X-27559Y106299D02*
X-25591Y104331D01*
Y98425D02*
Y104331D01*
X-11220Y95079D02*
Y97835D01*
X-11949Y94350D02*
X-11220Y95079D01*
X-11220Y102953D02*
Y104921D01*
X-9843Y106299D02*
X-7874D01*
X-5906Y104331D01*
X-11220Y104921D02*
X-9843Y106299D01*
X4528Y102953D02*
X8465D01*
Y104921D01*
X9843Y106299D01*
X11811D01*
X13780Y104331D01*
Y100394D02*
Y104331D01*
Y100394D02*
X13780Y100394D01*
Y98425D02*
Y100394D01*
X13189Y97835D02*
X13780Y98425D01*
X11220Y97835D02*
X13189D01*
X24213Y102953D02*
X28150D01*
Y104921D01*
X29528Y106299D01*
X31496D01*
X33465Y104331D01*
X32874Y97835D02*
X33465Y98425D01*
X30906Y97835D02*
X32874D01*
X33465Y98425D02*
Y104331D01*
Y98425D02*
Y98425D01*
Y98425D02*
X35433Y96457D01*
X37402D01*
X43898Y102953D01*
X47835D01*
Y104921D01*
X49213Y106299D01*
X51181D01*
X53150Y104331D01*
X53150D01*
Y98425D02*
Y104331D01*
X52559Y97835D02*
X53150Y98425D01*
X50591Y97835D02*
X52559D01*
X53150Y98425D02*
Y98425D01*
Y98425D02*
X55118Y96457D01*
X62992D01*
X-6496Y97835D02*
X-5906Y98425D01*
Y104331D01*
X-8465Y97835D02*
X-6496D01*
X-36024Y102953D02*
X-30906D01*
X-37402Y104331D02*
X-36024Y102953D01*
X47835Y95079D02*
Y97835D01*
X47244Y94488D02*
X47835Y95079D01*
X47244Y41339D02*
Y94488D01*
Y41339D02*
X50689Y37894D01*
X28150Y95079D02*
Y97835D01*
X27559Y94488D02*
X28150Y95079D01*
X27559Y58957D02*
Y94488D01*
Y58957D02*
X31398Y55118D01*
X68898Y27559D02*
Y90551D01*
Y27559D02*
X71004Y25453D01*
Y-37264D02*
Y25453D01*
X68898Y-39370D02*
X71004Y-37264D01*
X62992Y96457D02*
X68898Y90551D01*
X74803Y-43307D02*
Y45154D01*
X64961Y-57087D02*
X66929Y-59055D01*
Y25591D02*
Y27559D01*
X64961Y29528D02*
X66929Y27559D01*
X64961Y29528D02*
Y37402D01*
X62992Y-59055D02*
Y-23622D01*
X61024Y-21654D02*
X62992Y-23622D01*
X61024Y-21654D02*
Y25591D01*
X62992Y27559D01*
Y-21654D02*
X64961Y-23622D01*
X62992Y-21654D02*
Y21654D01*
X64961Y-57087D02*
Y-23622D01*
X62992Y21654D02*
X66929Y25591D01*
X68898Y-35433D02*
Y-23622D01*
X64961Y-19685D02*
X68898Y-23622D01*
X48059Y-19685D02*
Y-15806D01*
X49213Y-57087D02*
Y-51181D01*
X47244Y-49213D02*
X49213Y-51181D01*
X48059Y-10688D02*
Y-9027D01*
X49213Y-7874D01*
X52165D02*
X53150Y-8858D01*
X52108Y-15806D02*
X53150Y-14764D01*
X50815Y-15806D02*
X52108D01*
X49213Y-7874D02*
X52165D01*
X53150Y-14764D02*
Y-8858D01*
X47244Y-21654D02*
Y-20500D01*
X48059Y-19685D01*
X47244Y-49213D02*
Y-21654D01*
X46399Y-10688D02*
X48059D01*
X34449Y-22638D02*
X46399Y-10688D01*
X34449Y-30512D02*
X34813Y-30876D01*
X34449Y-30512D02*
Y-22638D01*
X36417Y-30512D02*
X38386D01*
X39370Y-31496D01*
Y-36948D02*
Y-31496D01*
X37569Y-38750D02*
X39370Y-36948D01*
X34813Y-33631D02*
Y-30876D01*
X36054D01*
X36417Y-30512D01*
X37569Y-41172D02*
Y-38750D01*
X36417Y-42323D02*
X37569Y-41172D01*
X32480Y-42323D02*
X36417D01*
X31496Y-41339D02*
X32480Y-42323D01*
X23476Y-41339D02*
X31496D01*
X17717Y-47098D02*
X23476Y-41339D01*
X15610Y-59291D02*
Y-50059D01*
X14764Y-49213D02*
X15610Y-50059D01*
X14764Y-49213D02*
Y-44291D01*
X-19685Y-53150D02*
X-5906D01*
X-21654Y-55118D02*
X-19685Y-53150D01*
X-41476Y-55118D02*
X-21654D01*
X-43307Y-56949D02*
X-41476Y-55118D01*
X-44179Y-56949D02*
X-43307D01*
X-46286Y-59055D02*
X-44179Y-56949D01*
X-55433Y-59055D02*
X-46286D01*
X-61024Y-53465D02*
X-55433Y-59055D01*
X-5906Y-53150D02*
X0Y-47244D01*
X-72835Y-49213D02*
X-66772D01*
X-75335Y-46713D02*
X-72835Y-49213D01*
X-66772D02*
X-61024Y-43465D01*
X-75335Y5374D02*
X-72835Y7874D01*
X-70866D01*
X-68898Y9843D01*
X-75335Y-46713D02*
Y5374D01*
X-68898Y9843D02*
X-57086D01*
X-45276Y7874D02*
X-43307Y5906D01*
Y1969D02*
Y5906D01*
X-53150Y8858D02*
X-52165Y7874D01*
X-53150Y8858D02*
Y11811D01*
X-54134Y12795D02*
X-53150Y11811D01*
X-63130Y12795D02*
X-54134D01*
X-52165Y7874D02*
X-45276D01*
X-70866Y11811D02*
X-70728Y11673D01*
X-64252D02*
X-63130Y12795D01*
X-70728Y11673D02*
X-64252D01*
X-48059Y15806D02*
X-46202D01*
X-45276Y16732D01*
Y23622D01*
X-47244Y25591D02*
X-45276Y23622D01*
X-49027Y3937D02*
X-46508D01*
X-50197Y2767D02*
X-49027Y3937D01*
X-52026Y-10688D02*
X-50815D01*
X-53150Y-11811D02*
X-52026Y-10688D01*
X-49213Y-18701D02*
X-48059Y-17547D01*
Y-15806D01*
X-50815Y-10688D02*
Y-8492D01*
X-48059Y-10688D02*
X-46121D01*
X-45276Y-9843D01*
X-39370D01*
X-36417Y-6890D02*
Y25591D01*
X-37402Y26575D02*
X-36417Y25591D01*
X-37402Y26575D02*
Y29528D01*
X-39370Y-9843D02*
X-36417Y-6890D01*
X-39006Y38750D02*
X-37569D01*
X-39508Y38248D02*
X-39006Y38750D01*
X-39508Y27679D02*
Y38248D01*
X-34813Y38750D02*
X-32844D01*
X-31496Y37402D01*
Y32480D02*
Y37402D01*
X-32609Y31368D02*
X-31496Y32480D01*
X-35967Y31368D02*
X-32609D01*
X-37569Y32969D02*
Y33632D01*
Y32969D02*
X-35967Y31368D01*
X-35967Y31368D01*
X-34813Y38750D02*
Y40975D01*
X-34449Y41339D01*
X-31496D01*
X-44291Y8858D02*
X-42323D01*
X-46121Y10688D02*
X-44291Y8858D01*
X-42323D02*
X-38878Y12303D01*
X-42323Y6890D02*
Y8858D01*
X-38386Y-6890D02*
Y2953D01*
X-39370Y-7874D02*
X-38386Y-6890D01*
X-50815Y-8492D02*
X-50197Y-7874D01*
X-39370D01*
X-42323Y6890D02*
X-38386Y2953D01*
X-71024Y-43465D02*
X-65945Y-38386D01*
X-37014Y-43307D02*
X-13929D01*
X-10827Y-46260D02*
X-9843Y-47244D01*
X-14764Y-48228D02*
X-13780Y-49213D01*
X-36417Y-48228D02*
X-14764D01*
X-36417Y-46260D02*
X-10827D01*
X-65945Y-38386D02*
Y-32480D01*
X-73819Y-24606D02*
X-65945Y-32480D01*
X-71850Y-22638D02*
X-61024Y-33465D01*
X-56102Y-28543D02*
X-36417Y-48228D01*
X-62008Y-28543D02*
X-56102D01*
Y-26575D02*
X-36417Y-46260D01*
X-54331Y-10039D02*
X-53150Y-8858D01*
Y-3937D01*
X-48228Y984D02*
X-44291D01*
X-43307Y1969D01*
X-54331Y-25990D02*
X-37014Y-43307D01*
X-53150Y-3937D02*
X-48228Y984D01*
X-70020Y-20531D02*
X-62008Y-28543D01*
X-67913Y-3937D02*
X-64961Y-6890D01*
X-70020Y-20531D02*
Y-2106D01*
X-68898Y-984D01*
X-60039D01*
X-59055Y-0D01*
X-55854D01*
X-71850Y-1994D02*
X-67750Y2106D01*
X-54795D01*
X-54134Y2767D01*
X-71850Y-22638D02*
Y-1994D01*
X-54134Y2767D02*
X-50197D01*
X-73819Y3665D02*
X-71578Y5906D01*
X-73819Y-24606D02*
Y3665D01*
X-49213Y19685D02*
X-48059Y18532D01*
X-51181Y19685D02*
X-49213D01*
X-53150Y17717D02*
X-51181Y19685D01*
X-53150Y14722D02*
Y17717D01*
Y14722D02*
X-50815Y12388D01*
X-48059Y15806D02*
Y18532D01*
X-25591Y-17717D02*
X-16732Y-8858D01*
X-16366Y46878D02*
X-14625D01*
X-17717Y48228D02*
X-16366Y46878D01*
X-9673Y51996D02*
X-8858Y51181D01*
X-11869Y51996D02*
X-9673D01*
X-10827Y43307D02*
X-8858Y45276D01*
Y51181D01*
X-16732Y42323D02*
X-14625Y44431D01*
X-16732Y-8858D02*
Y42323D01*
X-14625Y44431D02*
Y46878D01*
Y44431D02*
X-13501Y43307D01*
X-10827D01*
X-14625Y54273D02*
X-13780Y55118D01*
X-14625Y51996D02*
Y54273D01*
X-13780Y55118D02*
X-9843D01*
X-17717Y55118D02*
X-11949Y60886D01*
Y94350D01*
X-17717Y48228D02*
Y55118D01*
X-11220Y97835D02*
Y99535D01*
X-8465Y102290D01*
Y102953D01*
X-5906Y98425D02*
X-4921Y97441D01*
X-984D01*
X4528Y102953D01*
X13780Y98425D02*
X14764Y97441D01*
X18701D01*
X24213Y102953D01*
X10012Y51996D02*
X11869D01*
X8405Y50389D02*
X10012Y51996D01*
X8405Y44980D02*
Y50389D01*
X6798Y51996D02*
X8405Y50389D01*
X-6721Y51996D02*
X6798D01*
X11869Y45218D02*
Y46878D01*
Y45218D02*
X13780Y43307D01*
X15748D01*
X16732Y44291D01*
X14625Y51996D02*
X15917D01*
X16732Y51181D01*
Y44291D02*
Y51181D01*
X15748Y43307D02*
X16732Y42323D01*
Y36220D02*
Y42323D01*
Y36220D02*
X20768Y32185D01*
Y29724D02*
Y32185D01*
X32313Y33632D02*
X34813D01*
X31398Y34547D02*
X32313Y33632D01*
X31398Y34547D02*
Y55118D01*
X34813Y38750D02*
Y41702D01*
X35433Y42323D01*
X39370D01*
X40354Y41339D01*
Y34616D02*
Y41339D01*
X39370Y33631D02*
X40354Y34616D01*
X37569Y33631D02*
X39370D01*
X40354Y34616D02*
X41339Y33631D01*
X43731D01*
X48059Y9027D02*
Y10688D01*
Y9027D02*
X49213Y7874D01*
X52165D01*
X53150Y8858D01*
Y14764D01*
X52108Y15806D02*
X53150Y14764D01*
X50815Y15806D02*
X52108D01*
X51279Y37402D02*
Y37894D01*
X50815Y15806D02*
Y19067D01*
X64961Y-19685D02*
Y7138D01*
X67665Y9843D01*
X50689Y37894D02*
X51279D01*
X35433Y42323D02*
Y45276D01*
X-30709Y-39614D02*
Y-30315D01*
X-31496Y-29528D02*
X-30709Y-30315D01*
X-31496Y-29528D02*
Y-27362D01*
X-30709Y-26575D01*
Y-21535D01*
X-71024Y-53465D02*
X-66260D01*
X-65945Y-53150D01*
Y-52165D01*
X-62992Y-49213D01*
X-52165D01*
X-51968Y-49016D01*
Y-43307D01*
D14*
X27559Y-114173D02*
X29558D01*
X28559D01*
Y-108175D01*
X27559Y-109175D01*
X36556Y-114173D02*
X32557D01*
X36556Y-110175D01*
Y-109175D01*
X35557Y-108175D01*
X33557D01*
X32557Y-109175D01*
X38555Y-110175D02*
X39555D01*
Y-111174D01*
X38555D01*
Y-110175D01*
Y-113174D02*
X39555D01*
Y-114173D01*
X38555D01*
Y-113174D01*
X47553Y-114173D02*
X43554D01*
X47553Y-110175D01*
Y-109175D01*
X46553Y-108175D01*
X44554D01*
X43554Y-109175D01*
X49552D02*
X50552Y-108175D01*
X52551D01*
X53551Y-109175D01*
Y-110175D01*
X52551Y-111174D01*
X51551D01*
X52551D01*
X53551Y-112174D01*
Y-113174D01*
X52551Y-114173D01*
X50552D01*
X49552Y-113174D01*
X55550Y-110175D02*
X56550D01*
Y-111174D01*
X55550D01*
Y-110175D01*
Y-113174D02*
X56550D01*
Y-114173D01*
X55550D01*
Y-113174D01*
X64547Y-108175D02*
X60548D01*
Y-111174D01*
X62548Y-110175D01*
X63547D01*
X64547Y-111174D01*
Y-113174D01*
X63547Y-114173D01*
X61548D01*
X60548Y-113174D01*
X66546D02*
X67546Y-114173D01*
X69546D01*
X70545Y-113174D01*
Y-109175D01*
X69546Y-108175D01*
X67546D01*
X66546Y-109175D01*
Y-110175D01*
X67546Y-111174D01*
X70545D01*
X78543Y-114173D02*
Y-108175D01*
X81542D01*
X82541Y-109175D01*
Y-111174D01*
X81542Y-112174D01*
X78543D01*
X84541Y-114173D02*
Y-108175D01*
X86540Y-110175D01*
X88539Y-108175D01*
Y-114173D01*
X27559Y-102362D02*
X29558D01*
X28559D01*
Y-96364D01*
X27559Y-97364D01*
X32557D02*
X33557Y-96364D01*
X35557D01*
X36556Y-97364D01*
Y-101363D01*
X35557Y-102362D01*
X33557D01*
X32557Y-101363D01*
Y-97364D01*
X38555Y-102362D02*
X42554Y-98364D01*
X44554Y-97364D02*
X45553Y-96364D01*
X47553D01*
X48552Y-97364D01*
Y-98364D01*
X47553Y-99363D01*
X46553D01*
X47553D01*
X48552Y-100363D01*
Y-101363D01*
X47553Y-102362D01*
X45553D01*
X44554Y-101363D01*
X50552Y-102362D02*
X52551D01*
X51551D01*
Y-96364D01*
X50552Y-97364D01*
X55550Y-102362D02*
X59549Y-98364D01*
X65547Y-102362D02*
X61548D01*
X65547Y-98364D01*
Y-97364D01*
X64547Y-96364D01*
X62548D01*
X61548Y-97364D01*
X67546D02*
X68546Y-96364D01*
X70545D01*
X71545Y-97364D01*
Y-101363D01*
X70545Y-102362D01*
X68546D01*
X67546Y-101363D01*
Y-97364D01*
X73544Y-102362D02*
X75543D01*
X74544D01*
Y-96364D01*
X73544Y-97364D01*
X81542Y-102362D02*
Y-96364D01*
X78543Y-99363D01*
X82541D01*
X-78740Y-96364D02*
X-74741D01*
X-76741D01*
Y-102362D01*
X-71742D02*
X-69743D01*
X-68743Y-101363D01*
Y-99363D01*
X-69743Y-98364D01*
X-71742D01*
X-72742Y-99363D01*
Y-101363D01*
X-71742Y-102362D01*
X-66744Y-104362D02*
Y-98364D01*
X-63745D01*
X-62745Y-99363D01*
Y-101363D01*
X-63745Y-102362D01*
X-66744D01*
X-60746Y-96364D02*
Y-102362D01*
X-56747D01*
X-53748Y-98364D02*
X-51749D01*
X-50749Y-99363D01*
Y-102362D01*
X-53748D01*
X-54748Y-101363D01*
X-53748Y-100363D01*
X-50749D01*
X-48750Y-98364D02*
Y-101363D01*
X-47750Y-102362D01*
X-44751D01*
Y-103362D01*
X-45751Y-104362D01*
X-46751D01*
X-44751Y-102362D02*
Y-98364D01*
X-39753Y-102362D02*
X-41752D01*
X-42752Y-101363D01*
Y-99363D01*
X-41752Y-98364D01*
X-39753D01*
X-38753Y-99363D01*
Y-100363D01*
X-42752D01*
X-36754Y-98364D02*
Y-102362D01*
Y-100363D01*
X-35754Y-99363D01*
X-34754Y-98364D01*
X-33755D01*
X-30756Y-102362D02*
X-28756D01*
X-29756D01*
Y-96364D01*
X-30756Y-97364D01*
D15*
X-9843Y-29528D02*
D03*
Y27559D02*
D03*
X9843Y-29528D02*
D03*
X0D02*
D03*
X9843Y27559D02*
D03*
D16*
X-64961Y39370D02*
D03*
D17*
X-54961D02*
D03*
X-71024Y-43465D02*
D03*
Y-53465D02*
D03*
X-61024D02*
D03*
X-71024Y-33465D02*
D03*
X-61024Y-43465D02*
D03*
D18*
Y-33465D02*
D03*
D19*
X52165Y21534D02*
D03*
X-51181Y-21654D02*
D03*
X-33465Y-25591D02*
D03*
X53150Y78740D02*
D03*
X3937Y72835D02*
D03*
X-68898Y62992D02*
D03*
X9843Y-5906D02*
D03*
X0D02*
D03*
X37300Y-2100D02*
D03*
X39370Y9843D02*
D03*
X-5906Y-47244D02*
D03*
X-11811Y-37402D02*
D03*
X21654Y-17717D02*
D03*
X-45276Y-18701D02*
D03*
X-46457Y-29677D02*
D03*
X-44291Y-13780D02*
D03*
X44414Y-9000D02*
D03*
X43307Y-3937D02*
D03*
X-70866Y11811D02*
D03*
X-67665Y17717D02*
D03*
X-67665Y5906D02*
D03*
X-55854Y-0D02*
D03*
X-44414Y13500D02*
D03*
X-58319Y-5906D02*
D03*
Y-13780D02*
D03*
X-55854Y-7874D02*
D03*
X-46508Y-3937D02*
D03*
X-31496Y41339D02*
D03*
X-37402Y29528D02*
D03*
X33465Y27559D02*
D03*
X-47244Y25591D02*
D03*
X-70866Y1969D02*
D03*
X55854Y-11811D02*
D03*
X-57036Y17717D02*
D03*
X-67665Y-17717D02*
D03*
X-67665Y13780D02*
D03*
Y-9843D02*
D03*
X-47000Y-62205D02*
D03*
Y-55905D02*
D03*
Y-49606D02*
D03*
X-13929Y-40157D02*
D03*
X-37008Y-29677D02*
D03*
Y-62748D02*
D03*
X-30709Y-39614D02*
D03*
X-33858Y-29677D02*
D03*
X-40157D02*
D03*
X-27559Y-62748D02*
D03*
X-40157D02*
D03*
X8405Y44980D02*
D03*
X20768Y32185D02*
D03*
X-13929Y-43307D02*
D03*
X-13780Y-49213D02*
D03*
X-9843Y-47244D02*
D03*
X-19685Y-33465D02*
D03*
X15748Y-35433D02*
D03*
X-31496Y-59055D02*
D03*
X-43307D02*
D03*
Y-53150D02*
D03*
X11811Y-47098D02*
D03*
X17717D02*
D03*
X23622D02*
D03*
X-24409Y-72685D02*
D03*
X5906Y-64961D02*
D03*
X-13929Y-55905D02*
D03*
X-9843Y-59055D02*
D03*
X62992D02*
D03*
X66929D02*
D03*
X64961Y37402D02*
D03*
X62992Y27559D02*
D03*
X58319Y5906D02*
D03*
X55854Y3937D02*
D03*
X58319Y-9843D02*
D03*
X57035Y-17717D02*
D03*
X55854Y11811D02*
D03*
X58319Y13780D02*
D03*
X67665Y-13780D02*
D03*
Y-5906D02*
D03*
Y9843D02*
D03*
Y1969D02*
D03*
X67665Y-17717D02*
D03*
Y17717D02*
D03*
X68898Y-47244D02*
D03*
X72835D02*
D03*
X-25591Y-17717D02*
D03*
X5906Y-21654D02*
D03*
X-33465Y-3937D02*
D03*
X-31321Y-6081D02*
D03*
X57086Y-53149D02*
D03*
X57087Y-70866D02*
D03*
X0Y-47244D02*
D03*
X68898Y-35433D02*
D03*
X-29553Y-19711D02*
D03*
X1969Y-37402D02*
D03*
X-35433Y82677D02*
D03*
X-23622D02*
D03*
X-17717Y62992D02*
D03*
X74803Y-43307D02*
D03*
X57086Y0D02*
D03*
X-19685Y-21654D02*
D03*
X-46508Y3937D02*
D03*
X-57086Y9843D02*
D03*
X-41339Y-47244D02*
D03*
X51181Y-49213D02*
D03*
X41339D02*
D03*
X-43307Y-72835D02*
D03*
X-19685D02*
D03*
X-9843Y-5906D02*
D03*
Y17717D02*
D03*
Y70866D02*
D03*
X23622Y-64961D02*
D03*
X11811D02*
D03*
X17717D02*
D03*
X15610Y-59291D02*
D03*
X51279Y37402D02*
D03*
X74803Y45154D02*
D03*
X35433Y45276D02*
D03*
X49213Y-57087D02*
D03*
X47244Y-21654D02*
D03*
X-67913Y-3937D02*
D03*
X46508Y0D02*
D03*
X-6890Y-62008D02*
D03*
X44291Y9843D02*
D03*
M02*
