%FSLAX25Y25*%
%MOIN*%
G70*
G01*
G75*
%ADD10C,0.07874*%
%ADD11R,0.01575X0.02756*%
%ADD12C,0.03937*%
%ADD13C,0.00591*%
%ADD14C,0.01000*%
%ADD15C,0.07087*%
%ADD16R,0.05906X0.05906*%
%ADD17C,0.05906*%
%ADD18R,0.05906X0.05906*%
%ADD19C,0.02441*%
%ADD20C,0.01969*%
%ADD21C,0.04000*%
%ADD22C,0.06299*%
%ADD23O,0.09449X0.12598*%
%ADD24C,0.04762*%
%ADD25C,0.11024*%
%ADD26C,0.03563*%
%ADD27R,0.03543X0.02756*%
%ADD28R,0.04331X0.03937*%
%ADD29R,0.02756X0.03543*%
%ADD30R,0.05906X0.02362*%
%ADD31R,0.07087X0.03150*%
%ADD32R,0.05906X0.05118*%
%ADD33O,0.06496X0.02165*%
%ADD34O,0.02165X0.06496*%
%ADD35R,0.06102X0.13583*%
%ADD36R,0.06102X0.04331*%
%ADD37R,0.06102X0.04331*%
%ADD38C,0.01575*%
%ADD39C,0.03937*%
%ADD40C,0.00787*%
%ADD41C,0.08474*%
%ADD42R,0.02175X0.03356*%
%ADD43C,0.11811*%
%ADD44C,0.07687*%
%ADD45R,0.00600X0.00600*%
%ADD46C,0.03000*%
%ADD47R,0.06506X0.06506*%
%ADD48C,0.06506*%
%ADD49C,0.06000*%
%ADD50R,0.06506X0.06506*%
%ADD51R,0.04143X0.03356*%
%ADD52R,0.04931X0.04537*%
%ADD53R,0.03356X0.04143*%
%ADD54R,0.06506X0.02962*%
%ADD55R,0.07687X0.03750*%
%ADD56R,0.06506X0.05718*%
%ADD57O,0.07096X0.02765*%
%ADD58O,0.02765X0.07096*%
%ADD59R,0.06702X0.14183*%
%ADD60R,0.06702X0.04931*%
%ADD61R,0.06702X0.04931*%
%ADD62C,0.02362*%
%ADD63C,0.00984*%
%ADD64C,0.00800*%
%ADD65C,0.00333*%
%ADD66C,0.01500*%
%ADD67C,0.00100*%
%ADD68C,0.01600*%
%ADD69C,0.00500*%
D14*
X-78740Y-96364D02*
Y-102362D01*
X-75741D01*
X-74741Y-101363D01*
Y-97364D01*
X-75741Y-96364D01*
X-78740D01*
X-72742Y-98364D02*
Y-102362D01*
Y-100363D01*
X-71742Y-99363D01*
X-70743Y-98364D01*
X-69743D01*
X-66744Y-102362D02*
X-64745D01*
X-65744D01*
Y-98364D01*
X-66744D01*
X-61746Y-102362D02*
X-59746D01*
X-60746D01*
Y-96364D01*
X-61746D01*
X-56747Y-102362D02*
X-54748D01*
X-55748D01*
Y-96364D01*
X-56747D01*
X-41752Y-97364D02*
X-42752Y-96364D01*
X-44751D01*
X-45751Y-97364D01*
Y-101363D01*
X-44751Y-102362D01*
X-42752D01*
X-41752Y-101363D01*
Y-99363D01*
X-43751D01*
X-39753Y-98364D02*
Y-101363D01*
X-38753Y-102362D01*
X-35754D01*
Y-98364D01*
X-33755Y-102362D02*
X-31755D01*
X-32755D01*
Y-98364D01*
X-33755D01*
X-24758Y-96364D02*
Y-102362D01*
X-27757D01*
X-28756Y-101363D01*
Y-99363D01*
X-27757Y-98364D01*
X-24758D01*
X-19759Y-102362D02*
X-21759D01*
X-22758Y-101363D01*
Y-99363D01*
X-21759Y-98364D01*
X-19759D01*
X-18760Y-99363D01*
Y-100363D01*
X-22758D01*
X27559Y-102362D02*
X29558D01*
X28559D01*
Y-96364D01*
X27559Y-97364D01*
X32557D02*
X33557Y-96364D01*
X35557D01*
X36556Y-97364D01*
Y-101363D01*
X35557Y-102362D01*
X33557D01*
X32557Y-101363D01*
Y-97364D01*
X38555Y-102362D02*
X42554Y-98364D01*
X44554Y-97364D02*
X45553Y-96364D01*
X47553D01*
X48552Y-97364D01*
Y-98364D01*
X47553Y-99363D01*
X46553D01*
X47553D01*
X48552Y-100363D01*
Y-101363D01*
X47553Y-102362D01*
X45553D01*
X44554Y-101363D01*
X50552Y-102362D02*
X52551D01*
X51551D01*
Y-96364D01*
X50552Y-97364D01*
X55550Y-102362D02*
X59549Y-98364D01*
X65547Y-102362D02*
X61548D01*
X65547Y-98364D01*
Y-97364D01*
X64547Y-96364D01*
X62548D01*
X61548Y-97364D01*
X67546D02*
X68546Y-96364D01*
X70545D01*
X71545Y-97364D01*
Y-101363D01*
X70545Y-102362D01*
X68546D01*
X67546Y-101363D01*
Y-97364D01*
X73544Y-102362D02*
X75543D01*
X74544D01*
Y-96364D01*
X73544Y-97364D01*
X81542Y-102362D02*
Y-96364D01*
X78543Y-99363D01*
X82541D01*
X27559Y-114173D02*
X29558D01*
X28559D01*
Y-108175D01*
X27559Y-109175D01*
X36556Y-114173D02*
X32557D01*
X36556Y-110175D01*
Y-109175D01*
X35557Y-108175D01*
X33557D01*
X32557Y-109175D01*
X38555Y-110175D02*
X39555D01*
Y-111174D01*
X38555D01*
Y-110175D01*
Y-113174D02*
X39555D01*
Y-114173D01*
X38555D01*
Y-113174D01*
X47553Y-114173D02*
X43554D01*
X47553Y-110175D01*
Y-109175D01*
X46553Y-108175D01*
X44554D01*
X43554Y-109175D01*
X52551Y-114173D02*
Y-108175D01*
X49552Y-111174D01*
X53551D01*
X55550Y-110175D02*
X56550D01*
Y-111174D01*
X55550D01*
Y-110175D01*
Y-113174D02*
X56550D01*
Y-114173D01*
X55550D01*
Y-113174D01*
X60548Y-109175D02*
X61548Y-108175D01*
X63547D01*
X64547Y-109175D01*
Y-113174D01*
X63547Y-114173D01*
X61548D01*
X60548Y-113174D01*
Y-109175D01*
X70545Y-114173D02*
X66546D01*
X70545Y-110175D01*
Y-109175D01*
X69546Y-108175D01*
X67546D01*
X66546Y-109175D01*
X78543Y-114173D02*
Y-108175D01*
X81542D01*
X82541Y-109175D01*
Y-111174D01*
X81542Y-112174D01*
X78543D01*
X84541Y-114173D02*
Y-108175D01*
X86540Y-110175D01*
X88539Y-108175D01*
Y-114173D01*
D69*
X-11811Y-29528D02*
X-7874D01*
X-9843Y-31496D02*
Y-27559D01*
X-25984Y0D02*
X-18898D01*
X-22441Y-3543D02*
Y3543D01*
X-11811Y27559D02*
X-7874D01*
X-9843Y25591D02*
Y29528D01*
X7874Y-29528D02*
X11811D01*
X9843Y-31496D02*
Y-27559D01*
X-1969Y-29528D02*
X1969D01*
X0Y-31496D02*
Y-27559D01*
X7874Y27559D02*
X11811D01*
X9843Y25591D02*
Y29528D01*
X18898Y0D02*
X25984D01*
X22441Y-3543D02*
Y3543D01*
X-45390Y-44190D02*
X-42990D01*
X-44190Y-45390D02*
Y-42990D01*
X-29390Y-28190D02*
X-26991D01*
X-28190Y-29390D02*
Y-26991D01*
X-58637Y-21247D02*
X-56237D01*
X-57437Y-22447D02*
Y-20047D01*
X-42637Y-5247D02*
X-40237D01*
X-41437Y-6447D02*
Y-4047D01*
X-58637Y5247D02*
X-56237D01*
X-57437Y4047D02*
Y6447D01*
X-42637Y21247D02*
X-40237D01*
X-41437Y20047D02*
Y22447D01*
X-45390Y28190D02*
X-42990D01*
X-44190Y26991D02*
Y29390D01*
X-29390Y44190D02*
X-26991D01*
X-28190Y42990D02*
Y45390D01*
X-22447Y41437D02*
X-20047D01*
X-21247Y40237D02*
Y42637D01*
X-6447Y57437D02*
X-4047D01*
X-5247Y56237D02*
Y58637D01*
X4047Y41437D02*
X6447D01*
X5247Y40237D02*
Y42637D01*
X20047Y57437D02*
X22447D01*
X21247Y56237D02*
Y58637D01*
X26991Y28190D02*
X29390D01*
X28190Y26991D02*
Y29390D01*
X42990Y44190D02*
X45390D01*
X44190Y42990D02*
Y45390D01*
X40237Y5247D02*
X42637D01*
X41437Y4047D02*
Y6447D01*
X56237Y21247D02*
X58637D01*
X57437Y20047D02*
Y22447D01*
X40237Y-21247D02*
X42637D01*
X41437Y-22447D02*
Y-20047D01*
X56237Y-5247D02*
X58637D01*
X57437Y-6447D02*
Y-4047D01*
X26991Y-44190D02*
X29390D01*
X28190Y-45390D02*
Y-42990D01*
X42990Y-28190D02*
X45390D01*
X44190Y-29390D02*
Y-26991D01*
X-58413Y92394D02*
X-56013D01*
X-57213Y91194D02*
Y93594D01*
X-42413Y108394D02*
X-40013D01*
X-41213Y107194D02*
Y109594D01*
X-38728Y92394D02*
X-36328D01*
X-37528Y91194D02*
Y93594D01*
X-22728Y108394D02*
X-20328D01*
X-21528Y107194D02*
Y109594D01*
X-19042Y92394D02*
X-16643D01*
X-17842Y91194D02*
Y93594D01*
X-3042Y108394D02*
X-642D01*
X-1843Y107194D02*
Y109594D01*
X642Y92394D02*
X3042D01*
X1843Y91194D02*
Y93594D01*
X16643Y108394D02*
X19042D01*
X17842Y107194D02*
Y109594D01*
X20328Y92394D02*
X22728D01*
X21528Y91194D02*
Y93594D01*
X36328Y108394D02*
X38728D01*
X37528Y107194D02*
Y109594D01*
X40013Y92394D02*
X42413D01*
X41213Y91194D02*
Y93594D01*
X56013Y108394D02*
X58413D01*
X57213Y107194D02*
Y109594D01*
X-66732Y39370D02*
X-63189D01*
X-64961Y37598D02*
Y41142D01*
X-56732Y39370D02*
X-53189D01*
X-54961Y37598D02*
Y41142D01*
X-73228Y-68898D02*
X-64567D01*
X-68898Y-73228D02*
Y-64567D01*
X64567Y-68898D02*
X73228D01*
X68898Y-73228D02*
Y-64567D01*
X64567Y108268D02*
X73228D01*
X68898Y103937D02*
Y112598D01*
X-73228Y108268D02*
X-64567D01*
X-68898Y103937D02*
Y112598D01*
X-72795Y-43465D02*
X-69252D01*
X-71024Y-45236D02*
Y-41693D01*
X-72795Y-53465D02*
X-69252D01*
X-71024Y-55236D02*
Y-51693D01*
X-62795Y-53465D02*
X-59252D01*
X-61024Y-55236D02*
Y-51693D01*
X-72795Y-33465D02*
X-69252D01*
X-71024Y-35236D02*
Y-31693D01*
X-62795Y-43465D02*
X-59252D01*
X-61024Y-45236D02*
Y-41693D01*
X-62795Y-33465D02*
X-59252D01*
X-61024Y-35236D02*
Y-31693D01*
X51565Y21534D02*
X52766D01*
X52165Y20933D02*
Y22134D01*
X-51781Y-21654D02*
X-50581D01*
X-51181Y-22254D02*
Y-21053D01*
X-34065Y-25591D02*
X-32864D01*
X-33465Y-26191D02*
Y-24990D01*
X52549Y78740D02*
X53750D01*
X53150Y78140D02*
Y79340D01*
X3337Y72835D02*
X4537D01*
X3937Y72234D02*
Y73435D01*
X-69498Y62992D02*
X-68297D01*
X-68898Y62392D02*
Y63592D01*
X9242Y-5906D02*
X10443D01*
X9843Y-6506D02*
Y-5305D01*
X-600Y-5906D02*
X600D01*
X0Y-6506D02*
Y-5305D01*
X36700Y-2100D02*
X37900D01*
X37300Y-2700D02*
Y-1500D01*
X38770Y9843D02*
X39970D01*
X39370Y9242D02*
Y10443D01*
X-6506Y-47244D02*
X-5305D01*
X-5906Y-47844D02*
Y-46644D01*
X-12411Y-37402D02*
X-11211D01*
X-11811Y-38002D02*
Y-36801D01*
X21053Y-17717D02*
X22254D01*
X21654Y-18317D02*
Y-17116D01*
X-45876Y-18701D02*
X-44675D01*
X-45276Y-19301D02*
Y-18100D01*
X-47057Y-29677D02*
X-45856D01*
X-46457Y-30278D02*
Y-29077D01*
X-44892Y-13780D02*
X-43691D01*
X-44291Y-14380D02*
Y-13179D01*
X43814Y-9000D02*
X45015D01*
X44414Y-9600D02*
Y-8400D01*
X42707Y-3937D02*
X43907D01*
X43307Y-4537D02*
Y-3337D01*
X-71466Y11811D02*
X-70266D01*
X-70866Y11211D02*
Y12411D01*
X-68266Y17717D02*
X-67065D01*
X-67665Y17116D02*
Y18317D01*
X-68266Y5906D02*
X-67065D01*
X-67665Y5305D02*
Y6506D01*
X-56455Y-0D02*
X-55254D01*
X-55854Y-600D02*
Y600D01*
X-45015Y13500D02*
X-43814D01*
X-44414Y12900D02*
Y14101D01*
X-58919Y-5906D02*
X-57718D01*
X-58319Y-6506D02*
Y-5305D01*
X-58919Y-13780D02*
X-57718D01*
X-58319Y-14380D02*
Y-13179D01*
X-56455Y-7874D02*
X-55254D01*
X-55854Y-8474D02*
Y-7274D01*
X-47108Y-3937D02*
X-45908D01*
X-46508Y-4537D02*
Y-3337D01*
X-32096Y41339D02*
X-30896D01*
X-31496Y40738D02*
Y41939D01*
X-38002Y29528D02*
X-36801D01*
X-37402Y28927D02*
Y30128D01*
X32864Y27559D02*
X34065D01*
X33465Y26959D02*
Y28159D01*
X-47844Y25591D02*
X-46644D01*
X-47244Y24990D02*
Y26191D01*
X-71466Y1969D02*
X-70266D01*
X-70866Y1368D02*
Y2569D01*
X55254Y-11811D02*
X56455D01*
X55854Y-12411D02*
Y-11211D01*
X-57636Y17717D02*
X-56435D01*
X-57036Y17116D02*
Y18317D01*
X-68266Y-17717D02*
X-67065D01*
X-67665Y-18317D02*
Y-17116D01*
X-68266Y13780D02*
X-67065D01*
X-67665Y13179D02*
Y14380D01*
X-68266Y-9843D02*
X-67065D01*
X-67665Y-10443D02*
Y-9242D01*
X-47600Y-62205D02*
X-46400D01*
X-47000Y-62805D02*
Y-61604D01*
X-47600Y-55905D02*
X-46400D01*
X-47000Y-56506D02*
Y-55305D01*
X-47600Y-49606D02*
X-46400D01*
X-47000Y-50207D02*
Y-49006D01*
X-14529Y-40157D02*
X-13329D01*
X-13929Y-40758D02*
Y-39557D01*
X-37608Y-29677D02*
X-36408D01*
X-37008Y-30277D02*
Y-29077D01*
X-37608Y-62748D02*
X-36408D01*
X-37008Y-63348D02*
Y-62148D01*
X-31309Y-39614D02*
X-30108D01*
X-30709Y-40215D02*
Y-39014D01*
X-34459Y-29677D02*
X-33258D01*
X-33858Y-30278D02*
Y-29077D01*
X-40758Y-29677D02*
X-39557D01*
X-40157Y-30278D02*
Y-29077D01*
X-28159Y-62748D02*
X-26959D01*
X-27559Y-63348D02*
Y-62148D01*
X-40758Y-62748D02*
X-39557D01*
X-40157Y-63348D02*
Y-62148D01*
X7804Y44980D02*
X9005D01*
X8405Y44380D02*
Y45581D01*
X20167Y32185D02*
X21368D01*
X20768Y31585D02*
Y32785D01*
X-14529Y-43307D02*
X-13329D01*
X-13929Y-43907D02*
Y-42707D01*
X-14380Y-49213D02*
X-13179D01*
X-13780Y-49813D02*
Y-48612D01*
X-10443Y-47244D02*
X-9242D01*
X-9843Y-47844D02*
Y-46644D01*
X-20285Y-33465D02*
X-19085D01*
X-19685Y-34065D02*
Y-32864D01*
X15148Y-35433D02*
X16348D01*
X15748Y-36033D02*
Y-34833D01*
X-32096Y-59055D02*
X-30896D01*
X-31496Y-59655D02*
Y-58455D01*
X-43907Y-59055D02*
X-42707D01*
X-43307Y-59655D02*
Y-58455D01*
X-43907Y-53150D02*
X-42707D01*
X-43307Y-53750D02*
Y-52549D01*
X11211Y-47098D02*
X12411D01*
X11811Y-47699D02*
Y-46498D01*
X17116Y-47098D02*
X18317D01*
X17717Y-47699D02*
Y-46498D01*
X23022Y-47098D02*
X24222D01*
X23622Y-47699D02*
Y-46498D01*
X-25010Y-72685D02*
X-23809D01*
X-24409Y-73285D02*
Y-72085D01*
X5305Y-64961D02*
X6506D01*
X5906Y-65561D02*
Y-64360D01*
X-14529Y-55905D02*
X-13329D01*
X-13929Y-56506D02*
Y-55305D01*
X-10443Y-59055D02*
X-9242D01*
X-9843Y-59655D02*
Y-58455D01*
X62392Y-59055D02*
X63592D01*
X62992Y-59655D02*
Y-58455D01*
X66329Y-59055D02*
X67529D01*
X66929Y-59655D02*
Y-58455D01*
X64360Y37402D02*
X65561D01*
X64961Y36801D02*
Y38002D01*
X62392Y27559D02*
X63592D01*
X62992Y26959D02*
Y28159D01*
X57718Y5906D02*
X58919D01*
X58319Y5305D02*
Y6506D01*
X55254Y3937D02*
X56455D01*
X55854Y3337D02*
Y4537D01*
X57718Y-9843D02*
X58919D01*
X58319Y-10443D02*
Y-9242D01*
X56435Y-17717D02*
X57636D01*
X57035Y-18317D02*
Y-17116D01*
X55254Y11811D02*
X56455D01*
X55854Y11211D02*
Y12411D01*
X57718Y13780D02*
X58919D01*
X58319Y13179D02*
Y14380D01*
X67065Y-13780D02*
X68266D01*
X67665Y-14380D02*
Y-13179D01*
X67065Y-5906D02*
X68266D01*
X67665Y-6506D02*
Y-5305D01*
X67065Y9843D02*
X68266D01*
X67665Y9242D02*
Y10443D01*
X67065Y1969D02*
X68266D01*
X67665Y1368D02*
Y2569D01*
X67065Y-17717D02*
X68266D01*
X67665Y-18317D02*
Y-17116D01*
X67065Y17717D02*
X68266D01*
X67665Y17116D02*
Y18317D01*
X68297Y-47244D02*
X69498D01*
X68898Y-47844D02*
Y-46644D01*
X72234Y-47244D02*
X73435D01*
X72835Y-47844D02*
Y-46644D01*
X-26191Y-17717D02*
X-24990D01*
X-25591Y-18317D02*
Y-17116D01*
X5305Y-21654D02*
X6506D01*
X5906Y-22254D02*
Y-21053D01*
X-34065Y-3937D02*
X-32864D01*
X-33465Y-4537D02*
Y-3337D01*
X-31921Y-6081D02*
X-30721D01*
X-31321Y-6681D02*
Y-5480D01*
X56486Y-53149D02*
X57687D01*
X57086Y-53750D02*
Y-52549D01*
X56486Y-70866D02*
X57687D01*
X57087Y-71466D02*
Y-70266D01*
X-600Y-47244D02*
X600D01*
X0Y-47844D02*
Y-46644D01*
X68297Y-35433D02*
X69498D01*
X68898Y-36033D02*
Y-34833D01*
X-30154Y-19711D02*
X-28953D01*
X-29553Y-20311D02*
Y-19111D01*
X1368Y-37402D02*
X2569D01*
X1969Y-38002D02*
Y-36801D01*
X-36033Y82677D02*
X-34833D01*
X-35433Y82077D02*
Y83278D01*
X-24222Y82677D02*
X-23022D01*
X-23622Y82077D02*
Y83278D01*
X-18317Y62992D02*
X-17116D01*
X-17717Y62392D02*
Y63592D01*
X74203Y-43307D02*
X75403D01*
X74803Y-43907D02*
Y-42707D01*
X56486Y0D02*
X57687D01*
X57086Y-600D02*
Y600D01*
X-20285Y-21654D02*
X-19085D01*
X-19685Y-22254D02*
Y-21053D01*
X-47108Y3937D02*
X-45908D01*
X-46508Y3337D02*
Y4537D01*
X-57687Y9843D02*
X-56486D01*
X-57086Y9242D02*
Y10443D01*
X-41939Y-47244D02*
X-40738D01*
X-41339Y-47844D02*
Y-46644D01*
X50581Y-49213D02*
X51781D01*
X51181Y-49813D02*
Y-48612D01*
X40738Y-49213D02*
X41939D01*
X41339Y-49813D02*
Y-48612D01*
X-43907Y-72835D02*
X-42707D01*
X-43307Y-73435D02*
Y-72234D01*
X-20285Y-72835D02*
X-19085D01*
X-19685Y-73435D02*
Y-72234D01*
X-10443Y-5906D02*
X-9242D01*
X-9843Y-6506D02*
Y-5305D01*
X-10443Y17717D02*
X-9242D01*
X-9843Y17116D02*
Y18317D01*
X-10443Y70866D02*
X-9242D01*
X-9843Y70266D02*
Y71466D01*
X23022Y-64961D02*
X24222D01*
X23622Y-65561D02*
Y-64360D01*
X11211Y-64961D02*
X12411D01*
X11811Y-65561D02*
Y-64360D01*
X17116Y-64961D02*
X18317D01*
X17717Y-65561D02*
Y-64360D01*
X15010Y-59291D02*
X16211D01*
X15610Y-59892D02*
Y-58691D01*
X50679Y37402D02*
X51880D01*
X51279Y36801D02*
Y38002D01*
X74203Y45154D02*
X75403D01*
X74803Y44553D02*
Y45754D01*
X34833Y45276D02*
X36033D01*
X35433Y44675D02*
Y45876D01*
X48612Y-57087D02*
X49813D01*
X49213Y-57687D02*
Y-56486D01*
X46644Y-21654D02*
X47844D01*
X47244Y-22254D02*
Y-21053D01*
X-68514Y-3937D02*
X-67313D01*
X-67913Y-4537D02*
Y-3337D01*
X45908Y0D02*
X47108D01*
X46508Y-600D02*
Y600D01*
X-7490Y-62008D02*
X-6289D01*
X-6890Y-62608D02*
Y-61408D01*
X43691Y9843D02*
X44892D01*
X44291Y9242D02*
Y10443D01*
M02*
