%FSLAX25Y25*%
%MOIN*%
G70*
G01*
G75*
G04 Layer_Color=128*
%ADD10C,0.03937*%
%ADD11R,0.01575X0.02756*%
%ADD12C,0.07874*%
%ADD13C,0.00591*%
%ADD14C,0.01000*%
%ADD15R,0.05906X0.05906*%
%ADD16C,0.05906*%
%ADD17R,0.05906X0.05906*%
%ADD18C,0.07087*%
%ADD19C,0.02441*%
%ADD20C,0.01969*%
%ADD21C,0.04000*%
%ADD22C,0.11024*%
%ADD23C,0.04762*%
%ADD24O,0.09449X0.12598*%
%ADD25C,0.06299*%
%ADD26C,0.03543*%
%ADD27R,0.02756X0.03543*%
%ADD28R,0.03543X0.02756*%
%ADD29R,0.06102X0.04331*%
%ADD30R,0.06102X0.04331*%
%ADD31R,0.06102X0.13583*%
%ADD32O,0.06496X0.02165*%
%ADD33O,0.02165X0.06496*%
%ADD34R,0.05906X0.05118*%
%ADD35R,0.07087X0.03150*%
%ADD36R,0.05906X0.02362*%
%ADD37R,0.04331X0.03937*%
%ADD38C,0.01575*%
%ADD39C,0.03937*%
%ADD40C,0.00787*%
%ADD41C,0.11811*%
%ADD42R,0.01975X0.03156*%
%ADD43C,0.08274*%
%ADD44R,0.06306X0.06306*%
%ADD45C,0.06306*%
%ADD46C,0.06000*%
%ADD47R,0.06306X0.06306*%
%ADD48C,0.03000*%
%ADD49R,0.00400X0.00400*%
%ADD50C,0.07487*%
%ADD51R,0.03156X0.03943*%
%ADD52R,0.03943X0.03156*%
%ADD53R,0.06502X0.04731*%
%ADD54R,0.06502X0.04731*%
%ADD55R,0.06502X0.13983*%
%ADD56O,0.06896X0.02565*%
%ADD57O,0.02565X0.06896*%
%ADD58R,0.06306X0.05518*%
%ADD59R,0.07487X0.03550*%
%ADD60R,0.06306X0.02762*%
%ADD61R,0.04731X0.04337*%
D14*
X27559Y-113174D02*
X28559Y-114173D01*
X30558D01*
X31558Y-113174D01*
Y-109175D01*
X30558Y-108175D01*
X28559D01*
X27559Y-109175D01*
Y-110175D01*
X28559Y-111174D01*
X31558D01*
X33557Y-110175D02*
X34557D01*
Y-111174D01*
X33557D01*
Y-110175D01*
Y-113174D02*
X34557D01*
Y-114173D01*
X33557D01*
Y-113174D01*
X42554Y-108175D02*
X38555D01*
Y-111174D01*
X40555Y-110175D01*
X41554D01*
X42554Y-111174D01*
Y-113174D01*
X41554Y-114173D01*
X39555D01*
X38555Y-113174D01*
X47553Y-114173D02*
Y-108175D01*
X44554Y-111174D01*
X48552D01*
X50552Y-110175D02*
X51551D01*
Y-111174D01*
X50552D01*
Y-110175D01*
Y-113174D02*
X51551D01*
Y-114173D01*
X50552D01*
Y-113174D01*
X59549Y-108175D02*
X55550D01*
Y-111174D01*
X57549Y-110175D01*
X58549D01*
X59549Y-111174D01*
Y-113174D01*
X58549Y-114173D01*
X56550D01*
X55550Y-113174D01*
X61548Y-109175D02*
X62548Y-108175D01*
X64547D01*
X65547Y-109175D01*
Y-110175D01*
X64547Y-111174D01*
X65547Y-112174D01*
Y-113174D01*
X64547Y-114173D01*
X62548D01*
X61548Y-113174D01*
Y-112174D01*
X62548Y-111174D01*
X61548Y-110175D01*
Y-109175D01*
X62548Y-111174D02*
X64547D01*
X73544Y-114173D02*
Y-108175D01*
X76543D01*
X77543Y-109175D01*
Y-111174D01*
X76543Y-112174D01*
X73544D01*
X79542Y-114173D02*
Y-108175D01*
X81542Y-110175D01*
X83541Y-108175D01*
Y-114173D01*
X27559Y-102362D02*
X29558D01*
X28559D01*
Y-96364D01*
X27559Y-97364D01*
X32557D02*
X33557Y-96364D01*
X35557D01*
X36556Y-97364D01*
Y-101363D01*
X35557Y-102362D01*
X33557D01*
X32557Y-101363D01*
Y-97364D01*
X38555Y-102362D02*
X42554Y-98364D01*
X48552Y-102362D02*
X44554D01*
X48552Y-98364D01*
Y-97364D01*
X47553Y-96364D01*
X45553D01*
X44554Y-97364D01*
X50552Y-101363D02*
X51551Y-102362D01*
X53551D01*
X54550Y-101363D01*
Y-97364D01*
X53551Y-96364D01*
X51551D01*
X50552Y-97364D01*
Y-98364D01*
X51551Y-99363D01*
X54550D01*
X56550Y-102362D02*
X60548Y-98364D01*
X66546Y-102362D02*
X62548D01*
X66546Y-98364D01*
Y-97364D01*
X65547Y-96364D01*
X63547D01*
X62548Y-97364D01*
X68546D02*
X69546Y-96364D01*
X71545D01*
X72544Y-97364D01*
Y-101363D01*
X71545Y-102362D01*
X69546D01*
X68546Y-101363D01*
Y-97364D01*
X74544Y-102362D02*
X76543D01*
X75543D01*
Y-96364D01*
X74544Y-97364D01*
X82541Y-102362D02*
Y-96364D01*
X79542Y-99363D01*
X83541D01*
X-78740Y-96364D02*
Y-102362D01*
X-75741D01*
X-74741Y-101363D01*
Y-100363D01*
X-75741Y-99363D01*
X-78740D01*
X-75741D01*
X-74741Y-98364D01*
Y-97364D01*
X-75741Y-96364D01*
X-78740D01*
X-71742Y-102362D02*
X-69743D01*
X-68743Y-101363D01*
Y-99363D01*
X-69743Y-98364D01*
X-71742D01*
X-72742Y-99363D01*
Y-101363D01*
X-71742Y-102362D01*
X-65744Y-97364D02*
Y-98364D01*
X-66744D01*
X-64745D01*
X-65744D01*
Y-101363D01*
X-64745Y-102362D01*
X-60746Y-97364D02*
Y-98364D01*
X-61746D01*
X-59746D01*
X-60746D01*
Y-101363D01*
X-59746Y-102362D01*
X-55748D02*
X-53748D01*
X-52749Y-101363D01*
Y-99363D01*
X-53748Y-98364D01*
X-55748D01*
X-56747Y-99363D01*
Y-101363D01*
X-55748Y-102362D01*
X-50749D02*
Y-98364D01*
X-49749D01*
X-48750Y-99363D01*
Y-102362D01*
Y-99363D01*
X-47750Y-98364D01*
X-46751Y-99363D01*
Y-102362D01*
X-38753D02*
Y-96364D01*
X-35754D01*
X-34754Y-97364D01*
Y-99363D01*
X-35754Y-100363D01*
X-38753D01*
X-31755Y-98364D02*
X-29756D01*
X-28756Y-99363D01*
Y-102362D01*
X-31755D01*
X-32755Y-101363D01*
X-31755Y-100363D01*
X-28756D01*
X-26757Y-102362D02*
X-23758D01*
X-22758Y-101363D01*
X-23758Y-100363D01*
X-25757D01*
X-26757Y-99363D01*
X-25757Y-98364D01*
X-22758D01*
X-19759Y-97364D02*
Y-98364D01*
X-20759D01*
X-18760D01*
X-19759D01*
Y-101363D01*
X-18760Y-102362D01*
X-12762D02*
X-14761D01*
X-15761Y-101363D01*
Y-99363D01*
X-14761Y-98364D01*
X-12762D01*
X-11762Y-99363D01*
Y-100363D01*
X-15761D01*
X-78740Y-78740D02*
X78740D01*
Y118110D01*
X-78740D02*
X78740D01*
X-78740Y-78740D02*
Y118110D01*
D27*
X-5906Y-55709D02*
D03*
Y-50591D02*
D03*
X0Y-55709D02*
D03*
Y-50591D02*
D03*
X5906D02*
D03*
Y-55709D02*
D03*
X11811Y-50591D02*
D03*
Y-55709D02*
D03*
X17717Y-50591D02*
D03*
Y-55709D02*
D03*
X23622Y-50591D02*
D03*
Y-55709D02*
D03*
X-1969Y-36811D02*
D03*
Y-41929D02*
D03*
X-4921Y-17323D02*
D03*
Y-12205D02*
D03*
X0Y-17323D02*
D03*
Y-12205D02*
D03*
X-7874Y-41929D02*
D03*
Y-36811D02*
D03*
X-9843Y-17323D02*
D03*
Y-12205D02*
D03*
X4921Y-17323D02*
D03*
Y-12205D02*
D03*
X0Y-67520D02*
D03*
Y-62402D02*
D03*
D28*
X15354Y-17717D02*
D03*
X10236D02*
D03*
X-15157D02*
D03*
X-20276D02*
D03*
X16339Y-11811D02*
D03*
X11220D02*
D03*
X-41929Y-25591D02*
D03*
X-36811D02*
D03*
X-32874Y-74803D02*
D03*
X-37992D02*
D03*
D29*
X-35925Y68898D02*
D03*
Y59842D02*
D03*
D30*
Y77953D02*
D03*
D31*
X-62500Y68898D02*
D03*
D32*
X-18898Y-46457D02*
D03*
Y-49606D02*
D03*
Y-40157D02*
D03*
Y-43307D02*
D03*
Y-55905D02*
D03*
Y-59055D02*
D03*
Y-52756D02*
D03*
Y-62205D02*
D03*
X-51968Y-43307D02*
D03*
Y-46457D02*
D03*
Y-40157D02*
D03*
Y-52756D02*
D03*
Y-55905D02*
D03*
Y-49606D02*
D03*
Y-62205D02*
D03*
Y-59055D02*
D03*
D33*
X-27559Y-34646D02*
D03*
X-24409D02*
D03*
X-30709D02*
D03*
X-33858D02*
D03*
X-24409Y-67716D02*
D03*
X-27559D02*
D03*
X-33858D02*
D03*
X-30709D02*
D03*
X-37008D02*
D03*
X-40157Y-34646D02*
D03*
X-37008D02*
D03*
X-46457D02*
D03*
X-43307D02*
D03*
Y-67716D02*
D03*
X-40157D02*
D03*
X-46457D02*
D03*
D34*
X-23622Y71063D02*
D03*
Y78543D02*
D03*
Y55315D02*
D03*
Y62795D02*
D03*
D35*
X-51772Y17717D02*
D03*
Y-17717D02*
D03*
X-62402Y17717D02*
D03*
Y-17717D02*
D03*
X62402Y17717D02*
D03*
Y-17717D02*
D03*
X51772Y17717D02*
D03*
Y-17717D02*
D03*
D36*
X-51181Y11811D02*
D03*
Y7874D02*
D03*
Y-0D02*
D03*
Y3937D02*
D03*
Y-7874D02*
D03*
Y-11811D02*
D03*
Y-3937D02*
D03*
X-62992Y5906D02*
D03*
Y13780D02*
D03*
Y1969D02*
D03*
Y9843D02*
D03*
Y-9843D02*
D03*
Y-5906D02*
D03*
Y-1969D02*
D03*
Y-13780D02*
D03*
X62992Y1969D02*
D03*
Y13780D02*
D03*
Y5906D02*
D03*
Y9843D02*
D03*
Y-5906D02*
D03*
Y-1969D02*
D03*
Y-9843D02*
D03*
Y-13780D02*
D03*
X51181Y3937D02*
D03*
Y11811D02*
D03*
Y0D02*
D03*
Y7874D02*
D03*
Y-11811D02*
D03*
Y-7874D02*
D03*
Y-3937D02*
D03*
D37*
X-34055Y-19685D02*
D03*
X-40748D02*
D03*
M02*
