%FSLAX25Y25*%
%MOIN*%
G70*
G01*
G75*
G04 Layer_Physical_Order=3*
G04 Layer_Color=32768*
%ADD10C,0.07874*%
%ADD11R,0.01575X0.02756*%
%ADD12C,0.03937*%
%ADD13C,0.00591*%
%ADD14C,0.01000*%
%ADD15C,0.07087*%
%ADD16R,0.05906X0.05906*%
%ADD17C,0.05906*%
%ADD18R,0.05906X0.05906*%
%ADD19C,0.02441*%
%ADD20C,0.01969*%
%ADD21C,0.04000*%
%ADD22C,0.06299*%
%ADD23O,0.09449X0.12598*%
%ADD24C,0.04762*%
%ADD25C,0.11024*%
%ADD26C,0.03563*%
D14*
X-74741Y-97364D02*
X-75741Y-96364D01*
X-77741D01*
X-78740Y-97364D01*
Y-101363D01*
X-77741Y-102362D01*
X-75741D01*
X-74741Y-101363D01*
Y-99363D01*
X-76741D01*
X-72742Y-98364D02*
Y-102362D01*
Y-100363D01*
X-71742Y-99363D01*
X-70743Y-98364D01*
X-69743D01*
X-65744Y-102362D02*
X-63745D01*
X-62745Y-101363D01*
Y-99363D01*
X-63745Y-98364D01*
X-65744D01*
X-66744Y-99363D01*
Y-101363D01*
X-65744Y-102362D01*
X-60746Y-98364D02*
Y-101363D01*
X-59746Y-102362D01*
X-56747D01*
Y-98364D01*
X-54748Y-102362D02*
Y-98364D01*
X-51749D01*
X-50749Y-99363D01*
Y-102362D01*
X-44751Y-96364D02*
Y-102362D01*
X-47750D01*
X-48750Y-101363D01*
Y-99363D01*
X-47750Y-98364D01*
X-44751D01*
X-36754Y-102362D02*
Y-96364D01*
X-33755D01*
X-32755Y-97364D01*
Y-99363D01*
X-33755Y-100363D01*
X-36754D01*
X-30756Y-102362D02*
X-28756D01*
X-29756D01*
Y-96364D01*
X-30756D01*
X-24758Y-98364D02*
X-22758D01*
X-21759Y-99363D01*
Y-102362D01*
X-24758D01*
X-25757Y-101363D01*
X-24758Y-100363D01*
X-21759D01*
X-19759Y-102362D02*
Y-98364D01*
X-16760D01*
X-15761Y-99363D01*
Y-102362D01*
X-10762D02*
X-12762D01*
X-13761Y-101363D01*
Y-99363D01*
X-12762Y-98364D01*
X-10762D01*
X-9763Y-99363D01*
Y-100363D01*
X-13761D01*
X27559Y-102362D02*
X29558D01*
X28559D01*
Y-96364D01*
X27559Y-97364D01*
X32557D02*
X33557Y-96364D01*
X35557D01*
X36556Y-97364D01*
Y-101363D01*
X35557Y-102362D01*
X33557D01*
X32557Y-101363D01*
Y-97364D01*
X38555Y-102362D02*
X42554Y-98364D01*
X44554Y-97364D02*
X45553Y-96364D01*
X47553D01*
X48552Y-97364D01*
Y-98364D01*
X47553Y-99363D01*
X46553D01*
X47553D01*
X48552Y-100363D01*
Y-101363D01*
X47553Y-102362D01*
X45553D01*
X44554Y-101363D01*
X50552Y-102362D02*
X52551D01*
X51551D01*
Y-96364D01*
X50552Y-97364D01*
X55550Y-102362D02*
X59549Y-98364D01*
X65547Y-102362D02*
X61548D01*
X65547Y-98364D01*
Y-97364D01*
X64547Y-96364D01*
X62548D01*
X61548Y-97364D01*
X67546D02*
X68546Y-96364D01*
X70545D01*
X71545Y-97364D01*
Y-101363D01*
X70545Y-102362D01*
X68546D01*
X67546Y-101363D01*
Y-97364D01*
X73544Y-102362D02*
X75543D01*
X74544D01*
Y-96364D01*
X73544Y-97364D01*
X81542Y-102362D02*
Y-96364D01*
X78543Y-99363D01*
X82541D01*
X27559Y-114173D02*
X29558D01*
X28559D01*
Y-108175D01*
X27559Y-109175D01*
X36556Y-114173D02*
X32557D01*
X36556Y-110175D01*
Y-109175D01*
X35557Y-108175D01*
X33557D01*
X32557Y-109175D01*
X38555Y-110175D02*
X39555D01*
Y-111174D01*
X38555D01*
Y-110175D01*
Y-113174D02*
X39555D01*
Y-114173D01*
X38555D01*
Y-113174D01*
X47553Y-114173D02*
X43554D01*
X47553Y-110175D01*
Y-109175D01*
X46553Y-108175D01*
X44554D01*
X43554Y-109175D01*
X52551Y-114173D02*
Y-108175D01*
X49552Y-111174D01*
X53551D01*
X55550Y-110175D02*
X56550D01*
Y-111174D01*
X55550D01*
Y-110175D01*
Y-113174D02*
X56550D01*
Y-114173D01*
X55550D01*
Y-113174D01*
X60548Y-109175D02*
X61548Y-108175D01*
X63547D01*
X64547Y-109175D01*
Y-113174D01*
X63547Y-114173D01*
X61548D01*
X60548Y-113174D01*
Y-109175D01*
X66546D02*
X67546Y-108175D01*
X69546D01*
X70545Y-109175D01*
Y-113174D01*
X69546Y-114173D01*
X67546D01*
X66546Y-113174D01*
Y-109175D01*
X78543Y-114173D02*
Y-108175D01*
X81542D01*
X82541Y-109175D01*
Y-111174D01*
X81542Y-112174D01*
X78543D01*
X84541Y-114173D02*
Y-108175D01*
X86540Y-110175D01*
X88539Y-108175D01*
Y-114173D01*
D17*
X-64961Y39370D02*
D03*
X-71024Y-43465D02*
D03*
X-61024Y-53465D02*
D03*
X-71024Y-33465D02*
D03*
X-61024Y-43465D02*
D03*
Y-33465D02*
D03*
D21*
X-78740Y-78740D02*
X78740D01*
Y118110D01*
X-78740D02*
X78740D01*
X-78740Y-78740D02*
Y118110D01*
D22*
X-9843Y-29528D02*
D03*
Y27559D02*
D03*
X9843Y-29528D02*
D03*
D23*
X-22441Y0D02*
D03*
X22441D02*
D03*
D24*
X-44190Y-44190D02*
D03*
X-28190Y-28190D02*
D03*
X-57437Y-21247D02*
D03*
X-41437Y-5247D02*
D03*
X-57437Y5247D02*
D03*
X-41437Y21247D02*
D03*
X-44190Y28190D02*
D03*
X-28190Y44190D02*
D03*
X-21247Y41437D02*
D03*
X-5247Y57437D02*
D03*
X5247Y41437D02*
D03*
X21247Y57437D02*
D03*
X28190Y28190D02*
D03*
X44190Y44190D02*
D03*
X41437Y5247D02*
D03*
X57437Y21247D02*
D03*
X41437Y-21247D02*
D03*
X57437Y-5247D02*
D03*
X28190Y-44190D02*
D03*
X44190Y-28190D02*
D03*
X-57213Y92394D02*
D03*
X-41213Y108394D02*
D03*
X-37528Y92394D02*
D03*
X-21528Y108394D02*
D03*
X-17842Y92394D02*
D03*
X-1843Y108394D02*
D03*
X1843Y92394D02*
D03*
X17842Y108394D02*
D03*
X21528Y92394D02*
D03*
X37528Y108394D02*
D03*
X41213Y92394D02*
D03*
X57213Y108394D02*
D03*
D25*
X-68898Y-68898D02*
D03*
X68898D02*
D03*
Y108268D02*
D03*
X-68898D02*
D03*
D26*
X0Y-5906D02*
D03*
X37300Y-2100D02*
D03*
X39370Y9843D02*
D03*
X-5906Y-47244D02*
D03*
X-11811Y-37402D02*
D03*
X21654Y-17717D02*
D03*
X-45276Y-18701D02*
D03*
X-46457Y-29677D02*
D03*
X-44291Y-13780D02*
D03*
X44414Y-9000D02*
D03*
X-70866Y11811D02*
D03*
X-67665Y5906D02*
D03*
X-55854Y-0D02*
D03*
X-58319Y-5906D02*
D03*
Y-13780D02*
D03*
X-55854Y-7874D02*
D03*
X-31496Y41339D02*
D03*
X-37402Y29528D02*
D03*
X33465Y27559D02*
D03*
X-47244Y25591D02*
D03*
X55854Y-11811D02*
D03*
X-67665Y13780D02*
D03*
Y-9843D02*
D03*
X-47000Y-62205D02*
D03*
Y-55905D02*
D03*
Y-49606D02*
D03*
X-13929Y-40157D02*
D03*
X-37008Y-29677D02*
D03*
X-30709Y-39614D02*
D03*
X-40157Y-29677D02*
D03*
X-27559Y-62748D02*
D03*
X-40157D02*
D03*
X8405Y44980D02*
D03*
X20768Y32185D02*
D03*
X-13929Y-43307D02*
D03*
X-13780Y-49213D02*
D03*
X-9843Y-47244D02*
D03*
X-19685Y-33465D02*
D03*
X15748Y-35433D02*
D03*
X-31496Y-59055D02*
D03*
X-43307D02*
D03*
Y-53150D02*
D03*
X11811Y-47098D02*
D03*
X17717D02*
D03*
X23622D02*
D03*
X-24409Y-72685D02*
D03*
X5906Y-64961D02*
D03*
X-13929Y-55905D02*
D03*
X-9843Y-59055D02*
D03*
X62992D02*
D03*
X66929D02*
D03*
X64961Y37402D02*
D03*
X62992Y27559D02*
D03*
X58319Y5906D02*
D03*
X55854Y3937D02*
D03*
X58319Y-9843D02*
D03*
Y13780D02*
D03*
X67665Y-13780D02*
D03*
Y-5906D02*
D03*
Y9843D02*
D03*
X68898Y-47244D02*
D03*
X72835D02*
D03*
X-25591Y-17717D02*
D03*
X5906Y-21654D02*
D03*
X-33465Y-3937D02*
D03*
X-31321Y-6081D02*
D03*
X57086Y-53149D02*
D03*
X57087Y-70866D02*
D03*
X0Y-47244D02*
D03*
X68898Y-35433D02*
D03*
X74803Y-43307D02*
D03*
X57086Y0D02*
D03*
X-19685Y-21654D02*
D03*
X-46508Y3937D02*
D03*
X-57086Y9843D02*
D03*
X-41339Y-47244D02*
D03*
X51181Y-49213D02*
D03*
X41339D02*
D03*
X-43307Y-72835D02*
D03*
X-19685D02*
D03*
X-9843Y-5906D02*
D03*
Y17717D02*
D03*
Y70866D02*
D03*
X23622Y-64961D02*
D03*
X11811D02*
D03*
X17717D02*
D03*
X15610Y-59291D02*
D03*
X51279Y37402D02*
D03*
X74803Y45154D02*
D03*
X35433Y45276D02*
D03*
X49213Y-57087D02*
D03*
X47244Y-21654D02*
D03*
X-67913Y-3937D02*
D03*
X46508Y0D02*
D03*
X-6890Y-62008D02*
D03*
X44291Y9843D02*
D03*
M02*
