%FSLAX25Y25*%
%MOIN*%
G70*
G01*
G75*
G04 Layer_Physical_Order=4*
G04 Layer_Color=16711680*
%ADD10C,0.07874*%
%ADD11R,0.01575X0.02756*%
%ADD12C,0.03937*%
%ADD13C,0.00591*%
%ADD14C,0.01000*%
%ADD15C,0.07087*%
%ADD16R,0.05906X0.05906*%
%ADD17C,0.05906*%
%ADD18R,0.05906X0.05906*%
%ADD19C,0.02441*%
%ADD20C,0.01969*%
%ADD21C,0.04000*%
%ADD22C,0.06299*%
%ADD23O,0.09449X0.12598*%
%ADD24C,0.04762*%
%ADD25C,0.11024*%
%ADD26C,0.03563*%
%ADD27R,0.03543X0.02756*%
%ADD28R,0.04331X0.03937*%
%ADD29R,0.02756X0.03543*%
%ADD30R,0.05906X0.02362*%
%ADD31R,0.07087X0.03150*%
%ADD32R,0.05906X0.05118*%
%ADD33O,0.06496X0.02165*%
%ADD34O,0.02165X0.06496*%
%ADD35R,0.06102X0.13583*%
%ADD36R,0.06102X0.04331*%
%ADD37R,0.06102X0.04331*%
%ADD38C,0.01575*%
%ADD39C,0.03937*%
G36*
X-75416Y23088D02*
X-74340Y22643D01*
Y13780D01*
X-74225Y13204D01*
X-73899Y12715D01*
X-73262Y12078D01*
X-73315Y11811D01*
X-73128Y10874D01*
X-72598Y10080D01*
X-71803Y9549D01*
X-70866Y9362D01*
X-70599Y9415D01*
X-69962Y8778D01*
X-69474Y8452D01*
X-69168Y8391D01*
X-69063Y7860D01*
X-69397Y7637D01*
X-69928Y6842D01*
X-70114Y5906D01*
X-69928Y4968D01*
X-69397Y4174D01*
X-68602Y3643D01*
X-67665Y3457D01*
X-67445Y3501D01*
X-66945Y3130D01*
Y2468D01*
X-62992D01*
Y1469D01*
X-66945D01*
Y394D01*
X-67126D01*
Y-1251D01*
X-67513Y-1568D01*
X-67913Y-1488D01*
X-68850Y-1675D01*
X-69645Y-2206D01*
X-70176Y-3000D01*
X-70362Y-3937D01*
X-70176Y-4874D01*
X-69645Y-5668D01*
X-68850Y-6199D01*
X-67913Y-6386D01*
X-67513Y-6306D01*
X-67126Y-6623D01*
Y-7107D01*
X-67513Y-7424D01*
X-67665Y-7394D01*
X-68602Y-7580D01*
X-69397Y-8111D01*
X-69928Y-8906D01*
X-70114Y-9843D01*
X-69928Y-10780D01*
X-69397Y-11574D01*
X-68602Y-12105D01*
X-67665Y-12291D01*
X-67626Y-12283D01*
X-67126Y-12694D01*
Y-16142D01*
X-58858D01*
Y-16142D01*
X-58838Y-16125D01*
X-58319Y-16228D01*
X-57382Y-16042D01*
X-56587Y-15511D01*
X-56057Y-14717D01*
X-55870Y-13780D01*
X-56057Y-12843D01*
X-56587Y-12048D01*
X-57382Y-11517D01*
X-58319Y-11331D01*
X-58472Y-11361D01*
X-58858Y-11044D01*
Y-9052D01*
X-58380Y-8704D01*
X-58119Y-8797D01*
X-58117Y-8811D01*
X-57586Y-9606D01*
X-56791Y-10136D01*
X-55854Y-10323D01*
X-55815Y-10315D01*
X-55315Y-10725D01*
Y-14173D01*
X-47047D01*
X-47047Y-14173D01*
Y-14173D01*
D01*
X-46623Y-14367D01*
X-46554Y-14717D01*
X-46023Y-15511D01*
X-45584Y-15804D01*
X-45690Y-16335D01*
X-46213Y-16439D01*
X-47007Y-16969D01*
X-47538Y-17764D01*
X-47724Y-18701D01*
X-47538Y-19638D01*
X-47007Y-20432D01*
X-46213Y-20963D01*
X-45276Y-21149D01*
X-44637Y-21022D01*
X-44460Y-21094D01*
X-44173Y-21408D01*
X-44222Y-21654D01*
X-44137Y-22081D01*
Y-23031D01*
X-44882D01*
Y-23383D01*
X-55517D01*
X-55667Y-22883D01*
X-55194Y-22176D01*
X-55009Y-21247D01*
X-55194Y-20318D01*
X-55721Y-19530D01*
X-56508Y-19004D01*
X-57437Y-18819D01*
X-58366Y-19004D01*
X-59154Y-19530D01*
X-59680Y-20318D01*
X-59865Y-21247D01*
X-59680Y-22176D01*
X-59208Y-22883D01*
X-59358Y-23383D01*
X-67913D01*
X-68758Y-23551D01*
X-69475Y-24029D01*
X-72585Y-27140D01*
X-73063Y-27856D01*
X-73231Y-28701D01*
Y-29948D01*
X-73972Y-30516D01*
X-74634Y-31380D01*
X-75051Y-32385D01*
X-75193Y-33465D01*
X-75051Y-34544D01*
X-74634Y-35549D01*
X-73972Y-36413D01*
X-73108Y-37075D01*
X-72103Y-37492D01*
X-71024Y-37634D01*
X-69945Y-37492D01*
X-68939Y-37075D01*
X-68075Y-36413D01*
X-67924Y-36215D01*
X-67450Y-36376D01*
Y-38543D01*
X-67336Y-39119D01*
X-67009Y-39608D01*
X-64811Y-41806D01*
X-65051Y-42385D01*
X-65193Y-43465D01*
X-65051Y-44544D01*
X-64635Y-45549D01*
X-64118Y-46223D01*
X-64359Y-46723D01*
X-65636D01*
X-67236Y-45123D01*
X-66996Y-44544D01*
X-66854Y-43465D01*
X-66996Y-42385D01*
X-67413Y-41380D01*
X-68075Y-40516D01*
X-68939Y-39854D01*
X-69945Y-39437D01*
X-71024Y-39295D01*
X-72103Y-39437D01*
X-73108Y-39854D01*
X-73972Y-40516D01*
X-74634Y-41380D01*
X-75051Y-42385D01*
X-75193Y-43465D01*
X-75051Y-44544D01*
X-74634Y-45549D01*
X-73972Y-46413D01*
X-73108Y-47076D01*
X-72103Y-47492D01*
X-71024Y-47634D01*
X-69945Y-47492D01*
X-69365Y-47252D01*
X-67324Y-49293D01*
X-66836Y-49619D01*
X-66260Y-49734D01*
X-63773D01*
X-63604Y-50234D01*
X-63972Y-50516D01*
X-64635Y-51380D01*
X-65051Y-52385D01*
X-65193Y-53465D01*
X-65051Y-54544D01*
X-64635Y-55549D01*
X-63972Y-56413D01*
X-63108Y-57076D01*
X-62103Y-57492D01*
X-61024Y-57634D01*
X-59944Y-57492D01*
X-58939Y-57076D01*
X-58075Y-56413D01*
X-57413Y-55549D01*
X-56996Y-54544D01*
X-56854Y-53465D01*
X-56996Y-52385D01*
X-57413Y-51380D01*
X-58075Y-50516D01*
X-58939Y-49854D01*
X-58979Y-49296D01*
X-58975Y-49293D01*
X-56767Y-47085D01*
X-56288Y-47230D01*
X-56266Y-47340D01*
X-55804Y-48031D01*
X-56266Y-48723D01*
X-56442Y-49606D01*
X-56266Y-50490D01*
X-55804Y-51181D01*
X-56266Y-51873D01*
X-56442Y-52756D01*
X-56266Y-53639D01*
X-55804Y-54331D01*
X-56266Y-55022D01*
X-56442Y-55905D01*
X-56266Y-56789D01*
X-55804Y-57480D01*
X-56266Y-58172D01*
X-56442Y-59055D01*
X-56266Y-59938D01*
X-55804Y-60630D01*
X-56266Y-61321D01*
X-56442Y-62205D01*
X-56266Y-63088D01*
X-55766Y-63837D01*
X-55017Y-64337D01*
X-54134Y-64513D01*
X-49803D01*
X-48977Y-64349D01*
X-48770Y-64519D01*
X-48601Y-64725D01*
X-48765Y-65551D01*
Y-66211D01*
X-50000D01*
X-50576Y-66326D01*
X-51064Y-66652D01*
X-52209Y-67796D01*
X-53150Y-67672D01*
X-54486Y-67848D01*
X-55731Y-68364D01*
X-56800Y-69184D01*
X-57620Y-70253D01*
X-58136Y-71499D01*
X-58312Y-72835D01*
X-58136Y-74171D01*
X-57620Y-75416D01*
X-57160Y-76016D01*
X-57406Y-76516D01*
X-62855D01*
X-63023Y-76046D01*
X-62324Y-75471D01*
X-61168Y-74063D01*
X-60309Y-72455D01*
X-59780Y-70711D01*
X-59601Y-68898D01*
X-59780Y-67084D01*
X-60309Y-65340D01*
X-61168Y-63733D01*
X-62324Y-62324D01*
X-63733Y-61168D01*
X-65340Y-60309D01*
X-67084Y-59780D01*
X-68898Y-59601D01*
X-70711Y-59780D01*
X-72455Y-60309D01*
X-74063Y-61168D01*
X-75471Y-62324D01*
X-76046Y-63023D01*
X-76516Y-62855D01*
Y23303D01*
X-76016Y23549D01*
X-75416Y23088D01*
D02*
G37*
G36*
X44776Y-1731D02*
X45571Y-2262D01*
X46508Y-2449D01*
X46728Y-2405D01*
X47228Y-2776D01*
Y-3437D01*
X51181D01*
Y-4437D01*
X47228D01*
Y-5512D01*
X47047D01*
Y-6375D01*
X46501Y-6483D01*
X46012Y-6810D01*
X45791Y-7031D01*
X45351Y-6738D01*
X44414Y-6551D01*
X43477Y-6738D01*
X42683Y-7269D01*
X42360Y-7752D01*
X41860Y-7601D01*
Y-2592D01*
X42946Y-1505D01*
X44625D01*
X44776Y-1731D01*
D02*
G37*
G36*
X63023Y115416D02*
X62324Y114841D01*
X61168Y113433D01*
X60309Y111825D01*
X59780Y110081D01*
X59750Y109782D01*
X59235Y109653D01*
X58929Y110110D01*
X58142Y110637D01*
X57213Y110821D01*
X56283Y110637D01*
X55496Y110110D01*
X54970Y109323D01*
X54785Y108394D01*
X54970Y107465D01*
X55496Y106677D01*
X56283Y106151D01*
X57213Y105966D01*
X58142Y106151D01*
X58929Y106677D01*
X59213Y107102D01*
X59728Y106973D01*
X59780Y106454D01*
X60309Y104710D01*
X61168Y103103D01*
X62324Y101694D01*
X63733Y100538D01*
X65340Y99679D01*
X67084Y99150D01*
X68898Y98971D01*
X70711Y99150D01*
X72455Y99679D01*
X74063Y100538D01*
X75471Y101694D01*
X76046Y102393D01*
X76516Y102225D01*
Y47428D01*
X76075Y47192D01*
X75740Y47416D01*
X74803Y47602D01*
X73866Y47416D01*
X73072Y46885D01*
X72541Y46091D01*
X72355Y45154D01*
X72541Y44217D01*
X73072Y43422D01*
X73866Y42891D01*
X74803Y42705D01*
X75740Y42891D01*
X76075Y43115D01*
X76516Y42880D01*
Y-27435D01*
X76016Y-27467D01*
X75853Y-26223D01*
X75337Y-24978D01*
X74516Y-23909D01*
X73447Y-23088D01*
X72534Y-22710D01*
X72468Y-22181D01*
X74883Y-19765D01*
X75210Y-19277D01*
X75324Y-18701D01*
Y-7874D01*
X75210Y-7298D01*
X74883Y-6810D01*
X72915Y-4841D01*
X72426Y-4515D01*
X71850Y-4400D01*
X69548D01*
X69397Y-4174D01*
X68602Y-3643D01*
X67665Y-3457D01*
X67513Y-3487D01*
X67126Y-3170D01*
Y394D01*
X66945D01*
Y1469D01*
X62992D01*
Y2468D01*
X66945D01*
Y3543D01*
X67126D01*
Y6991D01*
X67626Y7402D01*
X67665Y7394D01*
X68602Y7580D01*
X69397Y8111D01*
X69928Y8906D01*
X70114Y9843D01*
X69928Y10780D01*
X69397Y11574D01*
X68602Y12105D01*
X67665Y12291D01*
X67513Y12261D01*
X67126Y12578D01*
Y16142D01*
X58858D01*
Y16142D01*
X58838Y16125D01*
X58319Y16228D01*
X57382Y16042D01*
X56587Y15511D01*
X56057Y14717D01*
X55870Y13780D01*
X56057Y12843D01*
X56587Y12048D01*
X57382Y11517D01*
X58319Y11331D01*
X58358Y11339D01*
X58858Y10928D01*
Y8641D01*
X58472Y8324D01*
X58319Y8354D01*
X57382Y8168D01*
X56587Y7637D01*
X56057Y6843D01*
X56032Y6717D01*
X55797Y6629D01*
X55315Y6976D01*
Y10236D01*
X55134D01*
Y11311D01*
X47228D01*
Y10703D01*
X47096Y10616D01*
X46554Y10780D01*
X46023Y11574D01*
X45797Y11725D01*
Y14764D01*
X45682Y15340D01*
X45356Y15828D01*
X42403Y18781D01*
X41915Y19107D01*
X41339Y19222D01*
X36412D01*
X35967Y20298D01*
X35146Y21367D01*
X34077Y22187D01*
X32832Y22703D01*
X31496Y22879D01*
X30160Y22703D01*
X28915Y22187D01*
X27846Y21367D01*
X27025Y20298D01*
X26510Y19053D01*
X26334Y17717D01*
X26462Y16742D01*
X25984Y16544D01*
X25304Y17430D01*
X24235Y18250D01*
X23563Y18528D01*
Y19069D01*
X24143Y19310D01*
X25175Y20101D01*
X25966Y21132D01*
X26463Y22333D01*
X26567Y23122D01*
X16740D01*
X16844Y22333D01*
X17341Y21132D01*
X18132Y20101D01*
X19164Y19310D01*
X19744Y19069D01*
Y18528D01*
X19072Y18250D01*
X18003Y17430D01*
X17183Y16361D01*
X16667Y15116D01*
X16491Y13780D01*
X16667Y12443D01*
X17183Y11198D01*
X18003Y10129D01*
X19072Y9309D01*
X20317Y8793D01*
X21654Y8617D01*
X22990Y8793D01*
X24235Y9309D01*
X25304Y10129D01*
X26124Y11198D01*
X26203Y11388D01*
X27176D01*
X27397Y10940D01*
X27025Y10455D01*
X26510Y9210D01*
X26334Y7874D01*
X26510Y6538D01*
X27025Y5293D01*
X27846Y4224D01*
X28915Y3403D01*
X29399Y3203D01*
Y2703D01*
X28915Y2502D01*
X27846Y1682D01*
X27648Y1425D01*
X27586Y1446D01*
X27196Y1656D01*
X27044Y2808D01*
X26568Y3957D01*
X25810Y4944D01*
X24824Y5702D01*
X23674Y6178D01*
X22441Y6340D01*
X21208Y6178D01*
X20058Y5702D01*
X19072Y4944D01*
X18314Y3957D01*
X17838Y2808D01*
X17676Y1575D01*
Y-1575D01*
X17838Y-2808D01*
X18314Y-3957D01*
X19072Y-4944D01*
X20058Y-5702D01*
X21208Y-6178D01*
X22441Y-6340D01*
X23674Y-6178D01*
X24824Y-5702D01*
X25810Y-4944D01*
X26354Y-4236D01*
X26927Y-4311D01*
X27025Y-4550D01*
X27846Y-5619D01*
X28915Y-6439D01*
X29399Y-6640D01*
Y-7140D01*
X28915Y-7340D01*
X27846Y-8161D01*
X27025Y-9230D01*
X26510Y-10475D01*
X26334Y-11811D01*
X26510Y-13147D01*
X27025Y-14392D01*
X27846Y-15461D01*
X28915Y-16282D01*
X29399Y-16482D01*
Y-16982D01*
X28915Y-17183D01*
X27846Y-18003D01*
X27025Y-19072D01*
X26510Y-20317D01*
X26334Y-21654D01*
X26510Y-22990D01*
X27025Y-24235D01*
X27846Y-25304D01*
X28915Y-26124D01*
X29399Y-26325D01*
Y-26825D01*
X28915Y-27025D01*
X27846Y-27846D01*
X27025Y-28915D01*
X26510Y-30160D01*
X26334Y-31496D01*
X26510Y-32832D01*
X27025Y-34077D01*
X27846Y-35146D01*
X28915Y-35967D01*
X30160Y-36482D01*
X31496Y-36658D01*
X32832Y-36482D01*
X34077Y-35967D01*
X35146Y-35146D01*
X35967Y-34077D01*
X36482Y-32832D01*
X36658Y-31496D01*
X36482Y-30160D01*
X36037Y-29084D01*
X38466Y-26655D01*
X38792Y-26167D01*
X38907Y-25591D01*
Y-22646D01*
X39407Y-22494D01*
X39720Y-22963D01*
X40508Y-23490D01*
X41437Y-23674D01*
X42366Y-23490D01*
X43154Y-22963D01*
X43680Y-22176D01*
X43865Y-21247D01*
X43680Y-20318D01*
X43154Y-19530D01*
X42366Y-19004D01*
X41691Y-18869D01*
X41523Y-18331D01*
X46537Y-13316D01*
X47047D01*
Y-14173D01*
X55315D01*
Y-14173D01*
X55335Y-14156D01*
X55854Y-14260D01*
X56791Y-14073D01*
X57586Y-13542D01*
X58117Y-12748D01*
X58119Y-12734D01*
X58380Y-12641D01*
X58858Y-12989D01*
Y-16142D01*
X67126D01*
Y-16142D01*
X67146Y-16125D01*
X67665Y-16228D01*
X68602Y-16042D01*
X68920Y-15830D01*
X69361Y-16065D01*
Y-18077D01*
X68274Y-19164D01*
X67913D01*
X67337Y-19279D01*
X66849Y-19605D01*
X63436Y-23018D01*
X62360Y-22573D01*
X61024Y-22397D01*
X59688Y-22573D01*
X58442Y-23088D01*
X57373Y-23909D01*
X56553Y-24978D01*
X56037Y-26223D01*
X55861Y-27559D01*
X56037Y-28895D01*
X56553Y-30140D01*
X57373Y-31209D01*
X58442Y-32030D01*
X59114Y-32308D01*
Y-32849D01*
X58534Y-33089D01*
X57503Y-33880D01*
X56711Y-34912D01*
X56214Y-36113D01*
X56110Y-36902D01*
X61024D01*
Y-37402D01*
X61524D01*
Y-42315D01*
X62312Y-42211D01*
X63513Y-41714D01*
X64545Y-40923D01*
X65336Y-39891D01*
X65576Y-39312D01*
X66118D01*
X66395Y-39983D01*
X67216Y-41052D01*
X68285Y-41872D01*
X69530Y-42388D01*
X70866Y-42564D01*
X72023Y-42412D01*
X72383Y-42708D01*
X72450Y-42827D01*
X72355Y-43307D01*
X72541Y-44244D01*
X72600Y-44332D01*
X72370Y-44888D01*
X71898Y-44982D01*
X71191Y-45454D01*
X70866Y-45492D01*
X70541Y-45454D01*
X69835Y-44982D01*
X68898Y-44796D01*
X67961Y-44982D01*
X67166Y-45513D01*
X66635Y-46307D01*
X66449Y-47244D01*
X66635Y-48181D01*
X67166Y-48976D01*
X67961Y-49506D01*
X68898Y-49693D01*
X69835Y-49506D01*
X70541Y-49034D01*
X70866Y-48996D01*
X71191Y-49034D01*
X71898Y-49506D01*
X72835Y-49693D01*
X73772Y-49506D01*
X74566Y-48976D01*
X75097Y-48181D01*
X75283Y-47244D01*
X75097Y-46307D01*
X75038Y-46219D01*
X75268Y-45663D01*
X75740Y-45569D01*
X76075Y-45345D01*
X76516Y-45581D01*
Y-62855D01*
X76046Y-63023D01*
X75471Y-62324D01*
X74063Y-61168D01*
X72455Y-60309D01*
X70711Y-59780D01*
X69633Y-59673D01*
X69335Y-59272D01*
X69378Y-59055D01*
X69191Y-58118D01*
X68661Y-57324D01*
X67866Y-56793D01*
X66929Y-56607D01*
X65992Y-56793D01*
X65286Y-57265D01*
X64961Y-57303D01*
X64636Y-57265D01*
X63929Y-56793D01*
X62992Y-56607D01*
X62055Y-56793D01*
X61261Y-57324D01*
X60730Y-58118D01*
X60544Y-59055D01*
X60730Y-59992D01*
X61261Y-60787D01*
X62055Y-61317D01*
X62624Y-61431D01*
X62759Y-61967D01*
X62324Y-62324D01*
X61168Y-63733D01*
X60309Y-65340D01*
X59780Y-67084D01*
X59601Y-68898D01*
X59660Y-69494D01*
X59174Y-69668D01*
X58818Y-69135D01*
X58024Y-68604D01*
X57087Y-68418D01*
X56150Y-68604D01*
X55355Y-69135D01*
X54824Y-69929D01*
X54638Y-70866D01*
X54824Y-71803D01*
X55355Y-72598D01*
X56150Y-73128D01*
X57087Y-73315D01*
X58024Y-73128D01*
X58818Y-72598D01*
X59349Y-71803D01*
X59444Y-71327D01*
X59958Y-71301D01*
X60309Y-72455D01*
X61168Y-74063D01*
X62324Y-75471D01*
X63023Y-76046D01*
X62855Y-76516D01*
X35162D01*
X35088Y-76016D01*
X36265Y-75659D01*
X37531Y-74983D01*
X38640Y-74073D01*
X39550Y-72964D01*
X40226Y-71698D01*
X40643Y-70325D01*
X40783Y-68898D01*
X40643Y-67470D01*
X40226Y-66097D01*
X39550Y-64832D01*
X38640Y-63722D01*
X37531Y-62812D01*
X36265Y-62136D01*
X34892Y-61720D01*
X33465Y-61579D01*
X32037Y-61720D01*
X30664Y-62136D01*
X29399Y-62812D01*
X28289Y-63722D01*
X27379Y-64832D01*
X26703Y-66097D01*
X26287Y-67470D01*
X26146Y-68898D01*
X26287Y-70325D01*
X26703Y-71698D01*
X27379Y-72964D01*
X28289Y-74073D01*
X29399Y-74983D01*
X30664Y-75659D01*
X31841Y-76016D01*
X31767Y-76516D01*
X-7555D01*
X-7801Y-76016D01*
X-7340Y-75416D01*
X-6825Y-74171D01*
X-6649Y-72835D01*
X-6825Y-71499D01*
X-7340Y-70253D01*
X-8161Y-69184D01*
X-9230Y-68364D01*
X-10475Y-67848D01*
X-11811Y-67672D01*
X-13147Y-67848D01*
X-14392Y-68364D01*
X-15461Y-69184D01*
X-16282Y-70253D01*
X-16727Y-71329D01*
X-17803D01*
X-17954Y-71103D01*
X-18748Y-70572D01*
X-19685Y-70386D01*
X-20622Y-70572D01*
X-21417Y-71103D01*
X-21715Y-71551D01*
X-22255Y-71525D01*
X-22505Y-71106D01*
X-22277Y-70765D01*
X-22101Y-69882D01*
Y-65551D01*
X-22266Y-64725D01*
X-22096Y-64519D01*
X-21889Y-64349D01*
X-21063Y-64513D01*
X-16732D01*
X-15849Y-64337D01*
X-15100Y-63837D01*
X-14884Y-63513D01*
X-8772D01*
X-8621Y-63739D01*
X-7827Y-64270D01*
X-6890Y-64456D01*
X-5953Y-64270D01*
X-5158Y-63739D01*
X-4628Y-62945D01*
X-4441Y-62008D01*
X-4628Y-61071D01*
X-5158Y-60276D01*
X-5953Y-59746D01*
X-6890Y-59559D01*
X-7078Y-59597D01*
X-7431Y-59243D01*
X-7394Y-59055D01*
X-7395Y-59048D01*
X-7078Y-58661D01*
X-3347D01*
Y-57214D01*
X-2559D01*
Y-58661D01*
X-1505D01*
Y-59449D01*
X-2559D01*
Y-65354D01*
X-2378D01*
Y-67020D01*
X2378D01*
Y-65354D01*
X2559D01*
Y-59449D01*
X1505D01*
Y-58661D01*
X2559D01*
Y-53543D01*
Y-48103D01*
X2559Y-47638D01*
X2559D01*
X2559Y-47638D01*
X2498Y-47413D01*
X2437Y-47188D01*
X2354Y-46768D01*
X2262Y-46307D01*
X1731Y-45513D01*
X1031Y-45045D01*
X1025Y-45041D01*
X1025Y-45041D01*
X937Y-44982D01*
X789Y-44939D01*
X591Y-44882D01*
X591D01*
X591Y-44882D01*
Y-38976D01*
X410D01*
Y-37311D01*
X-4346D01*
Y-38976D01*
X-4528D01*
Y-40424D01*
X-5315D01*
Y-39764D01*
Y-33858D01*
X-6904D01*
X-7074Y-33358D01*
X-6473Y-32897D01*
X-5716Y-31910D01*
X-5240Y-30761D01*
X-5077Y-29528D01*
X-5240Y-28294D01*
X-5716Y-27145D01*
X-6473Y-26158D01*
X-7460Y-25401D01*
X-8337Y-25037D01*
Y-20276D01*
X-7283D01*
Y-20095D01*
X-5421D01*
Y-17323D01*
X-4421D01*
Y-20095D01*
X-2543D01*
Y-20095D01*
X-2378D01*
Y-20095D01*
X-500D01*
Y-17323D01*
X500D01*
Y-20095D01*
X2362D01*
Y-20276D01*
X3408D01*
X3584Y-20606D01*
X3632Y-20776D01*
X3457Y-21654D01*
X3643Y-22591D01*
X3908Y-22987D01*
Y-26380D01*
X3435Y-26540D01*
X3240Y-26287D01*
X2291Y-25559D01*
X1186Y-25101D01*
X500Y-25011D01*
Y-29528D01*
X0D01*
Y-30028D01*
X-4517D01*
X-4426Y-30714D01*
X-3969Y-31819D01*
X-3240Y-32768D01*
X-2291Y-33496D01*
X-2187Y-33539D01*
X-2286Y-34039D01*
X-4346D01*
Y-36311D01*
X410D01*
Y-34056D01*
X1186Y-33954D01*
X2291Y-33496D01*
X3240Y-32768D01*
X3435Y-32515D01*
X3908Y-32675D01*
Y-33465D01*
X4023Y-34041D01*
X4349Y-34529D01*
X4400Y-34580D01*
Y-47638D01*
X3347D01*
Y-53543D01*
Y-58661D01*
X4400D01*
Y-63078D01*
X4174Y-63229D01*
X3643Y-64024D01*
X3457Y-64961D01*
X3643Y-65898D01*
X4174Y-66692D01*
X4969Y-67223D01*
X5906Y-67409D01*
X6843Y-67223D01*
X7637Y-66692D01*
X8168Y-65898D01*
X8354Y-64961D01*
X8168Y-64024D01*
X7637Y-63229D01*
X7411Y-63078D01*
Y-58661D01*
X8465D01*
Y-53543D01*
Y-47638D01*
X7411D01*
Y-34175D01*
X7801Y-33859D01*
X7896Y-33835D01*
X8609Y-34130D01*
X9843Y-34293D01*
X11076Y-34130D01*
X12225Y-33654D01*
X13212Y-32897D01*
X13376Y-32684D01*
X13849Y-32845D01*
Y-33952D01*
X13486Y-34496D01*
X13299Y-35433D01*
X13486Y-36370D01*
X14017Y-37165D01*
X14811Y-37695D01*
X15748Y-37882D01*
X16175Y-37797D01*
X16582Y-38088D01*
X16667Y-38738D01*
X17183Y-39983D01*
X18003Y-41052D01*
X19072Y-41872D01*
X20317Y-42388D01*
X21654Y-42564D01*
X22990Y-42388D01*
X24235Y-41872D01*
X25304Y-41052D01*
X26124Y-39983D01*
X26640Y-38738D01*
X26816Y-37402D01*
X26640Y-36066D01*
X26124Y-34820D01*
X25304Y-33751D01*
X24235Y-32931D01*
X23159Y-32485D01*
Y-19599D01*
X23385Y-19448D01*
X23916Y-18654D01*
X24102Y-17717D01*
X23916Y-16780D01*
X23385Y-15985D01*
X23159Y-15834D01*
Y-13780D01*
X23044Y-13204D01*
X22718Y-12715D01*
X20749Y-10747D01*
X20261Y-10420D01*
X19685Y-10306D01*
X19291D01*
Y-9252D01*
X8268D01*
Y-10306D01*
X7480D01*
Y-9252D01*
X4097D01*
X3328Y-8483D01*
X2840Y-8157D01*
X2264Y-8042D01*
X1957D01*
X1795Y-7542D01*
X2262Y-6843D01*
X2449Y-5906D01*
X2262Y-4969D01*
X2389Y-4550D01*
X2581Y-4471D01*
X3650Y-3650D01*
X4471Y-2581D01*
X4749Y-1910D01*
X5290D01*
X5530Y-2490D01*
X6321Y-3521D01*
X7353Y-4312D01*
X8554Y-4810D01*
X9342Y-4914D01*
Y0D01*
Y4914D01*
X8554Y4810D01*
X7353Y4312D01*
X6321Y3521D01*
X5530Y2490D01*
X5290Y1910D01*
X4749D01*
X4471Y2581D01*
X3650Y3650D01*
X2581Y4471D01*
X1336Y4986D01*
X0Y5162D01*
X-1336Y4986D01*
X-2581Y4471D01*
X-3650Y3650D01*
X-4471Y2581D01*
X-4671Y2097D01*
X-5171D01*
X-5372Y2581D01*
X-6192Y3650D01*
X-7261Y4471D01*
X-8506Y4986D01*
X-9843Y5162D01*
X-11179Y4986D01*
X-12424Y4471D01*
X-13493Y3650D01*
X-14313Y2581D01*
X-14829Y1336D01*
X-15005Y0D01*
X-14829Y-1336D01*
X-14383Y-2412D01*
X-21340Y-9369D01*
X-21666Y-9857D01*
X-21781Y-10433D01*
Y-15157D01*
X-23228D01*
Y-16029D01*
X-23728Y-16181D01*
X-23859Y-15985D01*
X-24654Y-15454D01*
X-25591Y-15268D01*
X-26528Y-15454D01*
X-27322Y-15985D01*
X-27853Y-16780D01*
X-28039Y-17717D01*
X-27853Y-18654D01*
X-27322Y-19448D01*
X-26662Y-19889D01*
X-26518Y-20452D01*
X-26772Y-20707D01*
X-27099Y-21195D01*
X-27213Y-21771D01*
Y-24603D01*
X-27099Y-25179D01*
X-27096Y-25183D01*
Y-25503D01*
X-27596Y-25881D01*
X-28190Y-25763D01*
X-29120Y-25948D01*
X-29907Y-26474D01*
X-30433Y-27261D01*
X-30618Y-28190D01*
X-30433Y-29120D01*
X-29973Y-29809D01*
X-30142Y-30178D01*
X-30221Y-30269D01*
X-30709Y-30172D01*
X-31592Y-30348D01*
X-32341Y-30848D01*
X-32504Y-30881D01*
X-33046Y-30518D01*
X-33358Y-30456D01*
Y-34646D01*
Y-39027D01*
X-33093Y-39292D01*
X-33157Y-39614D01*
X-32971Y-40551D01*
X-32440Y-41346D01*
X-31646Y-41876D01*
X-30709Y-42063D01*
X-29772Y-41876D01*
X-28977Y-41346D01*
X-28446Y-40551D01*
X-28260Y-39614D01*
X-28304Y-39395D01*
X-27950Y-39041D01*
X-27559Y-39119D01*
X-26676Y-38943D01*
X-26069Y-38538D01*
X-25692Y-38752D01*
X-25632Y-39251D01*
X-32092Y-45712D01*
X-32587Y-45660D01*
X-32682Y-45431D01*
X-33187Y-44773D01*
X-38592Y-39368D01*
X-38488Y-38765D01*
X-38295Y-38674D01*
X-37891Y-38943D01*
X-37008Y-39119D01*
X-36125Y-38943D01*
X-35376Y-38443D01*
X-35213Y-38411D01*
X-34671Y-38773D01*
X-34358Y-38835D01*
Y-34646D01*
Y-30264D01*
X-34623Y-29999D01*
X-34559Y-29677D01*
X-34746Y-28740D01*
X-34967Y-28409D01*
X-34731Y-27968D01*
X-34039D01*
Y-26091D01*
X-36811D01*
Y-25091D01*
X-34039D01*
Y-23213D01*
X-36647D01*
X-36836Y-23047D01*
X-36958Y-22713D01*
X-36909Y-22654D01*
X-36902D01*
X-34555D01*
Y-19685D01*
Y-16716D01*
X-36902D01*
X-36977D01*
X-37402Y-16535D01*
X-37459D01*
X-37646Y-16535D01*
X-38540D01*
Y-12135D01*
X-35840Y-9435D01*
X-35362Y-8719D01*
X-35194Y-7874D01*
Y-6200D01*
X-34753Y-5965D01*
X-34402Y-6199D01*
X-33719Y-6335D01*
X-33583Y-7018D01*
X-33052Y-7812D01*
X-32258Y-8343D01*
X-31321Y-8529D01*
X-30384Y-8343D01*
X-29590Y-7812D01*
X-29059Y-7018D01*
X-28872Y-6081D01*
X-29059Y-5144D01*
X-29590Y-4349D01*
X-30384Y-3818D01*
X-31067Y-3683D01*
X-31202Y-3000D01*
X-31733Y-2206D01*
X-32528Y-1675D01*
X-33465Y-1488D01*
X-34402Y-1675D01*
X-34753Y-1909D01*
X-35194Y-1674D01*
Y1054D01*
X-20739Y15509D01*
X-10861D01*
X-10780Y15454D01*
X-9843Y15268D01*
X-8906Y15454D01*
X-8111Y15985D01*
X-7580Y16780D01*
X-7491Y17230D01*
X-2518Y22203D01*
X-2083Y22854D01*
X-2057Y22981D01*
X-1930Y23622D01*
Y39370D01*
X-2057Y40011D01*
X-2083Y40138D01*
X-2518Y40789D01*
X-7835Y46107D01*
Y56126D01*
X-7335Y56277D01*
X-6963Y55721D01*
X-6176Y55194D01*
X-5247Y55009D01*
X-4318Y55194D01*
X-3530Y55721D01*
X-3004Y56508D01*
X-2819Y57437D01*
X-3004Y58366D01*
X-3530Y59154D01*
X-4318Y59680D01*
X-5247Y59865D01*
X-6176Y59680D01*
X-6963Y59154D01*
X-7335Y58597D01*
X-7835Y58749D01*
Y66158D01*
X-7261Y66395D01*
X-6192Y67216D01*
X-5372Y68285D01*
X-4856Y69530D01*
X-4680Y70866D01*
X-4856Y72202D01*
X-5372Y73447D01*
X-6192Y74516D01*
X-7261Y75337D01*
X-8506Y75853D01*
X-9843Y76028D01*
X-11179Y75853D01*
X-12424Y75337D01*
X-13493Y74516D01*
X-14313Y73447D01*
X-14469Y73070D01*
X-19135D01*
X-19488Y73424D01*
Y74559D01*
X-19488Y74746D01*
Y74803D01*
X-19669Y75228D01*
Y75303D01*
Y78043D01*
X-27575D01*
Y75303D01*
Y75228D01*
X-27756Y74803D01*
Y74746D01*
X-27756Y74559D01*
Y73070D01*
X-29528D01*
X-30296Y72917D01*
X-30947Y72482D01*
X-31232Y72197D01*
X-31693Y72244D01*
Y72244D01*
X-31693Y72244D01*
X-40157D01*
Y70905D01*
X-58268D01*
Y76870D01*
X-66732D01*
Y60925D01*
X-58268D01*
Y66891D01*
X-40157D01*
Y65551D01*
X-31693D01*
Y66891D01*
X-30925Y67043D01*
X-30274Y67478D01*
X-28696Y69056D01*
X-27756D01*
Y67323D01*
X-19488D01*
Y69056D01*
X-14633D01*
X-14313Y68285D01*
X-13493Y67216D01*
X-12424Y66395D01*
X-11850Y66158D01*
Y45276D01*
X-11697Y44508D01*
X-11262Y43856D01*
X-5944Y38539D01*
Y31017D01*
X-6418Y30856D01*
X-6473Y30929D01*
X-7460Y31686D01*
X-8609Y32162D01*
X-9843Y32324D01*
X-11076Y32162D01*
X-12225Y31686D01*
X-13212Y30929D01*
X-13969Y29942D01*
X-14445Y28792D01*
X-14608Y27559D01*
X-14445Y26326D01*
X-13969Y25177D01*
X-13212Y24190D01*
X-12225Y23432D01*
X-11076Y22956D01*
X-9843Y22794D01*
X-8609Y22956D01*
X-7823Y23282D01*
X-7539Y22858D01*
X-10329Y20068D01*
X-10780Y19979D01*
X-10861Y19924D01*
X-21654D01*
X-22498Y19756D01*
X-23215Y19278D01*
X-38963Y3530D01*
X-39441Y2813D01*
X-39609Y1969D01*
Y-3003D01*
X-40109Y-3270D01*
X-40508Y-3004D01*
X-41437Y-2819D01*
X-42366Y-3004D01*
X-43154Y-3530D01*
X-43680Y-4318D01*
X-43865Y-5247D01*
X-43680Y-6176D01*
X-43154Y-6963D01*
X-42366Y-7490D01*
X-41437Y-7674D01*
X-40931Y-7574D01*
X-40684Y-8034D01*
X-42309Y-9659D01*
X-42788Y-10376D01*
X-42956Y-11220D01*
Y-11228D01*
X-43456Y-11497D01*
X-44291Y-11331D01*
X-44558Y-11384D01*
X-45195Y-10747D01*
X-45684Y-10420D01*
X-46260Y-10306D01*
X-47047D01*
Y-10236D01*
Y-5512D01*
X-47228D01*
Y-4437D01*
X-51181D01*
Y-3437D01*
X-47228D01*
Y-2362D01*
X-47047D01*
Y1086D01*
X-46547Y1496D01*
X-46508Y1488D01*
X-45571Y1675D01*
X-44776Y2206D01*
X-44246Y3000D01*
X-44059Y3937D01*
X-44246Y4874D01*
X-44776Y5668D01*
X-45571Y6199D01*
X-46508Y6386D01*
X-46661Y6355D01*
X-47047Y6672D01*
Y10236D01*
X-47228D01*
Y11311D01*
X-51181D01*
Y11811D01*
X-51681D01*
Y13992D01*
X-55134D01*
Y12027D01*
X-55634Y11760D01*
X-56150Y12105D01*
X-57086Y12291D01*
X-58024Y12105D01*
X-58358Y11881D01*
X-58858Y12148D01*
Y16142D01*
X-67126D01*
Y16142D01*
X-67146Y16125D01*
X-67665Y16228D01*
X-68602Y16042D01*
X-69397Y15511D01*
X-69928Y14717D01*
X-70051Y14097D01*
X-70866Y14260D01*
X-70891Y14255D01*
X-71329Y14631D01*
Y22643D01*
X-70253Y23088D01*
X-69184Y23909D01*
X-68364Y24978D01*
X-68163Y25462D01*
X-67663D01*
X-67463Y24978D01*
X-66642Y23909D01*
X-65573Y23088D01*
X-64328Y22573D01*
X-62992Y22397D01*
X-61656Y22573D01*
X-60411Y23088D01*
X-59342Y23909D01*
X-58521Y24978D01*
X-58244Y25649D01*
X-57702D01*
X-57462Y25069D01*
X-56671Y24038D01*
X-55639Y23247D01*
X-54438Y22749D01*
X-53650Y22645D01*
Y27559D01*
Y32473D01*
X-54438Y32369D01*
X-55639Y31872D01*
X-56671Y31080D01*
X-57462Y30049D01*
X-57702Y29469D01*
X-58244D01*
X-58521Y30140D01*
X-59342Y31209D01*
X-60411Y32030D01*
X-60985Y32267D01*
Y35236D01*
X-60827D01*
Y43504D01*
X-62954D01*
Y48381D01*
X-53499Y57836D01*
X-40157D01*
Y56496D01*
X-35417D01*
X-32817Y53896D01*
X-32166Y53461D01*
X-31398Y53308D01*
X-27756D01*
Y51575D01*
X-19488D01*
Y58811D01*
X-19488Y58998D01*
Y59055D01*
X-19669Y59480D01*
Y59555D01*
Y62295D01*
X-27575D01*
Y59555D01*
Y59480D01*
X-27756Y59055D01*
Y58998D01*
X-27756Y58811D01*
Y57322D01*
X-30566D01*
X-31693Y58449D01*
Y63189D01*
X-40157D01*
Y61850D01*
X-54331D01*
X-55099Y61697D01*
X-55750Y61262D01*
X-66380Y50632D01*
X-66815Y49981D01*
X-66968Y49213D01*
Y43504D01*
X-69095D01*
Y35236D01*
X-64999D01*
Y32267D01*
X-65573Y32030D01*
X-66642Y31209D01*
X-67463Y30140D01*
X-67663Y29656D01*
X-68163D01*
X-68364Y30140D01*
X-69184Y31209D01*
X-70253Y32030D01*
X-71499Y32545D01*
X-72835Y32721D01*
X-74171Y32545D01*
X-75416Y32030D01*
X-76016Y31569D01*
X-76516Y31815D01*
Y90822D01*
X-76016Y90896D01*
X-75659Y89719D01*
X-74983Y88454D01*
X-74073Y87345D01*
X-72964Y86434D01*
X-71698Y85758D01*
X-70325Y85342D01*
X-68898Y85201D01*
X-67470Y85342D01*
X-66097Y85758D01*
X-64832Y86434D01*
X-63722Y87345D01*
X-62812Y88454D01*
X-62136Y89719D01*
X-61720Y91092D01*
X-61579Y92520D01*
X-61720Y93947D01*
X-62136Y95320D01*
X-62812Y96586D01*
X-63722Y97695D01*
X-64832Y98605D01*
X-65674Y99055D01*
X-65620Y99594D01*
X-65340Y99679D01*
X-63733Y100538D01*
X-62324Y101694D01*
X-61168Y103103D01*
X-60309Y104710D01*
X-59780Y106454D01*
X-59601Y108268D01*
X-59780Y110081D01*
X-60309Y111825D01*
X-61168Y113433D01*
X-62324Y114841D01*
X-63023Y115416D01*
X-62855Y115886D01*
X62855D01*
X63023Y115416D01*
D02*
G37*
%LPC*%
G36*
X50681Y13992D02*
X47228D01*
Y12311D01*
X50681D01*
Y13992D01*
D02*
G37*
G36*
X-41437Y23674D02*
X-42366Y23490D01*
X-43154Y22963D01*
X-43680Y22176D01*
X-43865Y21247D01*
X-43680Y20318D01*
X-43154Y19530D01*
X-42366Y19004D01*
X-41437Y18819D01*
X-40508Y19004D01*
X-39720Y19530D01*
X-39194Y20318D01*
X-39009Y21247D01*
X-39194Y22176D01*
X-39720Y22963D01*
X-40508Y23490D01*
X-41437Y23674D01*
D02*
G37*
G36*
X55134Y13992D02*
X51681D01*
Y12311D01*
X55134D01*
Y13992D01*
D02*
G37*
G36*
X-47228Y13992D02*
X-50681D01*
Y12311D01*
X-47228D01*
Y13992D01*
D02*
G37*
G36*
X-22441Y6340D02*
X-23674Y6178D01*
X-24824Y5702D01*
X-25810Y4944D01*
X-26568Y3957D01*
X-27044Y2808D01*
X-27206Y1575D01*
Y-1575D01*
X-27044Y-2808D01*
X-26568Y-3957D01*
X-25810Y-4944D01*
X-24824Y-5702D01*
X-23674Y-6178D01*
X-22441Y-6340D01*
X-21208Y-6178D01*
X-20058Y-5702D01*
X-19072Y-4944D01*
X-18314Y-3957D01*
X-17838Y-2808D01*
X-17676Y-1575D01*
Y1575D01*
X-17838Y2808D01*
X-18314Y3957D01*
X-19072Y4944D01*
X-20058Y5702D01*
X-21208Y6178D01*
X-22441Y6340D01*
D02*
G37*
G36*
X14756Y-500D02*
X10343D01*
Y-4914D01*
X11131Y-4810D01*
X12332Y-4312D01*
X13364Y-3521D01*
X14155Y-2490D01*
X14652Y-1289D01*
X14756Y-500D01*
D02*
G37*
G36*
X10343Y4914D02*
Y500D01*
X14756D01*
X14652Y1289D01*
X14155Y2490D01*
X13364Y3521D01*
X12332Y4312D01*
X11131Y4810D01*
X10343Y4914D01*
D02*
G37*
G36*
X62992Y30008D02*
X62055Y29821D01*
X61261Y29291D01*
X60730Y28496D01*
X60544Y27559D01*
X60730Y26622D01*
X61261Y25828D01*
X62055Y25297D01*
X62992Y25110D01*
X63929Y25297D01*
X64724Y25828D01*
X65254Y26622D01*
X65441Y27559D01*
X65254Y28496D01*
X64724Y29291D01*
X63929Y29821D01*
X62992Y30008D01*
D02*
G37*
G36*
X33465D02*
X32528Y29821D01*
X31733Y29291D01*
X31202Y28496D01*
X31016Y27559D01*
X31202Y26622D01*
X31733Y25828D01*
X32528Y25297D01*
X33465Y25110D01*
X34402Y25297D01*
X35196Y25828D01*
X35727Y26622D01*
X35913Y27559D01*
X35727Y28496D01*
X35196Y29291D01*
X34402Y29821D01*
X33465Y30008D01*
D02*
G37*
G36*
X28190Y30618D02*
X27261Y30433D01*
X26474Y29907D01*
X25948Y29120D01*
X25763Y28190D01*
X25948Y27261D01*
X26474Y26474D01*
X27261Y25948D01*
X28190Y25763D01*
X29120Y25948D01*
X29907Y26474D01*
X30433Y27261D01*
X30618Y28190D01*
X30433Y29120D01*
X29907Y29907D01*
X29120Y30433D01*
X28190Y30618D01*
D02*
G37*
G36*
X-52650Y32473D02*
Y27559D01*
Y22645D01*
X-51861Y22749D01*
X-50660Y23247D01*
X-49673Y24003D01*
X-49498Y24066D01*
X-49105Y24053D01*
X-48976Y23859D01*
X-48181Y23328D01*
X-47244Y23142D01*
X-46307Y23328D01*
X-45513Y23859D01*
X-44982Y24654D01*
X-44796Y25591D01*
X-44552Y25835D01*
X-44190Y25763D01*
X-43261Y25948D01*
X-42474Y26474D01*
X-41948Y27261D01*
X-41763Y28190D01*
X-41948Y29120D01*
X-42474Y29907D01*
X-43261Y30433D01*
X-44190Y30618D01*
X-45120Y30433D01*
X-45907Y29907D01*
X-46433Y29120D01*
X-46573Y28416D01*
X-47052Y28001D01*
X-47244Y28039D01*
X-47717Y27945D01*
X-48273Y28344D01*
X-48340Y28848D01*
X-48837Y30049D01*
X-49628Y31080D01*
X-50660Y31872D01*
X-51861Y32369D01*
X-52650Y32473D01*
D02*
G37*
G36*
X22153Y28536D02*
Y24122D01*
X26567D01*
X26463Y24911D01*
X25966Y26112D01*
X25175Y27143D01*
X24143Y27935D01*
X22942Y28432D01*
X22153Y28536D01*
D02*
G37*
G36*
X9342Y27059D02*
X5326D01*
X5416Y26373D01*
X5874Y25268D01*
X6602Y24319D01*
X7551Y23591D01*
X8657Y23133D01*
X9342Y23042D01*
Y27059D01*
D02*
G37*
G36*
X57437Y23674D02*
X56508Y23490D01*
X55721Y22963D01*
X55194Y22176D01*
X55009Y21247D01*
X55194Y20318D01*
X55721Y19530D01*
X56508Y19004D01*
X57437Y18819D01*
X58366Y19004D01*
X59154Y19530D01*
X59680Y20318D01*
X59865Y21247D01*
X59680Y22176D01*
X59154Y22963D01*
X58366Y23490D01*
X57437Y23674D01*
D02*
G37*
G36*
X21154Y28536D02*
X20365Y28432D01*
X19164Y27935D01*
X18132Y27143D01*
X17341Y26112D01*
X16844Y24911D01*
X16740Y24122D01*
X21154D01*
Y28536D01*
D02*
G37*
G36*
X14359Y27059D02*
X10343D01*
Y23042D01*
X11029Y23133D01*
X12134Y23591D01*
X13083Y24319D01*
X13811Y25268D01*
X14269Y26373D01*
X14359Y27059D01*
D02*
G37*
G36*
X17717Y-44650D02*
X16779Y-44836D01*
X15985Y-45367D01*
X15454Y-46161D01*
X15268Y-47098D01*
X15333Y-47424D01*
X15157Y-47638D01*
X15157D01*
Y-53543D01*
Y-56597D01*
X14833Y-56765D01*
X14370Y-56480D01*
Y-53543D01*
Y-47638D01*
X14370D01*
X14195Y-47424D01*
X14260Y-47098D01*
X14073Y-46161D01*
X13543Y-45367D01*
X12748Y-44836D01*
X11811Y-44650D01*
X10874Y-44836D01*
X10080Y-45367D01*
X9549Y-46161D01*
X9362Y-47098D01*
X9427Y-47424D01*
X9252Y-47638D01*
X9252D01*
Y-53543D01*
Y-58661D01*
X10306D01*
Y-63078D01*
X10080Y-63229D01*
X9549Y-64024D01*
X9362Y-64961D01*
X9549Y-65898D01*
X10080Y-66692D01*
X10874Y-67223D01*
X11811Y-67409D01*
X12748Y-67223D01*
X13543Y-66692D01*
X14073Y-65898D01*
X14260Y-64961D01*
X14073Y-64024D01*
X13543Y-63229D01*
X13316Y-63078D01*
Y-61081D01*
X13816Y-60929D01*
X13879Y-61023D01*
X14673Y-61554D01*
X15610Y-61740D01*
X15825Y-61697D01*
X16211Y-62015D01*
Y-63078D01*
X15985Y-63229D01*
X15454Y-64024D01*
X15268Y-64961D01*
X15454Y-65898D01*
X15985Y-66692D01*
X16780Y-67223D01*
X17717Y-67409D01*
X18654Y-67223D01*
X19448Y-66692D01*
X19979Y-65898D01*
X20165Y-64961D01*
X19979Y-64024D01*
X19448Y-63229D01*
X19222Y-63078D01*
Y-58661D01*
X20276D01*
Y-53543D01*
Y-47638D01*
X20276D01*
X20100Y-47424D01*
X20165Y-47098D01*
X19979Y-46161D01*
X19448Y-45367D01*
X18654Y-44836D01*
X17717Y-44650D01*
D02*
G37*
G36*
X-67103Y-53965D02*
X-70524D01*
Y-57386D01*
X-69992Y-57316D01*
X-69030Y-56917D01*
X-68204Y-56284D01*
X-67571Y-55458D01*
X-67173Y-54497D01*
X-67103Y-53965D01*
D02*
G37*
G36*
X-71524Y-49543D02*
X-72056Y-49614D01*
X-73017Y-50012D01*
X-73843Y-50645D01*
X-74476Y-51471D01*
X-74875Y-52433D01*
X-74945Y-52965D01*
X-71524D01*
Y-49543D01*
D02*
G37*
G36*
X57086Y-50701D02*
X56150Y-50887D01*
X55355Y-51418D01*
X54824Y-52213D01*
X54638Y-53149D01*
X54824Y-54087D01*
X55355Y-54881D01*
X56150Y-55412D01*
X57086Y-55598D01*
X58024Y-55412D01*
X58818Y-54881D01*
X59349Y-54087D01*
X59535Y-53149D01*
X59349Y-52213D01*
X58818Y-51418D01*
X58024Y-50887D01*
X57086Y-50701D01*
D02*
G37*
G36*
X-71524Y-53965D02*
X-74945D01*
X-74875Y-54497D01*
X-74476Y-55458D01*
X-73843Y-56284D01*
X-73017Y-56917D01*
X-72056Y-57316D01*
X-71524Y-57386D01*
Y-53965D01*
D02*
G37*
G36*
X2378Y-68020D02*
X500D01*
Y-70291D01*
X2378D01*
Y-68020D01*
D02*
G37*
G36*
X-500D02*
X-2378D01*
Y-70291D01*
X-500D01*
Y-68020D01*
D02*
G37*
G36*
X49213Y-54638D02*
X48276Y-54824D01*
X47481Y-55355D01*
X46950Y-56150D01*
X46764Y-57087D01*
X46950Y-58024D01*
X47481Y-58818D01*
X48276Y-59349D01*
X49213Y-59535D01*
X50150Y-59349D01*
X50944Y-58818D01*
X51475Y-58024D01*
X51661Y-57087D01*
X51475Y-56150D01*
X50944Y-55355D01*
X50150Y-54824D01*
X49213Y-54638D01*
D02*
G37*
G36*
X23622Y-44650D02*
X22685Y-44836D01*
X21891Y-45367D01*
X21360Y-46161D01*
X21173Y-47098D01*
X21238Y-47424D01*
X21063Y-47638D01*
X21063D01*
Y-53543D01*
Y-58661D01*
X22117D01*
Y-63078D01*
X21891Y-63229D01*
X21360Y-64024D01*
X21173Y-64961D01*
X21360Y-65898D01*
X21891Y-66692D01*
X22685Y-67223D01*
X23622Y-67409D01*
X24559Y-67223D01*
X25354Y-66692D01*
X25884Y-65898D01*
X26071Y-64961D01*
X25884Y-64024D01*
X25354Y-63229D01*
X25127Y-63078D01*
Y-58661D01*
X26181D01*
Y-53543D01*
Y-47638D01*
X26181D01*
X26006Y-47424D01*
X26071Y-47098D01*
X25884Y-46161D01*
X25354Y-45367D01*
X24559Y-44836D01*
X23622Y-44650D01*
D02*
G37*
G36*
X47244Y-19205D02*
X46307Y-19391D01*
X45513Y-19922D01*
X44982Y-20717D01*
X44796Y-21654D01*
X44982Y-22591D01*
X45513Y-23385D01*
X46307Y-23916D01*
X47244Y-24102D01*
X48181Y-23916D01*
X48976Y-23385D01*
X49506Y-22591D01*
X49693Y-21654D01*
X49506Y-20717D01*
X48976Y-19922D01*
X48181Y-19391D01*
X47244Y-19205D01*
D02*
G37*
G36*
X-500Y-25011D02*
X-1186Y-25101D01*
X-2291Y-25559D01*
X-3240Y-26287D01*
X-3969Y-27236D01*
X-4426Y-28341D01*
X-4517Y-29028D01*
X-500D01*
Y-25011D01*
D02*
G37*
G36*
X-33555Y-16716D02*
Y-19185D01*
X-30890D01*
Y-16716D01*
X-33555D01*
D02*
G37*
G36*
X-30890Y-20185D02*
X-33555D01*
Y-22654D01*
X-30890D01*
Y-20185D01*
D02*
G37*
G36*
X44190Y-25763D02*
X43261Y-25948D01*
X42474Y-26474D01*
X41948Y-27261D01*
X41763Y-28190D01*
X41948Y-29120D01*
X42474Y-29907D01*
X43261Y-30433D01*
X44190Y-30618D01*
X45120Y-30433D01*
X45907Y-29907D01*
X46433Y-29120D01*
X46618Y-28190D01*
X46433Y-27261D01*
X45907Y-26474D01*
X45120Y-25948D01*
X44190Y-25763D01*
D02*
G37*
G36*
X28190Y-41763D02*
X27261Y-41948D01*
X26474Y-42474D01*
X25948Y-43261D01*
X25763Y-44190D01*
X25948Y-45120D01*
X26474Y-45907D01*
X27261Y-46433D01*
X28190Y-46618D01*
X29120Y-46433D01*
X29907Y-45907D01*
X30433Y-45120D01*
X30618Y-44190D01*
X30433Y-43261D01*
X29907Y-42474D01*
X29120Y-41948D01*
X28190Y-41763D01*
D02*
G37*
G36*
X-70524Y-49543D02*
Y-52965D01*
X-67103D01*
X-67173Y-52433D01*
X-67571Y-51471D01*
X-68204Y-50645D01*
X-69030Y-50012D01*
X-69992Y-49614D01*
X-70524Y-49543D01*
D02*
G37*
G36*
X51181Y-38145D02*
X49845Y-38321D01*
X48600Y-38836D01*
X47531Y-39657D01*
X46710Y-40726D01*
X46510Y-41210D01*
X46010D01*
X45809Y-40726D01*
X44989Y-39657D01*
X43920Y-38836D01*
X42675Y-38321D01*
X41339Y-38145D01*
X40003Y-38321D01*
X38757Y-38836D01*
X37688Y-39657D01*
X36868Y-40726D01*
X36352Y-41971D01*
X36176Y-43307D01*
X36352Y-44643D01*
X36868Y-45888D01*
X37688Y-46957D01*
X38757Y-47778D01*
X38949Y-47857D01*
X39076Y-48276D01*
X38890Y-49213D01*
X39076Y-50150D01*
X39607Y-50944D01*
X40402Y-51475D01*
X41339Y-51661D01*
X42276Y-51475D01*
X43070Y-50944D01*
X43601Y-50150D01*
X43787Y-49213D01*
X43601Y-48276D01*
X43728Y-47857D01*
X43920Y-47778D01*
X44989Y-46957D01*
X45809Y-45888D01*
X46010Y-45404D01*
X46510D01*
X46710Y-45888D01*
X47531Y-46957D01*
X48600Y-47778D01*
X48792Y-47857D01*
X48919Y-48276D01*
X48733Y-49213D01*
X48919Y-50150D01*
X49450Y-50944D01*
X50244Y-51475D01*
X51181Y-51661D01*
X52118Y-51475D01*
X52912Y-50944D01*
X53443Y-50150D01*
X53630Y-49213D01*
X53443Y-48276D01*
X53570Y-47857D01*
X53762Y-47778D01*
X54831Y-46957D01*
X55652Y-45888D01*
X56168Y-44643D01*
X56343Y-43307D01*
X56168Y-41971D01*
X55652Y-40726D01*
X54831Y-39657D01*
X53762Y-38836D01*
X52517Y-38321D01*
X51181Y-38145D01*
D02*
G37*
G36*
X60524Y-37902D02*
X56110D01*
X56214Y-38690D01*
X56711Y-39891D01*
X57503Y-40923D01*
X58534Y-41714D01*
X59735Y-42211D01*
X60524Y-42315D01*
Y-37902D01*
D02*
G37*
G36*
X-37402Y31976D02*
X-38339Y31790D01*
X-39133Y31259D01*
X-39664Y30465D01*
X-39850Y29528D01*
X-39664Y28591D01*
X-39133Y27796D01*
X-38339Y27265D01*
X-37402Y27079D01*
X-36465Y27265D01*
X-35670Y27796D01*
X-35139Y28591D01*
X-34953Y29528D01*
X-35139Y30465D01*
X-35670Y31259D01*
X-36465Y31790D01*
X-37402Y31976D01*
D02*
G37*
G36*
X-19669Y82102D02*
X-23122D01*
Y79043D01*
X-19669D01*
Y82102D01*
D02*
G37*
G36*
X-24122D02*
X-27575D01*
Y79043D01*
X-24122D01*
Y82102D01*
D02*
G37*
G36*
X-37528Y94822D02*
X-38457Y94637D01*
X-39244Y94110D01*
X-39770Y93323D01*
X-39955Y92394D01*
X-39770Y91465D01*
X-39244Y90677D01*
X-38457Y90151D01*
X-37528Y89966D01*
X-36599Y90151D01*
X-35811Y90677D01*
X-35285Y91465D01*
X-35100Y92394D01*
X-35285Y93323D01*
X-35811Y94110D01*
X-36599Y94637D01*
X-37528Y94822D01*
D02*
G37*
G36*
X-57213D02*
X-58142Y94637D01*
X-58929Y94110D01*
X-59456Y93323D01*
X-59640Y92394D01*
X-59456Y91465D01*
X-58929Y90677D01*
X-58142Y90151D01*
X-57213Y89966D01*
X-56283Y90151D01*
X-55496Y90677D01*
X-54970Y91465D01*
X-54785Y92394D01*
X-54970Y93323D01*
X-55496Y94110D01*
X-56283Y94637D01*
X-57213Y94822D01*
D02*
G37*
G36*
X-31874Y81118D02*
X-35425D01*
Y78453D01*
X-31874D01*
Y81118D01*
D02*
G37*
G36*
X-36425Y77453D02*
X-39976D01*
Y74787D01*
X-36425D01*
Y77453D01*
D02*
G37*
G36*
X49425Y82982D02*
X12074D01*
Y70623D01*
X49425D01*
Y82982D01*
D02*
G37*
G36*
X-36425Y81118D02*
X-39976D01*
Y78453D01*
X-36425D01*
Y81118D01*
D02*
G37*
G36*
X-31874Y77453D02*
X-35425D01*
Y74787D01*
X-31874D01*
Y77453D01*
D02*
G37*
G36*
X-1843Y110821D02*
X-2772Y110637D01*
X-3559Y110110D01*
X-4086Y109323D01*
X-4270Y108394D01*
X-4086Y107465D01*
X-3559Y106677D01*
X-2772Y106151D01*
X-1843Y105966D01*
X-914Y106151D01*
X-126Y106677D01*
X400Y107465D01*
X585Y108394D01*
X400Y109323D01*
X-126Y110110D01*
X-914Y110637D01*
X-1843Y110821D01*
D02*
G37*
G36*
X-21528D02*
X-22457Y110637D01*
X-23244Y110110D01*
X-23771Y109323D01*
X-23955Y108394D01*
X-23771Y107465D01*
X-23244Y106677D01*
X-22457Y106151D01*
X-21528Y105966D01*
X-20598Y106151D01*
X-19811Y106677D01*
X-19285Y107465D01*
X-19100Y108394D01*
X-19285Y109323D01*
X-19811Y110110D01*
X-20598Y110637D01*
X-21528Y110821D01*
D02*
G37*
G36*
X37528D02*
X36599Y110637D01*
X35811Y110110D01*
X35285Y109323D01*
X35100Y108394D01*
X35285Y107465D01*
X35811Y106677D01*
X36599Y106151D01*
X37528Y105966D01*
X38457Y106151D01*
X39244Y106677D01*
X39770Y107465D01*
X39955Y108394D01*
X39770Y109323D01*
X39244Y110110D01*
X38457Y110637D01*
X37528Y110821D01*
D02*
G37*
G36*
X17842D02*
X16914Y110637D01*
X16126Y110110D01*
X15600Y109323D01*
X15415Y108394D01*
X15600Y107465D01*
X16126Y106677D01*
X16914Y106151D01*
X17842Y105966D01*
X18772Y106151D01*
X19559Y106677D01*
X20086Y107465D01*
X20270Y108394D01*
X20086Y109323D01*
X19559Y110110D01*
X18772Y110637D01*
X17842Y110821D01*
D02*
G37*
G36*
X-41213D02*
X-42142Y110637D01*
X-42929Y110110D01*
X-43455Y109323D01*
X-43640Y108394D01*
X-43455Y107465D01*
X-42929Y106677D01*
X-42142Y106151D01*
X-41213Y105966D01*
X-40284Y106151D01*
X-39496Y106677D01*
X-38970Y107465D01*
X-38785Y108394D01*
X-38970Y109323D01*
X-39496Y110110D01*
X-40284Y110637D01*
X-41213Y110821D01*
D02*
G37*
G36*
X1843Y94822D02*
X914Y94637D01*
X126Y94110D01*
X-400Y93323D01*
X-585Y92394D01*
X-400Y91465D01*
X126Y90677D01*
X914Y90151D01*
X1843Y89966D01*
X2772Y90151D01*
X3559Y90677D01*
X4086Y91465D01*
X4270Y92394D01*
X4086Y93323D01*
X3559Y94110D01*
X2772Y94637D01*
X1843Y94822D01*
D02*
G37*
G36*
X-17842D02*
X-18772Y94637D01*
X-19559Y94110D01*
X-20086Y93323D01*
X-20270Y92394D01*
X-20086Y91465D01*
X-19559Y90677D01*
X-18772Y90151D01*
X-17842Y89966D01*
X-16914Y90151D01*
X-16126Y90677D01*
X-15600Y91465D01*
X-15415Y92394D01*
X-15600Y93323D01*
X-16126Y94110D01*
X-16914Y94637D01*
X-17842Y94822D01*
D02*
G37*
G36*
X41213D02*
X40284Y94637D01*
X39496Y94110D01*
X38970Y93323D01*
X38785Y92394D01*
X38970Y91465D01*
X39496Y90677D01*
X40284Y90151D01*
X41213Y89966D01*
X42142Y90151D01*
X42929Y90677D01*
X43455Y91465D01*
X43640Y92394D01*
X43455Y93323D01*
X42929Y94110D01*
X42142Y94637D01*
X41213Y94822D01*
D02*
G37*
G36*
X21528D02*
X20598Y94637D01*
X19811Y94110D01*
X19285Y93323D01*
X19100Y92394D01*
X19285Y91465D01*
X19811Y90677D01*
X20598Y90151D01*
X21528Y89966D01*
X22457Y90151D01*
X23244Y90677D01*
X23771Y91465D01*
X23955Y92394D01*
X23771Y93323D01*
X23244Y94110D01*
X22457Y94637D01*
X21528Y94822D01*
D02*
G37*
G36*
X-51040Y38870D02*
X-54461D01*
Y35449D01*
X-53929Y35519D01*
X-52967Y35917D01*
X-52141Y36551D01*
X-51508Y37377D01*
X-51110Y38338D01*
X-51040Y38870D01*
D02*
G37*
G36*
X-55461D02*
X-58882D01*
X-58812Y38338D01*
X-58413Y37377D01*
X-57780Y36551D01*
X-56954Y35917D01*
X-55993Y35519D01*
X-55461Y35449D01*
Y38870D01*
D02*
G37*
G36*
Y43291D02*
X-55993Y43221D01*
X-56954Y42823D01*
X-57780Y42189D01*
X-58413Y41363D01*
X-58812Y40402D01*
X-58882Y39870D01*
X-55461D01*
Y43291D01*
D02*
G37*
G36*
X-21247Y43865D02*
X-22176Y43680D01*
X-22963Y43154D01*
X-23490Y42366D01*
X-23674Y41437D01*
X-23490Y40508D01*
X-22963Y39720D01*
X-22176Y39194D01*
X-21247Y39009D01*
X-20318Y39194D01*
X-19530Y39720D01*
X-19004Y40508D01*
X-18819Y41437D01*
X-19004Y42366D01*
X-19530Y43154D01*
X-20318Y43680D01*
X-21247Y43865D01*
D02*
G37*
G36*
X64961Y39850D02*
X64024Y39664D01*
X63229Y39133D01*
X62698Y38339D01*
X62512Y37402D01*
X62698Y36465D01*
X63229Y35670D01*
X64024Y35139D01*
X64961Y34953D01*
X65898Y35139D01*
X66692Y35670D01*
X67223Y36465D01*
X67409Y37402D01*
X67223Y38339D01*
X66692Y39133D01*
X65898Y39664D01*
X64961Y39850D01*
D02*
G37*
G36*
X10343Y32076D02*
Y28059D01*
X14359D01*
X14269Y28745D01*
X13811Y29850D01*
X13083Y30799D01*
X12134Y31528D01*
X11029Y31985D01*
X10343Y32076D01*
D02*
G37*
G36*
X9342D02*
X8657Y31985D01*
X7551Y31528D01*
X6602Y30799D01*
X5874Y29850D01*
X5416Y28745D01*
X5326Y28059D01*
X9342D01*
Y32076D01*
D02*
G37*
G36*
X51279Y39850D02*
X50343Y39664D01*
X49548Y39133D01*
X49017Y38339D01*
X48831Y37402D01*
X49017Y36465D01*
X49548Y35670D01*
X50343Y35139D01*
X51279Y34953D01*
X52217Y35139D01*
X53011Y35670D01*
X53542Y36465D01*
X53728Y37402D01*
X53542Y38339D01*
X53011Y39133D01*
X52217Y39664D01*
X51279Y39850D01*
D02*
G37*
G36*
X20768Y34634D02*
X19831Y34447D01*
X19036Y33917D01*
X18506Y33122D01*
X18319Y32185D01*
X18506Y31248D01*
X19036Y30454D01*
X19831Y29923D01*
X20768Y29736D01*
X21705Y29923D01*
X22499Y30454D01*
X23030Y31248D01*
X23216Y32185D01*
X23030Y33122D01*
X22499Y33917D01*
X21705Y34447D01*
X20768Y34634D01*
D02*
G37*
G36*
X45972Y69565D02*
X25493D01*
Y62231D01*
X45972D01*
Y69565D01*
D02*
G37*
G36*
X21247Y59865D02*
X20318Y59680D01*
X19530Y59154D01*
X19004Y58366D01*
X18819Y57437D01*
X19004Y56508D01*
X19530Y55721D01*
X20318Y55194D01*
X21247Y55009D01*
X22176Y55194D01*
X22963Y55721D01*
X23490Y56508D01*
X23674Y57437D01*
X23490Y58366D01*
X22963Y59154D01*
X22176Y59680D01*
X21247Y59865D01*
D02*
G37*
G36*
X-19669Y66354D02*
X-23122D01*
Y63295D01*
X-19669D01*
Y66354D01*
D02*
G37*
G36*
X-24122D02*
X-27575D01*
Y63295D01*
X-24122D01*
Y66354D01*
D02*
G37*
G36*
X8405Y47429D02*
X7468Y47243D01*
X6673Y46712D01*
X6142Y45917D01*
X5956Y44980D01*
X6111Y44203D01*
X5841Y43845D01*
X5726Y43770D01*
X5247Y43865D01*
X4318Y43680D01*
X3530Y43154D01*
X3004Y42366D01*
X2819Y41437D01*
X3004Y40508D01*
X3530Y39720D01*
X4318Y39194D01*
X5247Y39009D01*
X6176Y39194D01*
X6963Y39720D01*
X7490Y40508D01*
X7674Y41437D01*
X7523Y42197D01*
X7806Y42566D01*
X7908Y42630D01*
X8405Y42532D01*
X9342Y42718D01*
X10136Y43249D01*
X10667Y44043D01*
X10853Y44980D01*
X10667Y45917D01*
X10136Y46712D01*
X9342Y47243D01*
X8405Y47429D01*
D02*
G37*
G36*
X44190Y46618D02*
X43261Y46433D01*
X42474Y45907D01*
X41948Y45120D01*
X41763Y44190D01*
X41948Y43261D01*
X42474Y42474D01*
X43261Y41948D01*
X44190Y41763D01*
X45120Y41948D01*
X45907Y42474D01*
X46433Y43261D01*
X46618Y44190D01*
X46433Y45120D01*
X45907Y45907D01*
X45120Y46433D01*
X44190Y46618D01*
D02*
G37*
G36*
X-54461Y43291D02*
Y39870D01*
X-51040D01*
X-51110Y40402D01*
X-51508Y41363D01*
X-52141Y42189D01*
X-52967Y42823D01*
X-53929Y43221D01*
X-54461Y43291D01*
D02*
G37*
G36*
X-28190Y46618D02*
X-29120Y46433D01*
X-29907Y45907D01*
X-30433Y45120D01*
X-30618Y44190D01*
X-30604Y44120D01*
X-31029Y43694D01*
X-31496Y43787D01*
X-32433Y43601D01*
X-33228Y43070D01*
X-33758Y42276D01*
X-33945Y41339D01*
X-33758Y40402D01*
X-33228Y39607D01*
X-32433Y39076D01*
X-31496Y38890D01*
X-30559Y39076D01*
X-29765Y39607D01*
X-29234Y40402D01*
X-29047Y41339D01*
X-29065Y41427D01*
X-28640Y41852D01*
X-28190Y41763D01*
X-27261Y41948D01*
X-26474Y42474D01*
X-25948Y43261D01*
X-25763Y44190D01*
X-25948Y45120D01*
X-26474Y45907D01*
X-27261Y46433D01*
X-28190Y46618D01*
D02*
G37*
G36*
X35433Y47724D02*
X34496Y47538D01*
X33702Y47007D01*
X33171Y46213D01*
X32984Y45276D01*
X33171Y44339D01*
X33702Y43544D01*
X34496Y43013D01*
X35433Y42827D01*
X36370Y43013D01*
X37165Y43544D01*
X37695Y44339D01*
X37882Y45276D01*
X37695Y46213D01*
X37165Y47007D01*
X36370Y47538D01*
X35433Y47724D01*
D02*
G37*
%LPD*%
G36*
X42501Y67873D02*
X42677Y67843D01*
X42840Y67802D01*
X42987Y67756D01*
X43051Y67732D01*
X43115Y67709D01*
X43162Y67685D01*
X43209Y67668D01*
X43244Y67650D01*
X43268Y67638D01*
X43285Y67633D01*
X43291Y67627D01*
X43461Y67522D01*
X43607Y67405D01*
X43730Y67282D01*
X43835Y67165D01*
X43917Y67059D01*
X43952Y67013D01*
X43981Y66972D01*
X43999Y66942D01*
X44016Y66919D01*
X44022Y66901D01*
X44028Y66896D01*
X44075Y66808D01*
X44116Y66714D01*
X44180Y66539D01*
X44227Y66375D01*
X44256Y66223D01*
X44268Y66153D01*
X44280Y66088D01*
X44286Y66036D01*
Y65989D01*
X44291Y65954D01*
Y65924D01*
Y65907D01*
Y65901D01*
X44286Y65807D01*
X44280Y65714D01*
X44250Y65532D01*
X44209Y65369D01*
X44186Y65293D01*
X44163Y65217D01*
X44139Y65152D01*
X44116Y65094D01*
X44092Y65041D01*
X44075Y65000D01*
X44057Y64965D01*
X44046Y64942D01*
X44034Y64924D01*
Y64918D01*
X43929Y64754D01*
X43806Y64608D01*
X43689Y64480D01*
X43572Y64380D01*
X43466Y64292D01*
X43420Y64263D01*
X43379Y64234D01*
X43349Y64216D01*
X43320Y64199D01*
X43308Y64193D01*
X43303Y64187D01*
X43215Y64140D01*
X43121Y64105D01*
X42946Y64041D01*
X42782Y63994D01*
X42630Y63965D01*
X42566Y63953D01*
X42501Y63941D01*
X42449Y63935D01*
X42402D01*
X42367Y63930D01*
X42314D01*
X42220Y63935D01*
X42121Y63941D01*
X41945Y63971D01*
X41776Y64012D01*
X41700Y64035D01*
X41630Y64058D01*
X41565Y64082D01*
X41507Y64105D01*
X41454Y64129D01*
X41413Y64146D01*
X41378Y64164D01*
X41355Y64175D01*
X41337Y64187D01*
X41331D01*
X41167Y64292D01*
X41021Y64415D01*
X40892Y64532D01*
X40787Y64649D01*
X40705Y64754D01*
X40676Y64801D01*
X40647Y64842D01*
X40629Y64871D01*
X40612Y64901D01*
X40600Y64912D01*
Y64918D01*
X40553Y65006D01*
X40512Y65100D01*
X40448Y65269D01*
X40401Y65439D01*
X40372Y65585D01*
X40360Y65655D01*
X40348Y65714D01*
X40343Y65767D01*
Y65813D01*
X40337Y65848D01*
Y65878D01*
Y65895D01*
Y65901D01*
Y66000D01*
X40348Y66094D01*
X40378Y66275D01*
X40424Y66445D01*
X40448Y66521D01*
X40471Y66591D01*
X40495Y66662D01*
X40518Y66720D01*
X40541Y66773D01*
X40565Y66814D01*
X40582Y66849D01*
X40594Y66872D01*
X40600Y66890D01*
X40606Y66896D01*
X40711Y67065D01*
X40834Y67211D01*
X40957Y67334D01*
X41074Y67440D01*
X41179Y67522D01*
X41226Y67551D01*
X41267Y67580D01*
X41296Y67598D01*
X41320Y67615D01*
X41337Y67627D01*
X41343D01*
X41431Y67674D01*
X41518Y67715D01*
X41694Y67773D01*
X41858Y67820D01*
X42004Y67855D01*
X42074Y67861D01*
X42133Y67873D01*
X42185Y67878D01*
X42226D01*
X42267Y67884D01*
X42408D01*
X42501Y67873D01*
D02*
G37*
G36*
X29836Y65328D02*
Y64895D01*
X28169D01*
Y63976D01*
X27695D01*
Y64895D01*
X27174D01*
Y65328D01*
X27695D01*
Y67814D01*
X28081D01*
X29836Y65328D01*
D02*
G37*
G36*
X34545Y67826D02*
X34680Y67802D01*
X34803Y67767D01*
X34902Y67726D01*
X34984Y67679D01*
X35043Y67644D01*
X35066Y67633D01*
X35083Y67621D01*
X35089Y67609D01*
X35095D01*
X35195Y67516D01*
X35276Y67416D01*
X35347Y67311D01*
X35405Y67206D01*
X35452Y67112D01*
X35469Y67071D01*
X35481Y67036D01*
X35493Y67007D01*
X35505Y66983D01*
X35511Y66972D01*
Y66966D01*
X35534Y66884D01*
X35557Y66802D01*
X35587Y66621D01*
X35610Y66439D01*
X35627Y66264D01*
X35633Y66182D01*
X35639Y66106D01*
Y66041D01*
X35645Y65983D01*
Y65936D01*
Y65901D01*
Y65878D01*
Y65872D01*
X35639Y65679D01*
X35627Y65491D01*
X35610Y65328D01*
X35587Y65170D01*
X35557Y65029D01*
X35528Y64901D01*
X35493Y64784D01*
X35458Y64684D01*
X35423Y64591D01*
X35388Y64515D01*
X35358Y64450D01*
X35329Y64398D01*
X35306Y64357D01*
X35288Y64327D01*
X35276Y64310D01*
X35271Y64304D01*
X35206Y64234D01*
X35142Y64175D01*
X35072Y64123D01*
X34996Y64076D01*
X34925Y64041D01*
X34849Y64006D01*
X34709Y63959D01*
X34645Y63947D01*
X34586Y63935D01*
X34534Y63924D01*
X34487Y63918D01*
X34446Y63912D01*
X34393D01*
X34241Y63924D01*
X34106Y63947D01*
X33990Y63982D01*
X33884Y64023D01*
X33808Y64064D01*
X33744Y64099D01*
X33726Y64117D01*
X33709Y64123D01*
X33703Y64134D01*
X33697D01*
X33597Y64228D01*
X33516Y64333D01*
X33445Y64438D01*
X33387Y64544D01*
X33340Y64637D01*
X33323Y64672D01*
X33305Y64708D01*
X33293Y64737D01*
X33288Y64760D01*
X33282Y64772D01*
Y64778D01*
X33258Y64860D01*
X33235Y64942D01*
X33200Y65123D01*
X33176Y65304D01*
X33159Y65480D01*
X33153Y65562D01*
X33147Y65638D01*
Y65702D01*
X33141Y65761D01*
Y65807D01*
Y65842D01*
Y65866D01*
Y65872D01*
X33147Y66076D01*
Y66164D01*
X33153Y66252D01*
X33159Y66334D01*
X33171Y66410D01*
X33176Y66474D01*
X33182Y66539D01*
X33194Y66591D01*
X33200Y66644D01*
X33206Y66685D01*
X33217Y66714D01*
X33223Y66743D01*
Y66761D01*
X33229Y66773D01*
Y66778D01*
X33264Y66901D01*
X33305Y67013D01*
X33346Y67112D01*
X33381Y67194D01*
X33416Y67258D01*
X33445Y67311D01*
X33463Y67340D01*
X33469Y67352D01*
X33527Y67434D01*
X33592Y67504D01*
X33656Y67568D01*
X33715Y67621D01*
X33773Y67656D01*
X33814Y67685D01*
X33843Y67703D01*
X33855Y67709D01*
X33943Y67750D01*
X34036Y67785D01*
X34130Y67808D01*
X34212Y67820D01*
X34282Y67831D01*
X34341Y67837D01*
X34393D01*
X34545Y67826D01*
D02*
G37*
G36*
X37459Y67831D02*
X37552Y67826D01*
X37728Y67791D01*
X37804Y67773D01*
X37880Y67750D01*
X37944Y67720D01*
X38003Y67697D01*
X38055Y67668D01*
X38102Y67644D01*
X38143Y67615D01*
X38178Y67598D01*
X38201Y67580D01*
X38219Y67562D01*
X38231Y67557D01*
X38237Y67551D01*
X38295Y67492D01*
X38342Y67434D01*
X38430Y67299D01*
X38494Y67165D01*
X38541Y67030D01*
X38576Y66913D01*
X38582Y66860D01*
X38593Y66814D01*
X38599Y66778D01*
X38605Y66749D01*
Y66732D01*
Y66726D01*
X38120Y66673D01*
X38108Y66802D01*
X38085Y66913D01*
X38055Y67007D01*
X38014Y67089D01*
X37979Y67153D01*
X37944Y67200D01*
X37921Y67223D01*
X37915Y67235D01*
X37833Y67305D01*
X37745Y67358D01*
X37652Y67393D01*
X37564Y67422D01*
X37488Y67434D01*
X37429Y67440D01*
X37406Y67445D01*
X37371D01*
X37254Y67440D01*
X37148Y67416D01*
X37061Y67387D01*
X36985Y67352D01*
X36926Y67311D01*
X36879Y67282D01*
X36856Y67258D01*
X36844Y67252D01*
X36774Y67176D01*
X36727Y67094D01*
X36692Y67018D01*
X36663Y66942D01*
X36651Y66878D01*
X36645Y66825D01*
X36639Y66790D01*
Y66784D01*
Y66778D01*
X36651Y66679D01*
X36675Y66574D01*
X36710Y66480D01*
X36751Y66392D01*
X36792Y66316D01*
X36827Y66258D01*
X36838Y66234D01*
X36850Y66217D01*
X36862Y66211D01*
Y66205D01*
X36909Y66147D01*
X36961Y66082D01*
X37020Y66018D01*
X37090Y65954D01*
X37230Y65819D01*
X37371Y65685D01*
X37499Y65573D01*
X37558Y65521D01*
X37611Y65480D01*
X37652Y65439D01*
X37681Y65416D01*
X37704Y65398D01*
X37710Y65392D01*
X37850Y65269D01*
X37979Y65158D01*
X38085Y65059D01*
X38172Y64977D01*
X38242Y64907D01*
X38289Y64854D01*
X38318Y64819D01*
X38330Y64813D01*
Y64807D01*
X38406Y64714D01*
X38465Y64626D01*
X38523Y64538D01*
X38564Y64462D01*
X38599Y64392D01*
X38623Y64345D01*
X38634Y64310D01*
X38640Y64304D01*
Y64298D01*
X38658Y64240D01*
X38675Y64181D01*
X38681Y64129D01*
X38687Y64082D01*
X38693Y64041D01*
Y64006D01*
Y63982D01*
Y63976D01*
X36148D01*
Y64427D01*
X38038D01*
X37973Y64520D01*
X37909Y64596D01*
X37880Y64632D01*
X37856Y64655D01*
X37845Y64672D01*
X37839Y64678D01*
X37810Y64708D01*
X37780Y64737D01*
X37704Y64807D01*
X37611Y64889D01*
X37523Y64971D01*
X37435Y65047D01*
X37365Y65105D01*
X37336Y65129D01*
X37312Y65146D01*
X37301Y65158D01*
X37295Y65164D01*
X37201Y65246D01*
X37119Y65316D01*
X37037Y65386D01*
X36967Y65451D01*
X36903Y65515D01*
X36844Y65568D01*
X36786Y65620D01*
X36739Y65667D01*
X36698Y65708D01*
X36663Y65743D01*
X36610Y65796D01*
X36581Y65831D01*
X36569Y65842D01*
X36493Y65936D01*
X36423Y66018D01*
X36370Y66100D01*
X36329Y66170D01*
X36294Y66229D01*
X36271Y66270D01*
X36259Y66299D01*
X36253Y66311D01*
X36218Y66392D01*
X36195Y66474D01*
X36177Y66550D01*
X36166Y66621D01*
X36160Y66679D01*
X36154Y66726D01*
Y66755D01*
Y66767D01*
X36160Y66849D01*
X36166Y66931D01*
X36207Y67077D01*
X36259Y67206D01*
X36318Y67317D01*
X36376Y67405D01*
X36406Y67440D01*
X36429Y67475D01*
X36452Y67498D01*
X36470Y67516D01*
X36476Y67522D01*
X36482Y67527D01*
X36546Y67580D01*
X36610Y67633D01*
X36680Y67674D01*
X36757Y67709D01*
X36903Y67761D01*
X37043Y67796D01*
X37108Y67814D01*
X37166Y67820D01*
X37219Y67826D01*
X37266Y67831D01*
X37306Y67837D01*
X37359D01*
X37459Y67831D01*
D02*
G37*
G36*
X31246Y67744D02*
X31310Y67650D01*
X31380Y67562D01*
X31451Y67480D01*
X31515Y67416D01*
X31568Y67364D01*
X31603Y67328D01*
X31609Y67323D01*
X31614Y67317D01*
X31725Y67223D01*
X31842Y67135D01*
X31960Y67059D01*
X32065Y66995D01*
X32158Y66942D01*
X32199Y66925D01*
X32234Y66907D01*
X32258Y66890D01*
X32281Y66878D01*
X32293Y66872D01*
X32299D01*
Y66410D01*
X32217Y66445D01*
X32129Y66486D01*
X32047Y66521D01*
X31971Y66562D01*
X31907Y66597D01*
X31854Y66626D01*
X31819Y66650D01*
X31813Y66656D01*
X31807D01*
X31708Y66714D01*
X31620Y66778D01*
X31544Y66831D01*
X31480Y66884D01*
X31427Y66925D01*
X31386Y66954D01*
X31363Y66977D01*
X31357Y66983D01*
Y63976D01*
X30883D01*
Y67837D01*
X31193D01*
X31246Y67744D01*
D02*
G37*
%LPC*%
G36*
X42355Y67557D02*
X42314D01*
X42162Y67545D01*
X42010Y67522D01*
X41875Y67486D01*
X41752Y67451D01*
X41700Y67428D01*
X41653Y67410D01*
X41612Y67393D01*
X41577Y67375D01*
X41548Y67358D01*
X41524Y67352D01*
X41513Y67340D01*
X41507D01*
X41366Y67252D01*
X41243Y67153D01*
X41138Y67054D01*
X41045Y66954D01*
X40980Y66860D01*
X40951Y66825D01*
X40928Y66790D01*
X40910Y66767D01*
X40898Y66743D01*
X40887Y66732D01*
Y66726D01*
X40811Y66580D01*
X40758Y66433D01*
X40717Y66293D01*
X40694Y66164D01*
X40682Y66112D01*
X40676Y66059D01*
X40670Y66012D01*
Y65977D01*
X40664Y65942D01*
Y65919D01*
Y65907D01*
Y65901D01*
X40676Y65743D01*
X40699Y65591D01*
X40734Y65456D01*
X40775Y65334D01*
X40799Y65275D01*
X40816Y65228D01*
X40834Y65187D01*
X40852Y65152D01*
X40863Y65123D01*
X40875Y65100D01*
X40887Y65088D01*
Y65082D01*
X40974Y64942D01*
X41074Y64825D01*
X41173Y64719D01*
X41273Y64632D01*
X41361Y64561D01*
X41396Y64538D01*
X41431Y64515D01*
X41460Y64497D01*
X41478Y64485D01*
X41489Y64474D01*
X41495D01*
X41641Y64403D01*
X41787Y64351D01*
X41928Y64310D01*
X42051Y64286D01*
X42109Y64275D01*
X42156Y64269D01*
X42203Y64263D01*
X42244D01*
X42273Y64257D01*
X42314D01*
X42472Y64269D01*
X42624Y64292D01*
X42764Y64327D01*
X42887Y64368D01*
X42940Y64386D01*
X42993Y64403D01*
X43034Y64421D01*
X43069Y64438D01*
X43098Y64456D01*
X43121Y64462D01*
X43133Y64474D01*
X43139D01*
X43279Y64561D01*
X43396Y64661D01*
X43502Y64760D01*
X43589Y64860D01*
X43659Y64947D01*
X43683Y64983D01*
X43706Y65018D01*
X43724Y65047D01*
X43736Y65065D01*
X43747Y65076D01*
Y65082D01*
X43817Y65228D01*
X43870Y65374D01*
X43911Y65515D01*
X43935Y65638D01*
X43946Y65696D01*
X43952Y65743D01*
X43958Y65790D01*
Y65831D01*
X43964Y65860D01*
Y65883D01*
Y65895D01*
Y65901D01*
X43952Y66059D01*
X43929Y66211D01*
X43894Y66351D01*
X43853Y66474D01*
X43829Y66533D01*
X43812Y66580D01*
X43794Y66621D01*
X43777Y66656D01*
X43759Y66685D01*
X43753Y66708D01*
X43741Y66720D01*
Y66726D01*
X43654Y66866D01*
X43554Y66989D01*
X43449Y67094D01*
X43349Y67182D01*
X43262Y67252D01*
X43227Y67276D01*
X43191Y67299D01*
X43162Y67317D01*
X43145Y67328D01*
X43133Y67340D01*
X43127D01*
X42975Y67410D01*
X42835Y67463D01*
X42694Y67504D01*
X42571Y67527D01*
X42519Y67539D01*
X42466Y67545D01*
X42425Y67551D01*
X42384D01*
X42355Y67557D01*
D02*
G37*
G36*
X28169Y67048D02*
Y65328D01*
X29374D01*
X28169Y67048D01*
D02*
G37*
G36*
X34428Y67445D02*
X34399D01*
X34341Y67440D01*
X34282Y67434D01*
X34177Y67399D01*
X34083Y67346D01*
X34001Y67287D01*
X33937Y67229D01*
X33890Y67176D01*
X33861Y67141D01*
X33849Y67135D01*
Y67129D01*
X33808Y67065D01*
X33773Y66989D01*
X33744Y66901D01*
X33720Y66802D01*
X33679Y66597D01*
X33656Y66387D01*
X33644Y66281D01*
X33639Y66188D01*
X33633Y66100D01*
Y66024D01*
X33627Y65960D01*
Y65913D01*
Y65883D01*
Y65872D01*
Y65702D01*
X33639Y65544D01*
X33644Y65404D01*
X33662Y65275D01*
X33679Y65158D01*
X33697Y65053D01*
X33715Y64965D01*
X33738Y64883D01*
X33761Y64819D01*
X33779Y64760D01*
X33796Y64708D01*
X33814Y64672D01*
X33826Y64643D01*
X33837Y64626D01*
X33849Y64614D01*
Y64608D01*
X33890Y64556D01*
X33937Y64509D01*
X33984Y64462D01*
X34030Y64427D01*
X34118Y64374D01*
X34206Y64339D01*
X34282Y64316D01*
X34341Y64304D01*
X34364Y64298D01*
X34393D01*
X34452Y64304D01*
X34510Y64310D01*
X34615Y64345D01*
X34709Y64398D01*
X34791Y64456D01*
X34855Y64509D01*
X34902Y64561D01*
X34931Y64596D01*
X34943Y64602D01*
Y64608D01*
X34978Y64672D01*
X35013Y64754D01*
X35043Y64842D01*
X35066Y64936D01*
X35107Y65146D01*
X35130Y65357D01*
X35142Y65456D01*
X35148Y65556D01*
X35154Y65644D01*
Y65720D01*
X35160Y65784D01*
Y65831D01*
Y65860D01*
Y65872D01*
Y66041D01*
X35148Y66199D01*
X35136Y66340D01*
X35124Y66469D01*
X35101Y66591D01*
X35083Y66697D01*
X35060Y66790D01*
X35037Y66872D01*
X35019Y66942D01*
X34996Y67007D01*
X34972Y67054D01*
X34955Y67094D01*
X34943Y67124D01*
X34931Y67147D01*
X34920Y67159D01*
Y67165D01*
X34885Y67211D01*
X34844Y67258D01*
X34756Y67328D01*
X34668Y67375D01*
X34586Y67410D01*
X34510Y67434D01*
X34452Y67440D01*
X34428Y67445D01*
D02*
G37*
%LPD*%
G36*
X42402Y67013D02*
X42507Y66995D01*
X42601Y66977D01*
X42683Y66954D01*
X42753Y66925D01*
X42805Y66907D01*
X42835Y66890D01*
X42846Y66884D01*
X42934Y66831D01*
X43010Y66767D01*
X43075Y66703D01*
X43127Y66644D01*
X43168Y66585D01*
X43197Y66539D01*
X43215Y66509D01*
X43221Y66504D01*
Y66498D01*
X43262Y66398D01*
X43297Y66299D01*
X43320Y66199D01*
X43332Y66100D01*
X43344Y66018D01*
X43349Y65954D01*
Y65930D01*
Y65913D01*
Y65901D01*
Y65895D01*
X43344Y65802D01*
X43338Y65708D01*
X43303Y65544D01*
X43285Y65468D01*
X43256Y65404D01*
X43233Y65339D01*
X43203Y65287D01*
X43180Y65234D01*
X43151Y65193D01*
X43127Y65158D01*
X43110Y65123D01*
X43086Y65100D01*
X43075Y65082D01*
X43069Y65076D01*
X43063Y65070D01*
X43004Y65018D01*
X42946Y64971D01*
X42887Y64930D01*
X42823Y64901D01*
X42700Y64842D01*
X42583Y64807D01*
X42478Y64789D01*
X42431Y64784D01*
X42390Y64778D01*
X42361Y64772D01*
X42314D01*
X42180Y64778D01*
X42063Y64801D01*
X41957Y64830D01*
X41864Y64871D01*
X41793Y64907D01*
X41741Y64936D01*
X41706Y64959D01*
X41694Y64965D01*
X41606Y65041D01*
X41530Y65129D01*
X41472Y65217D01*
X41425Y65298D01*
X41396Y65374D01*
X41372Y65439D01*
X41366Y65462D01*
X41361Y65480D01*
X41355Y65486D01*
Y65491D01*
X41676Y65585D01*
X41706Y65503D01*
X41741Y65427D01*
X41776Y65363D01*
X41817Y65310D01*
X41858Y65263D01*
X41887Y65234D01*
X41910Y65217D01*
X41916Y65211D01*
X41986Y65164D01*
X42057Y65135D01*
X42127Y65111D01*
X42191Y65094D01*
X42244Y65082D01*
X42291Y65076D01*
X42332D01*
X42437Y65088D01*
X42531Y65111D01*
X42612Y65140D01*
X42683Y65181D01*
X42735Y65217D01*
X42776Y65252D01*
X42800Y65275D01*
X42811Y65281D01*
X42870Y65369D01*
X42917Y65462D01*
X42946Y65562D01*
X42969Y65661D01*
X42981Y65749D01*
X42987Y65790D01*
Y65825D01*
X42993Y65848D01*
Y65872D01*
Y65883D01*
Y65889D01*
X42987Y66030D01*
X42963Y66158D01*
X42934Y66264D01*
X42893Y66351D01*
X42858Y66422D01*
X42829Y66469D01*
X42805Y66498D01*
X42800Y66509D01*
X42724Y66580D01*
X42636Y66632D01*
X42554Y66673D01*
X42472Y66697D01*
X42402Y66714D01*
X42349Y66720D01*
X42326Y66726D01*
X42296D01*
X42220Y66720D01*
X42156Y66708D01*
X42092Y66691D01*
X42039Y66673D01*
X41998Y66650D01*
X41969Y66632D01*
X41945Y66621D01*
X41940Y66615D01*
X41881Y66574D01*
X41834Y66521D01*
X41793Y66474D01*
X41758Y66427D01*
X41735Y66381D01*
X41717Y66346D01*
X41706Y66322D01*
X41700Y66316D01*
X41390Y66398D01*
X41431Y66498D01*
X41478Y66585D01*
X41530Y66662D01*
X41583Y66732D01*
X41635Y66778D01*
X41671Y66820D01*
X41700Y66843D01*
X41712Y66849D01*
X41799Y66907D01*
X41899Y66948D01*
X41992Y66977D01*
X42086Y66995D01*
X42168Y67013D01*
X42232Y67018D01*
X42291D01*
X42402Y67013D01*
D02*
G37*
D10*
X61024Y-37402D02*
D03*
X21654Y23622D02*
D03*
X-53150Y27559D02*
D03*
X-72835D02*
D03*
X70866Y-37402D02*
D03*
X31496Y-1969D02*
D03*
Y-11811D02*
D03*
Y17717D02*
D03*
Y7874D02*
D03*
X21654Y13780D02*
D03*
X0Y0D02*
D03*
X-9843D02*
D03*
X21654Y-37402D02*
D03*
X31496Y-31496D02*
D03*
X61024Y-27559D02*
D03*
X-19685D02*
D03*
X31496Y-21654D02*
D03*
X-53150Y-72835D02*
D03*
X70866Y-27559D02*
D03*
X-11811Y-72835D02*
D03*
X-9843Y70866D02*
D03*
X41339Y-43307D02*
D03*
X-62992Y27559D02*
D03*
X51181Y-43307D02*
D03*
X9843Y0D02*
D03*
D12*
X-68898Y92520D02*
D03*
X33465Y-68898D02*
D03*
D13*
X51772Y21140D02*
X52165Y21534D01*
X51772Y17717D02*
Y21140D01*
X-51772Y-21063D02*
X-51181Y-21654D01*
X-51772Y-21063D02*
Y-17717D01*
X-36811Y-25591D02*
X-33465D01*
X-72835Y13780D02*
X-70866Y11811D01*
X-72835Y13780D02*
Y27559D01*
X9843D02*
X13780Y23622D01*
X21654D01*
X9843Y-17323D02*
X10236Y-17717D01*
X4921Y-17323D02*
X9843D01*
X-20276Y-10433D02*
X-9843Y0D01*
X-20276Y-17717D02*
Y-10433D01*
X0Y-5906D02*
Y0D01*
X-6666Y-9547D02*
X2264D01*
X4921Y-12205D01*
X-9843D02*
X-9324D01*
X-6666Y-9547D01*
X67665Y-5906D02*
X71850D01*
X62992Y-9843D02*
X68898D01*
X70866Y-11811D01*
X21654Y-37402D02*
Y-17717D01*
X45914Y-11811D02*
X51181D01*
X31761Y-21654D02*
X44414Y-9000D01*
X31496Y-21654D02*
X31761D01*
X37168Y-1969D02*
X37300Y-2100D01*
X31496Y-1969D02*
X37168D01*
X37402Y9843D02*
X39370D01*
X34350Y12894D02*
X37402Y9843D01*
X21654Y12894D02*
Y13780D01*
X-21654Y-37402D02*
X-11811D01*
X-11220Y-36811D01*
X-7874D01*
X-31496Y-47244D02*
X-21654Y-37402D01*
X-5906Y-50591D02*
Y-47244D01*
X21654Y-17717D02*
Y-13780D01*
X19685Y-11811D02*
X21654Y-13780D01*
X16339Y-11811D02*
X19685D01*
X4921Y-12205D02*
X5315Y-11811D01*
X11220D01*
X-43307Y-29528D02*
X-41929Y-28150D01*
X-43307Y-34646D02*
Y-29528D01*
X-41929Y-28150D02*
Y-25591D01*
X-46457Y-34646D02*
Y-29677D01*
X44414Y-9000D02*
X45951D01*
X46508Y0D02*
X51181D01*
X43307Y-3937D02*
X47561D01*
X-70866Y11811D02*
X-68898Y9843D01*
X-62992D01*
X-67665Y17717D02*
X-66612D01*
X-66612Y17717D01*
X-67665Y13780D02*
X-62992D01*
X-67665Y5906D02*
X-62992D01*
X-55854Y-0D02*
X-51181D01*
X-45669Y13500D02*
X-44414D01*
X-62992Y-5906D02*
X-58319D01*
X-62992Y-13780D02*
X-58319D01*
X-55854Y-7874D02*
X-51181D01*
Y-3937D02*
X-46508D01*
X-61024Y-33465D02*
X-55118D01*
X-62992D02*
X-61024D01*
X-72992Y-43465D02*
X-71024D01*
X-55118Y-33465D02*
X-51968Y-36614D01*
Y-40157D02*
Y-36614D01*
X-13929Y-40157D02*
X-11614D01*
X-14764Y-17323D02*
X-9843D01*
X-15157Y-17717D02*
X-14764Y-17323D01*
X0Y-29528D02*
Y-17323D01*
X-4921D02*
X0D01*
Y-12402D02*
Y-12205D01*
Y-12402D02*
X4921Y-17323D01*
X-4921Y-12402D02*
Y-12205D01*
X-9843Y-17323D02*
X-4921Y-12402D01*
X-9843Y-29528D02*
Y-17323D01*
X-70866Y1969D02*
X-62992D01*
X-62992Y1969D01*
X47561Y-3937D02*
X47561Y-3937D01*
X47561Y-3937D01*
X66612Y17717D02*
X66612Y17717D01*
X62402Y17717D02*
X66612D01*
X66612Y-17717D02*
X66613Y-17717D01*
X62402Y-17717D02*
X66612D01*
X55983D02*
X55983Y-17717D01*
X51772Y-17717D02*
X55983D01*
X45951Y-9000D02*
X47077Y-7874D01*
X51181D01*
X47561Y-3937D02*
X51181D01*
Y-11811D02*
X55854D01*
X-57036Y17717D02*
X-55983D01*
X-55983Y17717D01*
X-51772D01*
X-66612D02*
X-62402D01*
X-67665Y-17717D02*
X-66613D01*
X-66612Y-17717D01*
X-62402D01*
X-47359Y11811D02*
X-45669Y13500D01*
X-51181Y11811D02*
X-47359D01*
X-67665Y-9843D02*
X-62992D01*
X-48053Y-62205D02*
X-47000D01*
X-48053Y-62205D02*
X-48053Y-62205D01*
X-51968Y-62205D02*
X-48053D01*
X-51968Y-55905D02*
X-47000D01*
X-51968Y-52756D02*
X-48053D01*
X-48053Y-52756D01*
X-51968Y-59055D02*
X-48053D01*
X-48053Y-59055D01*
X-51968Y-49606D02*
X-47000D01*
X-18898Y-40157D02*
X-14982D01*
X-14982Y-40157D01*
X-13929D01*
X-18898Y-52756D02*
X-14982D01*
X-14982Y-52756D01*
X-18898Y-59055D02*
X-14982D01*
X-14982Y-59055D01*
X-33858Y-73819D02*
Y-67716D01*
X-30709Y-63801D02*
X-30709Y-63801D01*
X-30709Y-67716D02*
Y-63801D01*
X-37008Y-30730D02*
Y-29677D01*
Y-30730D02*
X-37008Y-30730D01*
Y-34646D02*
Y-30730D01*
X-37008Y-63801D02*
Y-62748D01*
Y-63801D02*
X-37008Y-63801D01*
Y-67716D02*
Y-63801D01*
X-30709Y-39614D02*
Y-34646D01*
X-33858D02*
Y-29677D01*
X-40157Y-34646D02*
Y-29677D01*
X-27559Y-67716D02*
Y-62748D01*
X-40157Y-67716D02*
Y-62748D01*
X-14982Y-52756D02*
X-14588Y-53150D01*
X-18898Y-43307D02*
X-13929D01*
X-18898Y-49606D02*
X-18457Y-50047D01*
X-17622Y-49213D01*
X-13780D01*
X-10630Y-46457D02*
X-9843Y-47244D01*
X-18898Y-46457D02*
X-10630D01*
X-24409Y-34646D02*
X-20866D01*
X-19685Y-33465D01*
X15354Y-35039D02*
X15748Y-35433D01*
X15354Y-35039D02*
Y-17717D01*
X-31496Y-63013D02*
X-30709Y-63801D01*
X-31496Y-63013D02*
Y-59055D01*
X-48053Y-59055D02*
X-48053Y-59055D01*
X-43307D01*
X-48053Y-52756D02*
X-47659Y-53150D01*
X-43307D01*
X-51968Y-46457D02*
X-46063D01*
X11811Y-50591D02*
Y-48151D01*
X11811Y-48151D01*
Y-47098D01*
X17717Y-50591D02*
Y-48151D01*
X17717Y-48151D02*
X17717Y-48151D01*
X17717Y-48151D02*
Y-47098D01*
X5906Y-55709D02*
X6258Y-56061D01*
X23622Y-50591D02*
Y-47098D01*
X-24409Y-72685D02*
Y-67716D01*
X5906Y-56413D02*
X6258Y-56061D01*
X-14982Y-59055D02*
X-14982Y-59055D01*
X5906Y-64961D02*
Y-56413D01*
X-18898Y-55905D02*
X-13929D01*
X-14982Y-59055D02*
X-9843D01*
X58319Y5906D02*
X62992D01*
X51181Y3937D02*
X55854D01*
X58319Y-9843D02*
X62992D01*
X55983Y-17717D02*
X57035D01*
X51181Y11811D02*
X55854D01*
X58319Y13780D02*
X62992D01*
Y-13780D02*
X67665D01*
X62992Y-5906D02*
X67665D01*
X62992Y9843D02*
X67665D01*
X62992Y1969D02*
X67665D01*
X66613Y-17717D02*
X67665D01*
X66612Y17717D02*
X67665D01*
X9843Y-29528D02*
Y-18110D01*
X10236Y-17717D01*
X5413Y-22146D02*
X5906Y-21654D01*
X-5906Y-55709D02*
X0D01*
X-7283D02*
X-5906D01*
X-9843Y-53150D02*
X-7283Y-55709D01*
X-14588Y-53150D02*
X-9843D01*
X0Y-50591D02*
Y-47244D01*
X-35394Y-59017D02*
X-33858Y-60553D01*
Y-67716D02*
Y-60553D01*
X-43307Y-38812D02*
Y-34646D01*
X-29579Y-19685D02*
X-29553Y-19711D01*
X-34055Y-19685D02*
X-29579D01*
X-7874Y-41929D02*
X-1969D01*
X-9843D02*
X-7874D01*
X-11614Y-40157D02*
X-9843Y-41929D01*
X-1969Y-36811D02*
X1378D01*
X1969Y-37402D01*
X-35433Y-47244D02*
X-31496D01*
X-23622Y78543D02*
Y82677D01*
X-35925Y77953D02*
Y82185D01*
X-35433Y82677D01*
X-23425Y62992D02*
X-17717D01*
X-23622Y62795D02*
X-23425Y62992D01*
X-27559Y-34646D02*
Y-31496D01*
X59055Y-1969D02*
X62992D01*
X57086Y0D02*
X59055Y-1969D01*
X-23622Y-21063D02*
X-20276Y-17717D01*
X-25000Y-21063D02*
X-23622D01*
X-25708Y-21771D02*
X-25000Y-21063D01*
X-25708Y-24603D02*
Y-21771D01*
Y-24603D02*
X-25591Y-24721D01*
Y-29528D02*
Y-24721D01*
X-27559Y-31496D02*
X-25591Y-29528D01*
X-51181Y3937D02*
X-46508D01*
X-55118Y7874D02*
X-51181D01*
X-57086Y9843D02*
X-55118Y7874D01*
X-46063Y-46457D02*
X-45276Y-47244D01*
X-41339D01*
X41339Y-49213D02*
Y-43307D01*
X51181Y-49213D02*
Y-43307D01*
X0Y-62402D02*
Y-55709D01*
X-19685Y-27559D02*
Y-21654D01*
Y-72835D02*
X-11811D01*
X-43307Y-72835D02*
Y-67716D01*
X-43307Y-72835D02*
X-43307Y-72835D01*
X-50000Y-67716D02*
X-46457D01*
X-53150Y-70866D02*
X-50000Y-67716D01*
X-53150Y-72835D02*
Y-70866D01*
X-9843Y-12205D02*
Y-5906D01*
X-42717Y-21654D02*
X-41929Y-20866D01*
X-40748Y-19685D01*
X23622Y-64961D02*
Y-55709D01*
X11811Y-64961D02*
Y-55709D01*
X17717Y-64961D02*
X17717Y-64961D01*
X17717Y-55709D02*
X17717Y-55709D01*
Y-64961D02*
Y-55709D01*
X21654Y12894D02*
X34350D01*
X-18898Y-62205D02*
X-18701Y-62008D01*
X-6890D01*
X-54961Y35276D02*
Y39370D01*
Y35276D02*
X-53150Y33465D01*
Y27559D02*
Y33465D01*
X31496Y17717D02*
X41339D01*
X45276Y3937D02*
X51181D01*
X43307Y1969D02*
X45276Y3937D01*
X37402Y1969D02*
X43307D01*
X31496Y7874D02*
X37402Y1969D01*
X40354Y-1969D02*
X42323Y0D01*
X36417Y-11811D02*
X40354Y-7874D01*
X42323Y0D02*
X46508D01*
X40354Y-7874D02*
Y-1969D01*
X31496Y-11811D02*
X36417D01*
X70866Y-21654D02*
X73819Y-18701D01*
Y-7874D01*
X71850Y-5906D02*
X73819Y-7874D01*
X70866Y-27559D02*
Y-21654D01*
X61024Y-27559D02*
X67913Y-20669D01*
X68898D01*
X70866Y-18701D01*
Y-11811D01*
X5413Y-33465D02*
X5906Y-33957D01*
Y-50591D02*
Y-33957D01*
X5413Y-33465D02*
Y-22146D01*
X9843Y-5906D02*
Y0D01*
X-67913Y-3937D02*
X-67913Y-3937D01*
X-63976Y-2953D02*
X-62992Y-1969D01*
X-65945Y-2953D02*
X-63976D01*
X-66929Y-3937D02*
X-65945Y-2953D01*
X-67913Y-3937D02*
X-67913Y-3937D01*
X-67913D02*
X-67913D01*
X-66929D01*
X-51181Y-11811D02*
X-46260D01*
X-44291Y-13780D01*
X-55118Y-43307D02*
X-51968D01*
X-60039Y-48228D02*
X-55118Y-43307D01*
X-66260Y-48228D02*
X-60039D01*
X-71024Y-43465D02*
X-66260Y-48228D01*
X-64961Y-28543D02*
X-47591D01*
X-65945Y-29528D02*
X-64961Y-28543D01*
X-65945Y-38543D02*
Y-29528D01*
X-47591Y-28543D02*
X-46457Y-29677D01*
X-65945Y-38543D02*
X-61024Y-43465D01*
X-37992Y-74803D02*
X-37008Y-73819D01*
Y-67716D01*
X-33858Y-73819D02*
X-32874Y-74803D01*
X0Y-67520D02*
X2559D01*
X2953Y-67126D02*
Y-38386D01*
X1969Y-37402D02*
X2953Y-38386D01*
X2559Y-67520D02*
X2953Y-67126D01*
X37402Y-25591D02*
Y-20323D01*
X31496Y-31496D02*
X37402Y-25591D01*
Y-20323D02*
X45914Y-11811D01*
X46383Y7874D02*
X51181D01*
X41339Y17717D02*
X44291Y14764D01*
X44414Y9843D02*
X46383Y7874D01*
X44291Y9843D02*
Y14764D01*
X55118Y-37402D02*
X61024D01*
X51772Y-34055D02*
X55118Y-37402D01*
X51772Y-34055D02*
Y-17717D01*
D14*
X47244Y72804D02*
Y78802D01*
X44245D01*
X43245Y77802D01*
Y75803D01*
X44245Y74803D01*
X47244D01*
X41246Y79801D02*
X40246Y80801D01*
X38247D01*
X37247Y79801D01*
Y75803D01*
X38247Y74803D01*
X40246D01*
X41246Y75803D01*
Y79801D01*
X35248D02*
X34248Y80801D01*
X32249D01*
X31249Y79801D01*
Y75803D01*
X32249Y74803D01*
X34248D01*
X35248Y75803D01*
Y79801D01*
X29250D02*
X28250Y80801D01*
X26251D01*
X25251Y79801D01*
Y75803D01*
X26251Y74803D01*
X28250D01*
X29250Y75803D01*
Y79801D01*
X23252Y74803D02*
X21252D01*
X22252D01*
Y80801D01*
X23252Y79801D01*
X17254Y78802D02*
X15254D01*
X14255Y77802D01*
Y74803D01*
X17254D01*
X18253Y75803D01*
X17254Y76802D01*
X14255D01*
X-78740Y-96364D02*
Y-102362D01*
X-75741D01*
X-74741Y-101363D01*
Y-100363D01*
X-75741Y-99363D01*
X-78740D01*
X-75741D01*
X-74741Y-98364D01*
Y-97364D01*
X-75741Y-96364D01*
X-78740D01*
X-71742Y-102362D02*
X-69743D01*
X-68743Y-101363D01*
Y-99363D01*
X-69743Y-98364D01*
X-71742D01*
X-72742Y-99363D01*
Y-101363D01*
X-71742Y-102362D01*
X-65744Y-97364D02*
Y-98364D01*
X-66744D01*
X-64745D01*
X-65744D01*
Y-101363D01*
X-64745Y-102362D01*
X-60746Y-97364D02*
Y-98364D01*
X-61746D01*
X-59746D01*
X-60746D01*
Y-101363D01*
X-59746Y-102362D01*
X-55748D02*
X-53748D01*
X-52749Y-101363D01*
Y-99363D01*
X-53748Y-98364D01*
X-55748D01*
X-56747Y-99363D01*
Y-101363D01*
X-55748Y-102362D01*
X-50749D02*
Y-98364D01*
X-49749D01*
X-48750Y-99363D01*
Y-102362D01*
Y-99363D01*
X-47750Y-98364D01*
X-46751Y-99363D01*
Y-102362D01*
X-44751Y-96364D02*
Y-102362D01*
X-40752D01*
X-37753Y-98364D02*
X-35754D01*
X-34754Y-99363D01*
Y-102362D01*
X-37753D01*
X-38753Y-101363D01*
X-37753Y-100363D01*
X-34754D01*
X-32755Y-98364D02*
Y-101363D01*
X-31755Y-102362D01*
X-28756D01*
Y-103362D01*
X-29756Y-104362D01*
X-30756D01*
X-28756Y-102362D02*
Y-98364D01*
X-23758Y-102362D02*
X-25757D01*
X-26757Y-101363D01*
Y-99363D01*
X-25757Y-98364D01*
X-23758D01*
X-22758Y-99363D01*
Y-100363D01*
X-26757D01*
X-20759Y-98364D02*
Y-102362D01*
Y-100363D01*
X-19759Y-99363D01*
X-18760Y-98364D01*
X-17760D01*
X-11762Y-102362D02*
Y-96364D01*
X-14761Y-99363D01*
X-10762D01*
X27559Y-102362D02*
X29558D01*
X28559D01*
Y-96364D01*
X27559Y-97364D01*
X32557D02*
X33557Y-96364D01*
X35557D01*
X36556Y-97364D01*
Y-101363D01*
X35557Y-102362D01*
X33557D01*
X32557Y-101363D01*
Y-97364D01*
X38555Y-102362D02*
X42554Y-98364D01*
X44554Y-97364D02*
X45553Y-96364D01*
X47553D01*
X48552Y-97364D01*
Y-98364D01*
X47553Y-99363D01*
X46553D01*
X47553D01*
X48552Y-100363D01*
Y-101363D01*
X47553Y-102362D01*
X45553D01*
X44554Y-101363D01*
X50552Y-102362D02*
X52551D01*
X51551D01*
Y-96364D01*
X50552Y-97364D01*
X55550Y-102362D02*
X59549Y-98364D01*
X65547Y-102362D02*
X61548D01*
X65547Y-98364D01*
Y-97364D01*
X64547Y-96364D01*
X62548D01*
X61548Y-97364D01*
X67546D02*
X68546Y-96364D01*
X70545D01*
X71545Y-97364D01*
Y-101363D01*
X70545Y-102362D01*
X68546D01*
X67546Y-101363D01*
Y-97364D01*
X73544Y-102362D02*
X75543D01*
X74544D01*
Y-96364D01*
X73544Y-97364D01*
X81542Y-102362D02*
Y-96364D01*
X78543Y-99363D01*
X82541D01*
X27559Y-114173D02*
X29558D01*
X28559D01*
Y-108175D01*
X27559Y-109175D01*
X36556Y-114173D02*
X32557D01*
X36556Y-110175D01*
Y-109175D01*
X35557Y-108175D01*
X33557D01*
X32557Y-109175D01*
X38555Y-110175D02*
X39555D01*
Y-111174D01*
X38555D01*
Y-110175D01*
Y-113174D02*
X39555D01*
Y-114173D01*
X38555D01*
Y-113174D01*
X47553Y-114173D02*
X43554D01*
X47553Y-110175D01*
Y-109175D01*
X46553Y-108175D01*
X44554D01*
X43554Y-109175D01*
X52551Y-114173D02*
Y-108175D01*
X49552Y-111174D01*
X53551D01*
X55550Y-110175D02*
X56550D01*
Y-111174D01*
X55550D01*
Y-110175D01*
Y-113174D02*
X56550D01*
Y-114173D01*
X55550D01*
Y-113174D01*
X60548Y-109175D02*
X61548Y-108175D01*
X63547D01*
X64547Y-109175D01*
Y-113174D01*
X63547Y-114173D01*
X61548D01*
X60548Y-113174D01*
Y-109175D01*
X66546D02*
X67546Y-108175D01*
X69546D01*
X70545Y-109175D01*
Y-113174D01*
X69546Y-114173D01*
X67546D01*
X66546Y-113174D01*
Y-109175D01*
X78543Y-114173D02*
Y-108175D01*
X81542D01*
X82541Y-109175D01*
Y-111174D01*
X81542Y-112174D01*
X78543D01*
X84541Y-114173D02*
Y-108175D01*
X86540Y-110175D01*
X88539Y-108175D01*
Y-114173D01*
D15*
X-9843Y-29528D02*
D03*
Y27559D02*
D03*
X9843Y-29528D02*
D03*
X0D02*
D03*
X9843Y27559D02*
D03*
D16*
X-64961Y39370D02*
D03*
D17*
X-54961D02*
D03*
X-71024Y-43465D02*
D03*
Y-53465D02*
D03*
X-61024D02*
D03*
X-71024Y-33465D02*
D03*
X-61024Y-43465D02*
D03*
D18*
Y-33465D02*
D03*
D19*
X52165Y21534D02*
D03*
X-51181Y-21654D02*
D03*
X-33465Y-25591D02*
D03*
X53150Y78740D02*
D03*
X3937Y72835D02*
D03*
X-68898Y62992D02*
D03*
X9843Y-5906D02*
D03*
X0D02*
D03*
X37300Y-2100D02*
D03*
X39370Y9843D02*
D03*
X-5906Y-47244D02*
D03*
X-11811Y-37402D02*
D03*
X21654Y-17717D02*
D03*
X-45276Y-18701D02*
D03*
X-46457Y-29677D02*
D03*
X-44291Y-13780D02*
D03*
X44414Y-9000D02*
D03*
X43307Y-3937D02*
D03*
X-70866Y11811D02*
D03*
X-67665Y17717D02*
D03*
X-67665Y5906D02*
D03*
X-55854Y-0D02*
D03*
X-44414Y13500D02*
D03*
X-58319Y-5906D02*
D03*
Y-13780D02*
D03*
X-55854Y-7874D02*
D03*
X-46508Y-3937D02*
D03*
X-31496Y41339D02*
D03*
X-37402Y29528D02*
D03*
X33465Y27559D02*
D03*
X-47244Y25591D02*
D03*
X-70866Y1969D02*
D03*
X55854Y-11811D02*
D03*
X-57036Y17717D02*
D03*
X-67665Y-17717D02*
D03*
X-67665Y13780D02*
D03*
Y-9843D02*
D03*
X-47000Y-62205D02*
D03*
Y-55905D02*
D03*
Y-49606D02*
D03*
X-13929Y-40157D02*
D03*
X-37008Y-29677D02*
D03*
Y-62748D02*
D03*
X-30709Y-39614D02*
D03*
X-33858Y-29677D02*
D03*
X-40157D02*
D03*
X-27559Y-62748D02*
D03*
X-40157D02*
D03*
X8405Y44980D02*
D03*
X20768Y32185D02*
D03*
X-13929Y-43307D02*
D03*
X-13780Y-49213D02*
D03*
X-9843Y-47244D02*
D03*
X-19685Y-33465D02*
D03*
X15748Y-35433D02*
D03*
X-31496Y-59055D02*
D03*
X-43307D02*
D03*
Y-53150D02*
D03*
X11811Y-47098D02*
D03*
X17717D02*
D03*
X23622D02*
D03*
X-24409Y-72685D02*
D03*
X5906Y-64961D02*
D03*
X-13929Y-55905D02*
D03*
X-9843Y-59055D02*
D03*
X62992D02*
D03*
X66929D02*
D03*
X64961Y37402D02*
D03*
X62992Y27559D02*
D03*
X58319Y5906D02*
D03*
X55854Y3937D02*
D03*
X58319Y-9843D02*
D03*
X57035Y-17717D02*
D03*
X55854Y11811D02*
D03*
X58319Y13780D02*
D03*
X67665Y-13780D02*
D03*
Y-5906D02*
D03*
Y9843D02*
D03*
Y1969D02*
D03*
X67665Y-17717D02*
D03*
Y17717D02*
D03*
X68898Y-47244D02*
D03*
X72835D02*
D03*
X-25591Y-17717D02*
D03*
X5906Y-21654D02*
D03*
X-33465Y-3937D02*
D03*
X-31321Y-6081D02*
D03*
X57086Y-53149D02*
D03*
X57087Y-70866D02*
D03*
X0Y-47244D02*
D03*
X68898Y-35433D02*
D03*
X-29553Y-19711D02*
D03*
X1969Y-37402D02*
D03*
X-35433Y82677D02*
D03*
X-23622D02*
D03*
X-17717Y62992D02*
D03*
X74803Y-43307D02*
D03*
X57086Y0D02*
D03*
X-19685Y-21654D02*
D03*
X-46508Y3937D02*
D03*
X-57086Y9843D02*
D03*
X-41339Y-47244D02*
D03*
X51181Y-49213D02*
D03*
X41339D02*
D03*
X-43307Y-72835D02*
D03*
X-19685D02*
D03*
X-9843Y-5906D02*
D03*
Y17717D02*
D03*
Y70866D02*
D03*
X23622Y-64961D02*
D03*
X11811D02*
D03*
X17717D02*
D03*
X15610Y-59291D02*
D03*
X51279Y37402D02*
D03*
X74803Y45154D02*
D03*
X35433Y45276D02*
D03*
X49213Y-57087D02*
D03*
X47244Y-21654D02*
D03*
X-67913Y-3937D02*
D03*
X46508Y0D02*
D03*
X-6890Y-62008D02*
D03*
X44291Y9843D02*
D03*
D20*
X-40748Y-19685D02*
Y-11220D01*
X-37402Y-7874D01*
Y1969D01*
X-21654Y17717D01*
X-9843D01*
X-41929Y-25591D02*
Y-20866D01*
X-71024Y-28701D02*
X-67913Y-25591D01*
X-71024Y-33465D02*
Y-28701D01*
X-67913Y-25591D02*
X-41929D01*
D27*
X-37992Y-74803D02*
D03*
X-32874D02*
D03*
X-36811Y-25591D02*
D03*
X-41929D02*
D03*
X11220Y-11811D02*
D03*
X16339D02*
D03*
X-20276Y-17717D02*
D03*
X-15157D02*
D03*
X10236D02*
D03*
X15354D02*
D03*
D28*
X-40748Y-19685D02*
D03*
X-34055D02*
D03*
D29*
X0Y-62402D02*
D03*
Y-67520D02*
D03*
X4921Y-12205D02*
D03*
Y-17323D02*
D03*
X-9843Y-12205D02*
D03*
Y-17323D02*
D03*
X-7874Y-36811D02*
D03*
Y-41929D02*
D03*
X0Y-12205D02*
D03*
Y-17323D02*
D03*
X-4921Y-12205D02*
D03*
Y-17323D02*
D03*
X-1969Y-41929D02*
D03*
Y-36811D02*
D03*
X23622Y-55709D02*
D03*
Y-50591D02*
D03*
X17717Y-55709D02*
D03*
Y-50591D02*
D03*
X11811Y-55709D02*
D03*
Y-50591D02*
D03*
X5906Y-55709D02*
D03*
Y-50591D02*
D03*
X0D02*
D03*
Y-55709D02*
D03*
X-5906Y-50591D02*
D03*
Y-55709D02*
D03*
D30*
X51181Y-3937D02*
D03*
Y-7874D02*
D03*
Y-11811D02*
D03*
Y7874D02*
D03*
Y0D02*
D03*
Y11811D02*
D03*
Y3937D02*
D03*
X62992Y-13780D02*
D03*
Y-9843D02*
D03*
Y-1969D02*
D03*
Y-5906D02*
D03*
Y9843D02*
D03*
Y5906D02*
D03*
Y13780D02*
D03*
Y1969D02*
D03*
X-62992Y-13780D02*
D03*
Y-1969D02*
D03*
Y-5906D02*
D03*
Y-9843D02*
D03*
Y9843D02*
D03*
Y1969D02*
D03*
Y13780D02*
D03*
Y5906D02*
D03*
X-51181Y-3937D02*
D03*
Y-11811D02*
D03*
Y-7874D02*
D03*
Y3937D02*
D03*
Y-0D02*
D03*
Y7874D02*
D03*
Y11811D02*
D03*
D31*
X51772Y-17717D02*
D03*
Y17717D02*
D03*
X62402Y-17717D02*
D03*
Y17717D02*
D03*
X-62402Y-17717D02*
D03*
Y17717D02*
D03*
X-51772Y-17717D02*
D03*
Y17717D02*
D03*
D32*
X-23622Y62795D02*
D03*
Y55315D02*
D03*
Y78543D02*
D03*
Y71063D02*
D03*
D33*
X-51968Y-59055D02*
D03*
Y-62205D02*
D03*
Y-49606D02*
D03*
Y-55905D02*
D03*
Y-52756D02*
D03*
Y-40157D02*
D03*
Y-46457D02*
D03*
Y-43307D02*
D03*
X-18898Y-62205D02*
D03*
Y-52756D02*
D03*
Y-59055D02*
D03*
Y-55905D02*
D03*
Y-43307D02*
D03*
Y-40157D02*
D03*
Y-49606D02*
D03*
Y-46457D02*
D03*
D34*
X-46457Y-67716D02*
D03*
X-40157D02*
D03*
X-43307D02*
D03*
Y-34646D02*
D03*
X-46457D02*
D03*
X-37008D02*
D03*
X-40157D02*
D03*
X-37008Y-67716D02*
D03*
X-30709D02*
D03*
X-33858D02*
D03*
X-27559D02*
D03*
X-24409D02*
D03*
X-33858Y-34646D02*
D03*
X-30709D02*
D03*
X-24409D02*
D03*
X-27559D02*
D03*
D35*
X-62500Y68898D02*
D03*
D36*
X-35925Y59842D02*
D03*
Y68898D02*
D03*
D37*
Y77953D02*
D03*
D38*
X-62992Y27559D02*
Y37402D01*
X-64961Y39370D02*
X-62992Y37402D01*
X-10039Y71063D02*
X-9843Y70866D01*
X-23622Y71063D02*
X-10039D01*
X-35925Y68898D02*
X-35925Y68898D01*
X-62500Y68898D02*
X-35925D01*
X-31398Y55315D02*
X-23622D01*
X-35925Y59842D02*
X-31398Y55315D01*
X-54331Y59842D02*
X-35925D01*
X-64961Y49213D02*
X-54331Y59842D01*
X-64961Y39370D02*
Y49213D01*
X-9843Y45276D02*
Y70866D01*
Y45276D02*
X-3937Y39370D01*
Y23622D02*
Y39370D01*
X-9843Y17717D02*
X-3937Y23622D01*
X-35925Y68898D02*
X-31693D01*
X-29528Y71063D01*
X-23622D01*
D39*
X-35433Y-58978D02*
Y-47244D01*
Y-58978D02*
X-35394Y-59017D01*
X-43307Y-39201D02*
Y-38812D01*
X-42454Y-39998D02*
X-35433Y-47019D01*
X-42510Y-39998D02*
X-42454D01*
X-43307Y-39201D02*
X-42510Y-39998D01*
X-35433Y-47244D02*
Y-47019D01*
M02*
