%FSLAX25Y25*%
%MOIN*%
G70*
G01*
G75*
G04 Layer_Color=8421504*
%ADD10C,0.07874*%
%ADD11R,0.01575X0.02756*%
%ADD12C,0.03937*%
%ADD13C,0.00591*%
%ADD14C,0.01000*%
%ADD15C,0.07087*%
%ADD16R,0.05906X0.05906*%
%ADD17C,0.05906*%
%ADD18R,0.05906X0.05906*%
%ADD19C,0.02441*%
%ADD20C,0.01969*%
%ADD21C,0.04000*%
%ADD22C,0.06299*%
%ADD23O,0.09449X0.12598*%
%ADD24C,0.04762*%
%ADD25C,0.11024*%
%ADD26C,0.03563*%
%ADD27R,0.03543X0.02756*%
%ADD28R,0.04331X0.03937*%
%ADD29R,0.02756X0.03543*%
%ADD30R,0.05906X0.02362*%
%ADD31R,0.07087X0.03150*%
%ADD32R,0.05906X0.05118*%
%ADD33O,0.06496X0.02165*%
%ADD34O,0.02165X0.06496*%
%ADD35R,0.06102X0.13583*%
%ADD36R,0.06102X0.04331*%
%ADD37R,0.06102X0.04331*%
%ADD38C,0.01575*%
%ADD39C,0.03937*%
%ADD40C,0.00787*%
D11*
X47835Y97835D02*
D03*
X47835Y102953D02*
D03*
X50591Y97835D02*
D03*
Y102953D02*
D03*
X28150Y97835D02*
D03*
X28150Y102953D02*
D03*
X30906Y97835D02*
D03*
Y102953D02*
D03*
X8465Y97835D02*
D03*
X8465Y102953D02*
D03*
X11220Y97835D02*
D03*
Y102953D02*
D03*
X-11220Y97835D02*
D03*
X-11220Y102953D02*
D03*
X-8465Y97835D02*
D03*
Y102953D02*
D03*
X-30906Y97835D02*
D03*
X-30906Y102953D02*
D03*
X-28150Y97835D02*
D03*
Y102953D02*
D03*
X-50591Y97835D02*
D03*
X-50591Y102953D02*
D03*
X-47835Y97835D02*
D03*
Y102953D02*
D03*
X34813Y-38750D02*
D03*
X34813Y-33631D02*
D03*
X37569Y-38750D02*
D03*
Y-33631D02*
D03*
X48059Y-15806D02*
D03*
X48059Y-10688D02*
D03*
X50815Y-15806D02*
D03*
Y-10688D02*
D03*
X48059Y10688D02*
D03*
X48059Y15806D02*
D03*
X50815Y10688D02*
D03*
Y15806D02*
D03*
X34813Y33632D02*
D03*
X34813Y38750D02*
D03*
X37569Y33631D02*
D03*
Y38750D02*
D03*
X11869Y46878D02*
D03*
X11869Y51996D02*
D03*
X14625Y46878D02*
D03*
Y51996D02*
D03*
X-14625Y46878D02*
D03*
X-14625Y51996D02*
D03*
X-11869Y46878D02*
D03*
Y51996D02*
D03*
X-37569Y33632D02*
D03*
X-37569Y38750D02*
D03*
X-34813Y33631D02*
D03*
Y38750D02*
D03*
X-50815Y10688D02*
D03*
X-50815Y15806D02*
D03*
X-48059Y10688D02*
D03*
Y15806D02*
D03*
X-50815Y-15806D02*
D03*
X-50815Y-10688D02*
D03*
X-48059Y-15806D02*
D03*
Y-10688D02*
D03*
X-37569Y-38750D02*
D03*
X-37569Y-33631D02*
D03*
X-34813Y-38750D02*
D03*
Y-33631D02*
D03*
D14*
X-78740Y-96364D02*
X-74741D01*
X-76741D01*
Y-102362D01*
X-71742D02*
X-69743D01*
X-68743Y-101363D01*
Y-99363D01*
X-69743Y-98364D01*
X-71742D01*
X-72742Y-99363D01*
Y-101363D01*
X-71742Y-102362D01*
X-66744Y-104362D02*
Y-98364D01*
X-63745D01*
X-62745Y-99363D01*
Y-101363D01*
X-63745Y-102362D01*
X-66744D01*
X-54748D02*
Y-96364D01*
X-51749D01*
X-50749Y-97364D01*
Y-99363D01*
X-51749Y-100363D01*
X-54748D01*
X-47750Y-98364D02*
X-45751D01*
X-44751Y-99363D01*
Y-102362D01*
X-47750D01*
X-48750Y-101363D01*
X-47750Y-100363D01*
X-44751D01*
X-42752Y-102362D02*
X-39753D01*
X-38753Y-101363D01*
X-39753Y-100363D01*
X-41752D01*
X-42752Y-99363D01*
X-41752Y-98364D01*
X-38753D01*
X-35754Y-97364D02*
Y-98364D01*
X-36754D01*
X-34754D01*
X-35754D01*
Y-101363D01*
X-34754Y-102362D01*
X-28756D02*
X-30756D01*
X-31755Y-101363D01*
Y-99363D01*
X-30756Y-98364D01*
X-28756D01*
X-27757Y-99363D01*
Y-100363D01*
X-31755D01*
X27559Y-102362D02*
X29558D01*
X28559D01*
Y-96364D01*
X27559Y-97364D01*
X32557D02*
X33557Y-96364D01*
X35557D01*
X36556Y-97364D01*
Y-101363D01*
X35557Y-102362D01*
X33557D01*
X32557Y-101363D01*
Y-97364D01*
X38555Y-102362D02*
X42554Y-98364D01*
X44554Y-97364D02*
X45553Y-96364D01*
X47553D01*
X48552Y-97364D01*
Y-98364D01*
X47553Y-99363D01*
X46553D01*
X47553D01*
X48552Y-100363D01*
Y-101363D01*
X47553Y-102362D01*
X45553D01*
X44554Y-101363D01*
X50552Y-102362D02*
X52551D01*
X51551D01*
Y-96364D01*
X50552Y-97364D01*
X55550Y-102362D02*
X59549Y-98364D01*
X65547Y-102362D02*
X61548D01*
X65547Y-98364D01*
Y-97364D01*
X64547Y-96364D01*
X62548D01*
X61548Y-97364D01*
X67546D02*
X68546Y-96364D01*
X70545D01*
X71545Y-97364D01*
Y-101363D01*
X70545Y-102362D01*
X68546D01*
X67546Y-101363D01*
Y-97364D01*
X73544Y-102362D02*
X75543D01*
X74544D01*
Y-96364D01*
X73544Y-97364D01*
X81542Y-102362D02*
Y-96364D01*
X78543Y-99363D01*
X82541D01*
X27559Y-114173D02*
X29558D01*
X28559D01*
Y-108175D01*
X27559Y-109175D01*
X36556Y-114173D02*
X32557D01*
X36556Y-110175D01*
Y-109175D01*
X35557Y-108175D01*
X33557D01*
X32557Y-109175D01*
X38555Y-110175D02*
X39555D01*
Y-111174D01*
X38555D01*
Y-110175D01*
Y-113174D02*
X39555D01*
Y-114173D01*
X38555D01*
Y-113174D01*
X47553Y-114173D02*
X43554D01*
X47553Y-110175D01*
Y-109175D01*
X46553Y-108175D01*
X44554D01*
X43554Y-109175D01*
X52551Y-114173D02*
Y-108175D01*
X49552Y-111174D01*
X53551D01*
X55550Y-110175D02*
X56550D01*
Y-111174D01*
X55550D01*
Y-110175D01*
Y-113174D02*
X56550D01*
Y-114173D01*
X55550D01*
Y-113174D01*
X60548Y-109175D02*
X61548Y-108175D01*
X63547D01*
X64547Y-109175D01*
Y-113174D01*
X63547Y-114173D01*
X61548D01*
X60548Y-113174D01*
Y-109175D01*
X66546D02*
X67546Y-108175D01*
X69546D01*
X70545Y-109175D01*
Y-113174D01*
X69546Y-114173D01*
X67546D01*
X66546Y-113174D01*
Y-109175D01*
X78543Y-114173D02*
Y-108175D01*
X81542D01*
X82541Y-109175D01*
Y-111174D01*
X81542Y-112174D01*
X78543D01*
X84541Y-114173D02*
Y-108175D01*
X86540Y-110175D01*
X88539Y-108175D01*
Y-114173D01*
M02*
